<?xml version="1.0" standalone="no"?>
<!DOCTYPE svg PUBLIC "-//W3C//DTD SVG 20010904//EN"
 "http://www.w3.org/TR/2001/REC-SVG-20010904/DTD/svg10.dtd">
<svg version="1.0" xmlns="http://www.w3.org/2000/svg"
 width="668.000000pt" height="405.000000pt" viewBox="0 0 668.000000 405.000000"
 preserveAspectRatio="xMidYMid meet">

<g transform="translate(0.000000,405.000000) scale(0.100000,-0.100000)"
fill="#000000" stroke="none">
<path d="M4392 3652 c2 -4 12 -29 22 -55 11 -27 22 -43 26 -37 7 12 -30 99
-43 100 -5 0 -7 -3 -5 -8z"/>
<path d="M827 3632 c-10 -10 -17 -28 -17 -40 0 -23 25 -52 43 -52 7 0 4 5 -5
11 -21 12 -24 69 -6 87 7 7 10 12 7 12 -3 0 -13 -8 -22 -18z"/>
<path d="M885 3640 c3 -5 8 -10 11 -10 2 0 4 5 4 10 0 6 -5 10 -11 10 -5 0 -7
-4 -4 -10z"/>
<path d="M920 3595 c0 -30 5 -55 10 -55 6 0 10 25 10 55 0 30 -4 55 -10 55 -5
0 -10 -25 -10 -55z"/>
<path d="M1200 3595 c0 -30 5 -55 10 -55 6 0 10 25 10 55 0 30 -4 55 -10 55
-5 0 -10 -25 -10 -55z"/>
<path d="M4137 3624 c-15 -16 -7 -53 14 -59 30 -10 58 19 43 43 -12 18 -45 28
-57 16z"/>
<path d="M560 3606 c-27 -33 18 -72 48 -42 13 13 14 20 6 34 -15 23 -38 26
-54 8z"/>
<path d="M4525 3610 c3 -5 8 -10 11 -10 2 0 4 5 4 10 0 6 -5 10 -11 10 -5 0
-7 -4 -4 -10z"/>
<path d="M4560 3585 c0 -19 3 -35 8 -35 4 0 7 16 7 35 0 19 -3 35 -7 35 -5 0
-8 -16 -8 -35z"/>
<path d="M4615 3585 c0 -19 3 -35 8 -35 4 0 7 16 7 35 0 19 -3 35 -7 35 -5 0
-8 -16 -8 -35z"/>
<path d="M4676 3585 c-15 -19 -24 -35 -20 -35 7 0 28 25 45 53 16 29 3 19 -25
-18z"/>
<path d="M4774 3585 c1 -18 4 -31 9 -28 10 6 9 51 -1 57 -5 3 -8 -10 -8 -29z"/>
<path d="M4810 3585 c0 -19 4 -35 8 -35 4 0 6 16 4 35 -2 19 -6 35 -8 35 -2 0
-4 -16 -4 -35z"/>
<path d="M4850 3588 c0 -21 5 -38 10 -38 13 0 13 40 0 60 -7 11 -10 5 -10 -22z"/>
<path d="M965 3575 c0 -19 3 -35 8 -35 4 0 7 16 7 35 0 19 -3 35 -7 35 -5 0
-8 -16 -8 -35z"/>
<path d="M1000 3575 c0 -19 5 -35 10 -35 6 0 10 16 10 35 0 19 -4 35 -10 35
-5 0 -10 -16 -10 -35z"/>
<path d="M1068 3571 c13 -29 19 -36 25 -25 5 9 2 20 -7 30 -9 8 -16 20 -16 25
0 5 -4 9 -9 9 -5 0 -2 -18 7 -39z"/>
<path d="M1280 3600 c0 -5 5 -10 11 -10 5 0 7 5 4 10 -3 6 -8 10 -11 10 -2 0
-4 -4 -4 -10z"/>
<path d="M1315 3575 c0 -19 3 -35 6 -35 4 0 9 16 11 35 2 20 0 35 -7 35 -5 0
-10 -16 -10 -35z"/>
<path d="M4725 3600 c-5 -8 10 -50 19 -50 1 0 1 14 -2 30 -5 32 -7 36 -17 20z"/>
<path d="M1130 3597 c0 -2 11 -13 25 -25 14 -12 25 -18 25 -13 0 5 -11 16 -25
25 -14 9 -25 15 -25 13z"/>
<path d="M1241 3588 c-2 -30 11 -48 33 -47 20 0 20 1 1 8 -11 4 -23 19 -26 32
-4 14 -7 17 -8 7z"/>
<path d="M4480 3594 c0 -17 23 -44 38 -44 13 0 12 3 -6 16 -12 8 -20 20 -17
25 4 5 1 9 -4 9 -6 0 -11 -3 -11 -6z"/>
<path d="M4395 3395 c0 -30 5 -55 10 -55 6 0 10 25 10 55 0 30 -4 55 -10 55
-5 0 -10 -25 -10 -55z"/>
<path d="M4438 3443 c15 -6 16 -43 0 -43 -6 0 -3 -6 7 -14 17 -12 18 -16 5
-32 -13 -15 -13 -17 0 -12 10 3 16 19 17 44 1 40 -11 65 -31 63 -7 0 -6 -2 2
-6z"/>
<path d="M4875 3395 c0 -30 5 -55 10 -55 6 0 10 25 10 55 0 30 -4 55 -10 55
-5 0 -10 -25 -10 -55z"/>
<path d="M4918 3443 c15 -6 16 -43 0 -43 -6 0 -3 -6 7 -14 17 -12 18 -16 5
-32 -13 -15 -13 -17 0 -12 10 3 16 19 17 44 1 40 -11 65 -31 63 -7 0 -6 -2 2
-6z"/>
<path d="M5155 3395 c0 -30 3 -55 8 -55 4 0 7 25 7 55 0 30 -3 55 -7 55 -5 0
-8 -25 -8 -55z"/>
<path d="M820 3375 c0 -37 4 -55 13 -55 8 0 11 16 9 55 -5 71 -22 71 -22 0z"/>
<path d="M946 3383 c34 -59 33 -58 39 -51 7 7 -45 98 -56 98 -6 0 2 -21 17
-47z"/>
<path d="M1018 3420 c-5 -17 3 -100 11 -100 3 0 6 25 6 55 0 50 -8 71 -17 45z"/>
<path d="M1071 3418 c0 -7 8 -33 18 -57 13 -33 19 -40 24 -27 4 10 1 24 -8 32
-8 9 -15 26 -15 40 0 13 -4 24 -10 24 -5 0 -10 -6 -9 -12z"/>
<path d="M1123 3400 c0 -16 4 -27 8 -24 4 2 10 -10 14 -27 5 -21 10 -27 15
-19 4 7 1 24 -6 39 -8 14 -14 34 -14 44 0 9 -4 17 -8 17 -5 0 -9 -13 -9 -30z"/>
<path d="M880 3402 c0 -12 -6 -22 -12 -22 -9 0 -9 -3 1 -9 8 -5 12 -18 8 -31
-3 -14 -1 -20 6 -17 16 5 22 47 6 47 -8 0 -8 4 1 15 10 12 10 19 2 27 -9 9
-12 7 -12 -10z"/>
<path d="M4137 3414 c-15 -16 -7 -53 14 -59 30 -10 58 19 43 43 -12 18 -45 28
-57 16z"/>
<path d="M5112 3383 c-2 -35 1 -43 16 -43 11 0 13 3 5 8 -6 4 -13 23 -16 42
-4 33 -4 33 -5 -7z"/>
<path d="M4495 3375 c0 -19 3 -35 6 -35 4 0 9 16 11 35 2 20 0 35 -7 35 -5 0
-10 -16 -10 -35z"/>
<path d="M4594 3375 c1 -18 4 -31 9 -28 10 6 9 51 -1 57 -5 3 -8 -10 -8 -29z"/>
<path d="M4642 3375 c6 -19 15 -32 19 -30 7 5 -17 65 -26 65 -2 0 2 -16 7 -35z"/>
<path d="M4681 3380 c6 -16 15 -30 19 -30 5 0 3 14 -3 30 -6 17 -15 30 -19 30
-4 0 -2 -13 3 -30z"/>
<path d="M4745 3375 c0 -19 3 -35 8 -35 4 0 7 16 7 35 0 19 -3 35 -7 35 -5 0
-8 -16 -8 -35z"/>
<path d="M4788 3375 c2 -19 7 -35 11 -35 4 0 5 16 3 35 -2 19 -7 35 -11 35 -4
0 -5 -16 -3 -35z"/>
<path d="M4975 3375 c0 -19 3 -35 6 -35 4 0 9 16 11 35 2 20 0 35 -7 35 -5 0
-10 -16 -10 -35z"/>
<path d="M5074 3375 c1 -18 4 -31 9 -28 10 6 9 51 -1 57 -5 3 -8 -10 -8 -29z"/>
<path d="M5198 3375 c2 -19 7 -35 11 -35 4 0 5 16 3 35 -2 19 -7 35 -11 35 -4
0 -5 -16 -3 -35z"/>
<path d="M5270 3400 c0 -5 5 -10 11 -10 5 0 7 5 4 10 -3 6 -8 10 -11 10 -2 0
-4 -4 -4 -10z"/>
<path d="M5305 3375 c0 -19 3 -35 6 -35 4 0 9 16 11 35 2 20 0 35 -7 35 -5 0
-10 -16 -10 -35z"/>
<path d="M5360 3395 c0 -7 6 -18 14 -22 7 -4 16 -15 19 -23 4 -12 6 -11 6 3 1
9 -8 26 -19 37 -15 15 -20 16 -20 5z"/>
<path d="M560 3386 c-27 -33 18 -72 48 -42 13 13 14 20 6 34 -15 23 -38 26
-54 8z"/>
<path d="M4545 3390 c-5 -8 10 -50 19 -50 1 0 1 14 -2 30 -5 32 -7 36 -17 20z"/>
<path d="M5025 3390 c-5 -8 10 -50 19 -50 1 0 1 14 -2 30 -5 32 -7 36 -17 20z"/>
<path d="M5231 3388 c-2 -30 11 -48 33 -47 20 0 20 1 1 8 -11 4 -23 19 -26 32
-4 14 -7 17 -8 7z"/>
<path d="M4395 3175 c0 -71 12 -71 17 0 2 32 -1 55 -7 55 -5 0 -10 -25 -10
-55z"/>
<path d="M4441 3214 c11 -14 11 -18 -4 -29 -16 -11 -16 -14 4 -39 11 -14 25
-26 30 -26 5 0 1 10 -11 22 -22 24 -26 38 -10 38 17 0 11 37 -6 44 -15 6 -15
4 -3 -10z"/>
<path d="M4570 3175 c0 -30 5 -55 10 -55 6 0 10 25 10 55 0 30 -4 55 -10 55
-5 0 -10 -25 -10 -55z"/>
<path d="M4900 3175 c0 -30 5 -55 10 -55 6 0 10 25 10 55 0 30 -4 55 -10 55
-5 0 -10 -25 -10 -55z"/>
<path d="M822 3165 c1 -52 2 -54 5 -15 l4 44 34 -39 c19 -22 34 -35 34 -30 0
6 -17 30 -39 55 l-39 45 1 -60z"/>
<path d="M940 3165 c0 -30 3 -55 8 -55 4 0 7 25 7 55 0 30 -3 55 -7 55 -5 0
-8 -25 -8 -55z"/>
<path d="M990 3165 c0 -30 5 -55 10 -55 6 0 10 25 10 55 0 30 -4 55 -10 55 -5
0 -10 -25 -10 -55z"/>
<path d="M1070 3165 c0 -30 3 -55 8 -55 4 0 7 25 7 55 0 30 -3 55 -7 55 -5 0
-8 -25 -8 -55z"/>
<path d="M1200 3165 c0 -30 5 -55 10 -55 6 0 10 25 10 55 0 30 -4 55 -10 55
-5 0 -10 -25 -10 -55z"/>
<path d="M1400 3165 c0 -30 5 -55 10 -55 6 0 10 25 10 55 0 30 -4 55 -10 55
-5 0 -10 -25 -10 -55z"/>
<path d="M1645 3165 c0 -30 3 -55 8 -55 4 0 7 25 7 55 0 30 -3 55 -7 55 -5 0
-8 -25 -8 -55z"/>
<path d="M4137 3194 c-15 -16 -7 -53 14 -59 30 -10 58 19 43 43 -12 18 -45 28
-57 16z"/>
<path d="M4812 3163 c-2 -35 1 -43 16 -43 11 0 13 3 5 8 -6 4 -13 23 -16 42
-4 33 -4 33 -5 -7z"/>
<path d="M560 3176 c-27 -33 18 -72 48 -42 13 13 14 20 6 34 -15 23 -38 26
-54 8z"/>
<path d="M4530 3180 c0 -5 5 -10 11 -10 5 0 7 5 4 10 -3 6 -8 10 -11 10 -2 0
-4 -4 -4 -10z"/>
<path d="M4615 3155 c0 -19 3 -35 8 -35 4 0 7 16 7 35 0 19 -3 35 -7 35 -5 0
-8 -16 -8 -35z"/>
<path d="M4690 3156 c0 -20 5 -36 10 -36 6 0 10 13 10 29 0 17 -4 33 -10 36
-6 4 -10 -8 -10 -29z"/>
<path d="M4730 3155 c0 -19 4 -35 8 -35 4 0 6 16 4 35 -2 19 -6 35 -8 35 -2 0
-4 -16 -4 -35z"/>
<path d="M4770 3158 c0 -21 5 -38 10 -38 13 0 13 40 0 60 -7 11 -10 5 -10 -22z"/>
<path d="M4990 3155 c0 -19 5 -35 10 -35 6 0 10 16 10 35 0 19 -4 35 -10 35
-5 0 -10 -16 -10 -35z"/>
<path d="M5035 3155 c0 -19 3 -35 8 -35 4 0 7 16 7 35 0 19 -3 35 -7 35 -5 0
-8 -16 -8 -35z"/>
<path d="M5110 3180 c0 -5 5 -10 11 -10 5 0 7 5 4 10 -3 6 -8 10 -11 10 -2 0
-4 -4 -4 -10z"/>
<path d="M5145 3155 c0 -19 3 -35 6 -35 4 0 9 16 11 35 2 20 0 35 -7 35 -5 0
-10 -16 -10 -35z"/>
<path d="M5202 3170 c0 -14 2 -19 5 -12 2 6 2 18 0 25 -3 6 -5 1 -5 -13z"/>
<path d="M5234 3171 c0 -11 4 -17 8 -15 4 3 8 12 8 20 0 8 -4 14 -8 14 -4 0
-8 -9 -8 -19z"/>
<path d="M5288 3151 c13 -29 19 -36 25 -25 5 9 2 20 -7 30 -9 8 -16 20 -16 25
0 5 -4 9 -9 9 -5 0 -2 -18 7 -39z"/>
<path d="M1295 3170 c3 -5 8 -10 11 -10 2 0 4 5 4 10 0 6 -5 10 -11 10 -5 0
-7 -4 -4 -10z"/>
<path d="M1325 3160 c-11 -34 32 -68 50 -40 3 5 0 7 -9 4 -16 -6 -36 24 -29
44 3 6 2 12 0 12 -3 0 -9 -9 -12 -20z"/>
<path d="M1365 3170 c3 -5 8 -10 11 -10 2 0 4 5 4 10 0 6 -5 10 -11 10 -5 0
-7 -4 -4 -10z"/>
<path d="M1445 3145 c0 -19 3 -35 8 -35 4 0 7 16 7 35 0 19 -3 35 -7 35 -5 0
-8 -16 -8 -35z"/>
<path d="M1480 3145 c0 -19 5 -35 10 -35 6 0 10 16 10 35 0 19 -4 35 -10 35
-5 0 -10 -16 -10 -35z"/>
<path d="M1525 3145 c0 -19 3 -35 8 -35 4 0 7 16 7 35 0 19 -3 35 -7 35 -5 0
-8 -16 -8 -35z"/>
<path d="M1567 3173 c-10 -9 -9 -51 1 -57 5 -3 8 11 8 29 -1 19 -1 35 -2 35 0
0 -4 -3 -7 -7z"/>
<path d="M1605 3145 c0 -18 3 -31 8 -28 4 2 7 15 7 28 0 13 -3 26 -7 28 -5 3
-8 -10 -8 -28z"/>
<path d="M1734 3145 c1 -18 4 -31 9 -28 10 6 9 51 -1 57 -5 3 -8 -10 -8 -29z"/>
<path d="M1770 3166 c0 -8 4 -17 9 -20 5 -4 7 3 4 14 -6 23 -13 26 -13 6z"/>
<path d="M1812 3160 c0 -14 2 -19 5 -12 2 6 2 18 0 25 -3 6 -5 1 -5 -13z"/>
<path d="M1850 3145 c0 -19 5 -35 10 -35 6 0 10 16 10 35 0 19 -4 35 -10 35
-5 0 -10 -16 -10 -35z"/>
<path d="M1930 3170 c0 -5 5 -10 11 -10 5 0 7 5 4 10 -3 6 -8 10 -11 10 -2 0
-4 -4 -4 -10z"/>
<path d="M4491 3168 c-2 -30 11 -48 33 -47 20 0 20 1 1 8 -11 4 -23 19 -26 32
-4 14 -7 17 -8 7z"/>
<path d="M5073 3155 c2 -24 7 -30 27 -32 22 -2 22 -2 5 6 -11 4 -23 19 -27 32
-6 21 -7 21 -5 -6z"/>
<path d="M1685 3160 c-5 -8 10 -50 19 -50 1 0 1 14 -2 30 -5 32 -7 36 -17 20z"/>
<path d="M1893 3145 c2 -24 7 -30 27 -32 22 -2 22 -2 5 6 -11 4 -23 19 -27 32
-6 21 -7 21 -5 -6z"/>
<path d="M1960 3167 c0 -2 11 -13 25 -25 14 -12 25 -18 25 -13 0 5 -11 16 -25
25 -14 9 -25 15 -25 13z"/>
<path d="M1250 3154 c0 -17 23 -44 38 -44 13 0 12 3 -6 16 -12 8 -20 20 -17
25 4 5 1 9 -4 9 -6 0 -11 -3 -11 -6z"/>
<path d="M4657 3147 c-3 -9 -2 -19 4 -23 15 -9 18 -2 9 20 -6 17 -7 18 -13 3z"/>
<path d="M5200 3129 c0 -4 14 -9 30 -11 17 -3 30 -1 30 3 0 4 -13 9 -30 11
-16 3 -30 1 -30 -3z"/>
<path d="M1770 3118 c0 -4 14 -8 30 -8 17 0 30 2 30 4 0 2 -13 6 -30 8 -16 3
-30 1 -30 -4z"/>
<path d="M5190 3100 c0 -6 7 -10 15 -10 8 0 15 2 15 4 0 2 -7 6 -15 10 -8 3
-15 1 -15 -4z"/>
<path d="M1767 3089 c7 -7 15 -10 18 -7 3 3 -2 9 -12 12 -14 6 -15 5 -6 -5z"/>
<path d="M4395 2965 c0 -30 3 -55 8 -55 4 0 7 25 7 55 0 30 -3 55 -7 55 -5 0
-8 -25 -8 -55z"/>
<path d="M4897 2965 c17 -35 30 -50 34 -43 5 7 4 15 -1 18 -5 3 -16 22 -25 43
-8 20 -20 37 -25 37 -5 0 2 -25 17 -55z"/>
<path d="M4959 2999 c-8 -17 -8 -20 1 -14 9 6 11 -3 8 -34 -2 -24 1 -41 7 -41
6 0 10 24 10 55 0 59 -7 68 -26 34z"/>
<path d="M820 2945 c0 -30 5 -55 10 -55 6 0 10 25 10 55 0 30 -4 55 -10 55 -5
0 -10 -25 -10 -55z"/>
<path d="M1125 2990 c3 -5 8 -10 11 -10 2 0 4 5 4 10 0 6 -5 10 -11 10 -5 0
-7 -4 -4 -10z"/>
<path d="M958 2940 c-1 -28 0 -50 5 -50 4 0 7 23 7 50 0 65 -7 65 -12 0z"/>
<path d="M4137 2984 c-15 -16 -7 -53 14 -59 30 -10 58 19 43 43 -12 18 -45 28
-57 16z"/>
<path d="M1080 2971 c0 -5 14 -19 31 -31 20 -15 28 -28 24 -39 -5 -12 -3 -13
6 -4 6 6 9 18 6 26 -7 18 -67 62 -67 48z"/>
<path d="M4510 2946 c0 -20 5 -36 10 -36 6 0 10 13 10 29 0 17 -4 33 -10 36
-6 4 -10 -8 -10 -29z"/>
<path d="M4550 2945 c0 -19 4 -35 8 -35 4 0 6 16 4 35 -2 19 -6 35 -8 35 -2 0
-4 -16 -4 -35z"/>
<path d="M4590 2948 c0 -21 5 -38 10 -38 13 0 13 40 0 60 -7 11 -10 5 -10 -22z"/>
<path d="M4630 2945 c0 -19 5 -35 10 -35 6 0 10 16 10 35 0 19 -4 35 -10 35
-5 0 -10 -16 -10 -35z"/>
<path d="M4675 2945 c0 -19 3 -35 8 -35 4 0 7 16 7 35 0 19 -3 35 -7 35 -5 0
-8 -16 -8 -35z"/>
<path d="M4715 2945 c0 -19 3 -35 8 -35 4 0 7 16 7 35 0 19 -3 35 -7 35 -5 0
-8 -16 -8 -35z"/>
<path d="M4790 2970 c0 -5 5 -10 11 -10 5 0 7 5 4 10 -3 6 -8 10 -11 10 -2 0
-4 -4 -4 -10z"/>
<path d="M5045 2963 c2 -10 4 -26 4 -35 1 -10 5 -18 9 -18 4 0 6 16 4 35 -2
19 -8 35 -12 35 -5 0 -7 -8 -5 -17z"/>
<path d="M5120 2970 c0 -5 5 -10 11 -10 5 0 7 5 4 10 -3 6 -8 10 -11 10 -2 0
-4 -4 -4 -10z"/>
<path d="M560 2956 c-27 -33 18 -72 48 -42 13 13 14 20 6 34 -15 23 -38 26
-54 8z"/>
<path d="M4751 2958 c-2 -30 11 -48 33 -47 20 0 20 1 1 8 -11 4 -23 19 -26 32
-4 14 -7 17 -8 7z"/>
<path d="M5083 2945 c2 -24 7 -30 27 -32 22 -2 22 -2 5 6 -11 4 -23 19 -27 32
-6 21 -7 21 -5 -6z"/>
<path d="M870 2925 c0 -19 4 -35 8 -35 4 0 6 16 4 35 -2 19 -6 35 -8 35 -2 0
-4 -16 -4 -35z"/>
<path d="M910 2928 c0 -21 5 -38 10 -38 13 0 13 40 0 60 -7 11 -10 5 -10 -22z"/>
<path d="M1007 2953 c-10 -9 -9 -51 1 -57 5 -3 8 11 8 29 -1 19 -1 35 -2 35 0
0 -4 -3 -7 -7z"/>
<path d="M1045 2925 c0 -18 3 -31 8 -28 4 2 7 15 7 28 0 13 -3 26 -7 28 -5 3
-8 -10 -8 -28z"/>
<path d="M1182 2933 c17 -40 24 -47 32 -28 3 9 2 13 -4 10 -5 -3 -12 6 -16 20
-3 14 -10 25 -15 25 -5 0 -3 -12 3 -27z"/>
<path d="M1250 2947 c0 -7 9 -18 20 -25 12 -7 18 -18 14 -25 -5 -9 -4 -9 6 0
11 10 9 17 -13 37 -15 14 -27 20 -27 13z"/>
<path d="M4477 2937 c-3 -9 -2 -19 4 -23 15 -9 18 -2 9 20 -6 17 -7 18 -13 3z"/>
<path d="M5017 2943 c-13 -13 -7 -33 11 -33 13 0 14 2 3 9 -7 5 -10 14 -7 20
8 12 3 15 -7 4z"/>
<path d="M1080 2900 c0 -5 5 -10 11 -10 5 0 7 5 4 10 -3 6 -8 10 -11 10 -2 0
-4 -4 -4 -10z"/>
<path d="M4455 2800 c3 -5 8 -10 11 -10 2 0 4 5 4 10 0 6 -5 10 -11 10 -5 0
-7 -4 -4 -10z"/>
<path d="M4820 2755 c0 -30 5 -55 10 -55 6 0 10 25 10 55 0 30 -4 55 -10 55
-5 0 -10 -25 -10 -55z"/>
<path d="M4389 2774 c-7 -20 -6 -32 6 -50 8 -13 20 -24 26 -24 6 0 3 8 -6 17
-12 11 -15 26 -12 50 7 40 0 43 -14 7z"/>
<path d="M821 2778 c0 -7 8 -33 18 -57 13 -33 19 -40 24 -27 4 10 1 24 -8 32
-8 9 -15 26 -15 40 0 13 -4 24 -10 24 -5 0 -10 -6 -9 -12z"/>
<path d="M873 2760 c0 -16 4 -27 8 -24 4 2 10 -10 14 -27 5 -21 10 -27 15 -19
4 7 1 24 -6 39 -8 14 -14 34 -14 44 0 9 -4 17 -8 17 -5 0 -9 -13 -9 -30z"/>
<path d="M4137 2774 c-15 -16 -7 -53 14 -59 30 -10 58 19 43 43 -12 18 -45 28
-57 16z"/>
<path d="M4500 2735 c0 -19 4 -35 8 -35 4 0 6 16 4 35 -2 19 -6 35 -8 35 -2 0
-4 -16 -4 -35z"/>
<path d="M4544 2759 c-3 -6 -1 -16 4 -21 8 -8 11 -5 9 11 -1 24 -3 25 -13 10z"/>
<path d="M4580 2749 c0 -11 5 -17 10 -14 6 3 10 13 10 21 0 8 -4 14 -10 14 -5
0 -10 -9 -10 -21z"/>
<path d="M4620 2735 c0 -19 5 -35 10 -35 6 0 10 16 10 35 0 19 -4 35 -10 35
-5 0 -10 -16 -10 -35z"/>
<path d="M4665 2735 c0 -19 3 -35 8 -35 4 0 7 16 7 35 0 19 -3 35 -7 35 -5 0
-8 -16 -8 -35z"/>
<path d="M4735 2753 c2 -10 4 -26 4 -35 1 -10 5 -18 9 -18 4 0 6 16 4 35 -2
19 -8 35 -12 35 -5 0 -7 -8 -5 -17z"/>
<path d="M4870 2735 c0 -19 4 -35 8 -35 4 0 6 16 4 35 -2 19 -6 35 -8 35 -2 0
-4 -16 -4 -35z"/>
<path d="M4910 2738 c0 -21 5 -38 10 -38 13 0 13 40 0 60 -7 11 -10 5 -10 -22z"/>
<path d="M4950 2755 c0 -7 6 -18 14 -22 7 -4 16 -15 19 -23 4 -12 6 -11 6 3 1
9 -8 26 -19 37 -15 15 -20 16 -20 5z"/>
<path d="M5012 2738 c3 -28 7 -33 31 -34 25 -1 27 2 26 35 -1 35 -2 35 -8 7
-9 -41 -31 -46 -31 -7 0 17 -5 31 -11 31 -6 0 -9 -14 -7 -32z"/>
<path d="M5090 2735 c0 -19 5 -35 10 -35 6 0 10 16 10 35 0 19 -4 35 -10 35
-5 0 -10 -16 -10 -35z"/>
<path d="M5180 2735 c0 -19 4 -35 8 -35 4 0 6 16 4 35 -2 19 -6 35 -8 35 -2 0
-4 -16 -4 -35z"/>
<path d="M5215 2735 c0 -19 3 -35 8 -35 4 0 7 16 7 35 0 19 -3 35 -7 35 -5 0
-8 -16 -8 -35z"/>
<path d="M5258 2735 c2 -19 7 -35 11 -35 4 0 5 16 3 35 -2 19 -7 35 -11 35 -4
0 -5 -16 -3 -35z"/>
<path d="M5295 2750 c-11 -34 32 -68 50 -40 3 5 0 7 -9 4 -16 -6 -36 24 -29
44 3 6 2 12 0 12 -3 0 -9 -9 -12 -20z"/>
<path d="M5335 2760 c3 -5 8 -10 11 -10 2 0 4 5 4 10 0 6 -5 10 -11 10 -5 0
-7 -4 -4 -10z"/>
<path d="M5405 2760 c3 -5 8 -10 11 -10 2 0 4 5 4 10 0 6 -5 10 -11 10 -5 0
-7 -4 -4 -10z"/>
<path d="M560 2746 c-27 -33 18 -72 48 -42 13 13 14 20 6 34 -15 23 -38 26
-54 8z"/>
<path d="M960 2715 c0 -19 5 -35 10 -35 6 0 10 16 10 35 0 19 -4 35 -10 35 -5
0 -10 -16 -10 -35z"/>
<path d="M1009 2698 c2 -33 6 -46 10 -35 8 21 2 87 -8 87 -3 0 -4 -24 -2 -52z"/>
<path d="M1050 2731 c9 -17 8 -26 -2 -39 -12 -15 -11 -16 5 -3 20 16 19 52 -1
59 -11 3 -12 0 -2 -17z"/>
<path d="M1085 2715 c0 -19 3 -35 6 -35 4 0 9 16 11 35 2 20 0 35 -7 35 -5 0
-10 -16 -10 -35z"/>
<path d="M1184 2715 c1 -18 4 -31 9 -28 10 6 9 51 -1 57 -5 3 -8 -10 -8 -29z"/>
<path d="M5360 2744 c0 -17 23 -44 38 -44 13 0 12 3 -6 16 -12 8 -20 20 -17
25 4 5 1 9 -4 9 -6 0 -11 -3 -11 -6z"/>
<path d="M1135 2730 c-5 -8 10 -50 19 -50 1 0 1 14 -2 30 -5 32 -7 36 -17 20z"/>
<path d="M4707 2733 c-13 -13 -7 -33 11 -33 13 0 14 2 3 9 -7 5 -10 14 -7 20
8 12 3 15 -7 4z"/>
<path d="M5147 2733 c-13 -13 -7 -33 11 -33 13 0 14 2 3 9 -7 5 -10 14 -7 20
8 12 3 15 -7 4z"/>
<path d="M4545 2709 c3 -4 18 -9 34 -11 17 -2 28 -1 26 3 -3 4 -18 9 -34 11
-17 2 -28 1 -26 -3z"/>
<path d="M4540 2680 c0 -5 5 -10 11 -10 5 0 7 5 4 10 -3 6 -8 10 -11 10 -2 0
-4 -4 -4 -10z"/>
<path d="M4390 2552 c0 -21 6 -46 13 -55 10 -15 11 -8 9 38 -4 62 -22 76 -22
17z"/>
<path d="M4473 2555 c0 -22 2 -30 4 -17 2 12 2 30 0 40 -3 9 -5 -1 -4 -23z"/>
<path d="M4791 2538 c0 -32 2 -58 7 -58 4 0 6 19 4 43 -5 70 -10 76 -11 15z"/>
<path d="M4875 2535 c0 -30 3 -55 8 -55 4 0 7 25 7 55 0 30 -3 55 -7 55 -5 0
-8 -25 -8 -55z"/>
<path d="M4940 2535 c0 -30 3 -55 8 -55 4 0 7 25 7 55 0 30 -3 55 -7 55 -5 0
-8 -25 -8 -55z"/>
<path d="M5130 2535 c0 -30 5 -55 10 -55 6 0 10 25 10 55 0 30 -4 55 -10 55
-5 0 -10 -25 -10 -55z"/>
<path d="M5215 2535 c0 -30 3 -55 8 -55 4 0 7 25 7 55 0 30 -3 55 -7 55 -5 0
-8 -25 -8 -55z"/>
<path d="M845 2525 c0 -30 3 -55 8 -55 4 0 7 25 7 55 0 30 -3 55 -7 55 -5 0
-8 -25 -8 -55z"/>
<path d="M926 2564 c-30 -29 -15 -94 21 -94 8 0 6 7 -7 20 -24 24 -25 38 -4
68 18 26 12 29 -10 6z"/>
<path d="M985 2570 c3 -5 8 -10 11 -10 2 0 4 5 4 10 0 6 -5 10 -11 10 -5 0 -7
-4 -4 -10z"/>
<path d="M1023 2563 c-4 -10 3 -24 20 -39 15 -13 27 -31 27 -41 1 -17 1 -17
12 1 9 16 6 23 -22 46 -19 16 -30 32 -26 38 4 7 5 12 1 12 -3 0 -8 -7 -12 -17z"/>
<path d="M1065 2570 c3 -5 8 -10 11 -10 2 0 4 5 4 10 0 6 -5 10 -11 10 -5 0
-7 -4 -4 -10z"/>
<path d="M4638 2564 c-12 -11 -9 -72 3 -79 14 -10 15 -6 9 43 -3 24 -8 40 -12
36z"/>
<path d="M5178 2564 c-12 -11 -9 -72 3 -79 14 -10 15 -6 9 43 -3 24 -8 40 -12
36z"/>
<path d="M4137 2554 c-15 -16 -7 -53 14 -59 30 -10 58 19 43 43 -12 18 -45 28
-57 16z"/>
<path d="M560 2536 c-27 -33 18 -72 48 -42 13 13 14 20 6 34 -15 23 -38 26
-54 8z"/>
<path d="M4505 2515 c0 -19 3 -35 8 -35 4 0 7 16 7 35 0 19 -3 35 -7 35 -5 0
-8 -16 -8 -35z"/>
<path d="M4548 2515 c2 -19 7 -35 11 -35 4 0 5 16 3 35 -2 19 -7 35 -11 35 -4
0 -5 -16 -3 -35z"/>
<path d="M4590 2515 c0 -19 4 -35 8 -35 4 0 6 16 4 35 -2 19 -6 35 -8 35 -2 0
-4 -16 -4 -35z"/>
<path d="M4710 2540 c0 -5 5 -10 11 -10 5 0 7 5 4 10 -3 6 -8 10 -11 10 -2 0
-4 -4 -4 -10z"/>
<path d="M4744 2526 c-7 -29 1 -46 22 -46 13 0 13 2 -1 16 -9 9 -13 24 -10 35
4 10 4 19 1 19 -3 0 -8 -11 -12 -24z"/>
<path d="M5020 2540 c0 -5 5 -10 11 -10 5 0 7 5 4 10 -3 6 -8 10 -11 10 -2 0
-4 -4 -4 -10z"/>
<path d="M5090 2515 c0 -19 4 -35 8 -35 4 0 6 16 4 35 -2 19 -6 35 -8 35 -2 0
-4 -16 -4 -35z"/>
<path d="M5258 2515 c2 -19 7 -35 11 -35 4 0 5 16 3 35 -2 19 -7 35 -11 35 -4
0 -5 -16 -3 -35z"/>
<path d="M5295 2530 c-11 -34 32 -68 50 -40 3 5 0 7 -9 4 -16 -6 -36 24 -29
44 3 6 2 12 0 12 -3 0 -9 -9 -12 -20z"/>
<path d="M5335 2540 c3 -5 8 -10 11 -10 2 0 4 5 4 10 0 6 -5 10 -11 10 -5 0
-7 -4 -4 -10z"/>
<path d="M5400 2516 c0 -20 5 -36 10 -36 6 0 10 13 10 29 0 17 -4 33 -10 36
-6 4 -10 -8 -10 -29z"/>
<path d="M5440 2515 c0 -19 3 -35 8 -35 4 0 7 16 7 35 0 19 -3 35 -7 35 -5 0
-8 -16 -8 -35z"/>
<path d="M5530 2540 c0 -5 5 -10 11 -10 5 0 7 5 4 10 -3 6 -8 10 -11 10 -2 0
-4 -4 -4 -10z"/>
<path d="M4671 2528 c-2 -30 11 -48 33 -47 20 0 20 1 1 8 -11 4 -23 19 -26 32
-4 14 -7 17 -8 7z"/>
<path d="M4981 2528 c-2 -30 11 -48 33 -47 20 0 20 1 1 8 -11 4 -23 19 -26 32
-4 14 -7 17 -8 7z"/>
<path d="M5491 2528 c-2 -30 11 -48 33 -47 20 0 20 1 1 8 -11 4 -23 19 -26 32
-4 14 -7 17 -8 7z"/>
<path d="M5057 2513 c-13 -13 -7 -33 11 -33 13 0 14 2 3 9 -7 5 -10 14 -7 20
8 12 3 15 -7 4z"/>
<path d="M5367 2507 c-3 -9 -2 -19 4 -23 15 -9 18 -2 9 20 -6 17 -7 18 -13 3z"/>
<path d="M1020 2480 c0 -5 5 -10 11 -10 5 0 7 5 4 10 -3 6 -8 10 -11 10 -2 0
-4 -4 -4 -10z"/>
<path d="M4395 2325 c0 -30 5 -55 10 -55 6 0 10 25 10 55 0 30 -4 55 -10 55
-5 0 -10 -25 -10 -55z"/>
<path d="M4438 2373 c15 -6 16 -43 0 -43 -6 0 -3 -6 7 -14 17 -12 18 -16 5
-32 -13 -15 -13 -17 0 -12 10 3 16 19 17 44 1 40 -11 65 -31 63 -7 0 -6 -2 2
-6z"/>
<path d="M4785 2325 c0 -30 3 -55 8 -55 4 0 7 25 7 55 0 30 -3 55 -7 55 -5 0
-8 -25 -8 -55z"/>
<path d="M4897 2325 c17 -35 30 -50 34 -43 5 7 4 15 -1 18 -5 3 -16 22 -25 43
-8 20 -20 37 -25 37 -5 0 2 -25 17 -55z"/>
<path d="M4959 2359 c-8 -17 -8 -20 1 -14 9 6 11 -3 8 -34 -2 -24 1 -41 7 -41
6 0 10 24 10 55 0 59 -7 68 -26 34z"/>
<path d="M5323 2363 c-4 -10 3 -24 20 -39 15 -13 27 -31 27 -41 1 -17 1 -17
12 1 9 16 6 23 -22 46 -19 16 -30 32 -26 38 4 7 5 12 1 12 -3 0 -8 -7 -12 -17z"/>
<path d="M5365 2370 c3 -5 8 -10 11 -10 2 0 4 5 4 10 0 6 -5 10 -11 10 -5 0
-7 -4 -4 -10z"/>
<path d="M5618 2325 c2 -30 7 -55 10 -55 4 0 6 17 5 37 -1 21 -2 46 -2 56 -1
9 -4 17 -8 17 -5 0 -6 -25 -5 -55z"/>
<path d="M5698 2325 c2 -30 7 -55 10 -55 4 0 6 17 5 37 -1 21 -2 46 -2 56 -1
9 -4 17 -8 17 -5 0 -6 -25 -5 -55z"/>
<path d="M845 2305 c0 -30 3 -55 8 -55 4 0 7 25 7 55 0 30 -3 55 -7 55 -5 0
-8 -25 -8 -55z"/>
<path d="M1150 2357 c0 -18 34 -97 42 -97 6 0 7 7 3 18 -5 9 -13 32 -19 50 -6
17 -14 32 -18 32 -5 0 -8 -1 -8 -3z"/>
<path d="M1204 2325 c0 -19 3 -29 7 -23 5 8 10 2 14 -15 4 -15 12 -27 17 -27
5 0 7 6 4 13 -2 6 -10 29 -17 50 -15 46 -25 47 -25 2z"/>
<path d="M1725 2350 c3 -5 8 -10 11 -10 2 0 4 5 4 10 0 6 -5 10 -11 10 -5 0
-7 -4 -4 -10z"/>
<path d="M1840 2307 c0 -31 3 -57 8 -57 8 0 6 100 -3 108 -3 3 -5 -20 -5 -51z"/>
<path d="M1920 2305 c0 -30 5 -55 10 -55 6 0 10 25 10 55 0 30 -4 55 -10 55
-5 0 -10 -25 -10 -55z"/>
<path d="M1659 2324 c-7 -20 -6 -32 6 -50 8 -13 20 -24 26 -24 6 0 3 8 -6 17
-12 11 -15 26 -12 50 7 40 0 43 -14 7z"/>
<path d="M4137 2344 c-15 -16 -7 -53 14 -59 30 -10 58 19 43 43 -12 18 -45 28
-57 16z"/>
<path d="M4662 2313 c-2 -35 1 -43 16 -43 11 0 13 3 5 8 -6 4 -13 23 -16 42
-4 33 -4 33 -5 -7z"/>
<path d="M4495 2305 c0 -19 3 -35 6 -35 4 0 9 16 11 35 2 20 0 35 -7 35 -5 0
-10 -16 -10 -35z"/>
<path d="M4550 2305 c0 -19 5 -35 10 -35 6 0 10 16 10 35 0 19 -4 35 -10 35
-5 0 -10 -16 -10 -35z"/>
<path d="M4707 2333 c-10 -9 -9 -51 1 -57 5 -3 8 11 8 29 -1 19 -1 35 -2 35 0
0 -4 -3 -7 -7z"/>
<path d="M4745 2305 c0 -18 3 -31 8 -28 4 2 7 15 7 28 0 13 -3 26 -7 28 -5 3
-8 -10 -8 -28z"/>
<path d="M5022 2313 c17 -40 24 -47 32 -28 3 9 2 13 -4 10 -5 -3 -12 6 -16 20
-3 14 -10 25 -15 25 -5 0 -3 -12 3 -27z"/>
<path d="M5130 2330 c0 -5 5 -10 11 -10 5 0 7 5 4 10 -3 6 -8 10 -11 10 -2 0
-4 -4 -4 -10z"/>
<path d="M5160 2305 c0 -19 5 -35 10 -35 6 0 10 16 10 35 0 19 -4 35 -10 35
-5 0 -10 -16 -10 -35z"/>
<path d="M5450 2290 c0 -27 5 -50 10 -50 6 0 10 23 10 50 0 28 -4 50 -10 50
-5 0 -10 -22 -10 -50z"/>
<path d="M5494 2311 c0 -21 7 -36 16 -38 10 -3 11 -2 3 4 -6 4 -13 22 -16 38
-4 27 -5 27 -3 -4z"/>
<path d="M5530 2307 c0 -20 4 -37 10 -37 5 0 7 14 3 33 -8 45 -13 47 -13 4z"/>
<path d="M5575 2305 c0 -19 3 -35 8 -35 4 0 7 16 7 35 0 19 -3 35 -7 35 -5 0
-8 -16 -8 -35z"/>
<path d="M5661 2322 c11 -17 10 -24 -2 -39 -13 -17 -13 -17 4 -4 20 16 19 52
-1 59 -11 3 -11 0 -1 -16z"/>
<path d="M5741 2322 c11 -17 10 -24 -2 -39 -13 -17 -13 -17 4 -4 20 16 19 52
-1 59 -11 3 -11 0 -1 -16z"/>
<path d="M560 2316 c-27 -33 18 -72 48 -42 13 13 14 20 6 34 -15 23 -38 26
-54 8z"/>
<path d="M4590 2327 c0 -2 11 -13 25 -25 14 -12 25 -18 25 -13 0 5 -11 16 -25
25 -14 9 -25 15 -25 13z"/>
<path d="M5093 2305 c2 -24 7 -30 27 -32 22 -2 22 -2 5 6 -11 4 -23 19 -27 32
-6 21 -7 21 -5 -6z"/>
<path d="M5210 2327 c0 -2 11 -13 25 -25 14 -12 25 -18 25 -13 0 5 -11 16 -25
25 -14 9 -25 15 -25 13z"/>
<path d="M5407 2322 c-12 -18 2 -52 21 -52 11 0 13 3 6 8 -7 4 -14 18 -16 32
-2 17 -6 21 -11 12z"/>
<path d="M910 2285 c0 -19 4 -35 8 -35 4 0 6 16 4 35 -2 19 -6 35 -8 35 -2 0
-4 -16 -4 -35z"/>
<path d="M950 2285 c0 -19 5 -35 10 -35 6 0 10 16 10 35 0 19 -4 35 -10 35 -5
0 -10 -16 -10 -35z"/>
<path d="M998 2285 c2 -19 6 -35 8 -35 2 0 4 16 4 35 0 19 -4 35 -8 35 -4 0
-6 -16 -4 -35z"/>
<path d="M1038 2285 c2 -19 7 -35 11 -35 4 0 5 16 3 35 -2 19 -7 35 -11 35 -4
0 -5 -16 -3 -35z"/>
<path d="M1115 2310 c3 -5 8 -10 11 -10 2 0 4 5 4 10 0 6 -5 10 -11 10 -5 0
-7 -4 -4 -10z"/>
<path d="M1320 2286 c0 -20 5 -36 10 -36 6 0 10 13 10 29 0 17 -4 33 -10 36
-6 4 -10 -8 -10 -29z"/>
<path d="M1360 2285 c0 -19 3 -35 8 -35 4 0 7 16 7 35 0 19 -3 35 -7 35 -5 0
-8 -16 -8 -35z"/>
<path d="M1410 2285 c0 -19 5 -35 10 -35 6 0 10 16 10 35 0 19 -4 35 -10 35
-5 0 -10 -16 -10 -35z"/>
<path d="M1455 2285 c0 -19 3 -35 8 -35 4 0 7 16 7 35 0 19 -3 35 -7 35 -5 0
-8 -16 -8 -35z"/>
<path d="M1530 2310 c0 -5 5 -10 11 -10 5 0 7 5 4 10 -3 6 -8 10 -11 10 -2 0
-4 -4 -4 -10z"/>
<path d="M1565 2285 c0 -19 3 -35 6 -35 4 0 9 16 11 35 2 20 0 35 -7 35 -5 0
-10 -16 -10 -35z"/>
<path d="M1800 2285 c0 -19 4 -35 8 -35 4 0 6 16 4 35 -2 19 -6 35 -8 35 -2 0
-4 -16 -4 -35z"/>
<path d="M1883 2295 c7 -13 14 -20 15 -14 5 14 -6 39 -17 39 -5 0 -4 -11 2
-25z"/>
<path d="M2000 2310 c0 -5 5 -10 11 -10 5 0 7 5 4 10 -3 6 -8 10 -11 10 -2 0
-4 -4 -4 -10z"/>
<path d="M1493 2285 c2 -24 7 -30 27 -32 22 -2 22 -2 5 6 -11 4 -23 19 -27 32
-6 21 -7 21 -5 -6z"/>
<path d="M1963 2285 c2 -24 7 -30 27 -32 22 -2 22 -2 5 6 -11 4 -23 19 -27 32
-6 21 -7 21 -5 -6z"/>
<path d="M1070 2294 c0 -17 23 -44 38 -44 13 0 12 3 -6 16 -12 8 -20 20 -17
25 4 5 1 9 -4 9 -6 0 -11 -3 -11 -6z"/>
<path d="M1287 2277 c-3 -9 -2 -19 4 -23 15 -9 18 -2 9 20 -6 17 -7 18 -13 3z"/>
<path d="M1767 2283 c-13 -13 -7 -33 11 -33 13 0 14 2 3 9 -7 5 -10 14 -7 20
8 12 3 15 -7 4z"/>
<path d="M5320 2280 c0 -5 5 -10 11 -10 5 0 7 5 4 10 -3 6 -8 10 -11 10 -2 0
-4 -4 -4 -10z"/>
<path d="M4395 2105 c0 -30 5 -55 10 -55 6 0 9 23 7 55 -5 71 -17 71 -17 0z"/>
<path d="M4448 2105 c-2 -32 1 -55 7 -55 6 0 10 25 10 55 0 71 -12 71 -17 0z"/>
<path d="M4500 2145 c10 -11 10 -19 2 -27 -8 -8 -7 -16 1 -30 10 -15 9 -21 -3
-28 -8 -5 -10 -10 -4 -10 18 0 37 28 28 42 -5 7 -7 23 -6 34 2 13 -4 24 -14
28 -14 5 -15 4 -4 -9z"/>
<path d="M4577 2105 c17 -35 30 -50 34 -43 5 7 4 15 -1 18 -5 3 -16 22 -25 43
-8 20 -20 37 -25 37 -5 0 2 -25 17 -55z"/>
<path d="M4639 2139 c-8 -17 -8 -20 1 -14 9 6 11 -3 8 -34 -2 -24 1 -41 7 -41
6 0 10 24 10 55 0 59 -7 68 -26 34z"/>
<path d="M822 2093 l1 -58 6 45 6 45 13 -37 c14 -40 26 -48 36 -22 3 8 2 13
-3 10 -4 -3 -16 12 -26 34 -10 22 -22 40 -27 40 -4 0 -7 -26 -6 -57z"/>
<path d="M908 2138 c-7 -21 3 -98 13 -98 5 0 9 25 9 55 0 51 -12 73 -22 43z"/>
<path d="M1030 2095 c0 -30 5 -55 10 -55 6 0 10 25 10 55 0 30 -4 55 -10 55
-5 0 -10 -25 -10 -55z"/>
<path d="M1081 2098 c0 -32 2 -58 7 -58 4 0 6 19 4 43 -5 70 -10 76 -11 15z"/>
<path d="M1325 2095 c0 -30 5 -55 10 -55 6 0 10 25 10 55 0 30 -4 55 -10 55
-5 0 -10 -25 -10 -55z"/>
<path d="M1368 2143 c15 -6 16 -43 0 -43 -6 0 -3 -6 7 -14 17 -12 18 -16 5
-32 -13 -15 -13 -17 0 -12 10 3 16 19 17 44 1 40 -11 65 -31 63 -7 0 -6 -2 2
-6z"/>
<path d="M1582 2098 c-1 -32 2 -58 8 -58 5 0 7 7 4 15 -4 8 -2 15 4 15 5 0 12
-7 16 -15 3 -8 10 -15 16 -15 6 0 3 11 -7 24 -10 13 -21 22 -25 20 -4 -3 -9
13 -11 33 -3 29 -4 24 -5 -19z"/>
<path d="M4137 2124 c-15 -16 -7 -53 14 -59 30 -10 58 19 43 43 -12 18 -45 28
-57 16z"/>
<path d="M560 2106 c-27 -33 18 -72 48 -42 13 13 14 20 6 34 -15 23 -38 26
-54 8z"/>
<path d="M995 2100 c3 -5 8 -10 11 -10 2 0 4 5 4 10 0 6 -5 10 -11 10 -5 0 -7
-4 -4 -10z"/>
<path d="M1164 2075 c1 -18 4 -31 9 -28 10 6 9 51 -1 57 -5 3 -8 -10 -8 -29z"/>
<path d="M1200 2075 c0 -19 4 -35 8 -35 4 0 6 16 4 35 -2 19 -6 35 -8 35 -2 0
-4 -16 -4 -35z"/>
<path d="M1240 2078 c0 -21 5 -38 10 -38 13 0 13 40 0 60 -7 11 -10 5 -10 -22z"/>
<path d="M1460 2076 c0 -20 5 -36 10 -36 6 0 10 13 10 29 0 17 -4 33 -10 36
-6 4 -10 -8 -10 -29z"/>
<path d="M1500 2075 c0 -19 4 -35 8 -35 4 0 6 16 4 35 -2 19 -6 35 -8 35 -2 0
-4 -16 -4 -35z"/>
<path d="M1540 2078 c0 -21 5 -38 10 -38 13 0 13 40 0 60 -7 11 -10 5 -10 -22z"/>
<path d="M1115 2090 c-5 -8 10 -50 19 -50 1 0 1 14 -2 30 -5 32 -7 36 -17 20z"/>
<path d="M950 2084 c0 -17 23 -44 38 -44 13 0 12 3 -6 16 -12 8 -20 20 -17 25
4 5 1 9 -4 9 -6 0 -11 -3 -11 -6z"/>
<path d="M1427 2067 c-3 -9 -2 -19 4 -23 15 -9 18 -2 9 20 -6 17 -7 18 -13 3z"/>
<path d="M4400 1933 c5 -10 25 -36 45 -58 l35 -40 -2 60 c-1 57 -1 58 -7 17
l-6 -44 -30 41 c-30 40 -55 57 -35 24z"/>
<path d="M4552 1898 c-1 -32 2 -58 8 -58 5 0 7 7 4 15 -4 8 -2 15 4 15 5 0 12
-7 16 -15 3 -8 10 -15 16 -15 6 0 3 11 -7 24 -10 13 -21 22 -25 20 -4 -3 -9
13 -11 33 -3 29 -4 24 -5 -19z"/>
<path d="M822 1875 c1 -52 2 -54 5 -15 l4 44 34 -39 c19 -22 34 -35 34 -30 0
6 -17 30 -39 55 l-39 45 1 -60z"/>
<path d="M1170 1898 c11 -18 20 -43 20 -55 0 -13 5 -23 11 -23 6 0 8 7 5 16
-3 8 -1 24 4 34 8 16 7 18 -4 14 -10 -4 -17 3 -22 20 -3 14 -12 26 -20 26 -10
0 -9 -8 6 -32z"/>
<path d="M1226 1913 c-6 -14 -5 -15 5 -6 7 7 10 15 7 18 -3 3 -9 -2 -12 -12z"/>
<path d="M1392 1878 c-1 -32 2 -58 8 -58 5 0 7 7 4 15 -4 8 -2 15 4 15 5 0 12
-7 16 -15 3 -8 10 -15 16 -15 6 0 3 11 -7 24 -10 13 -21 22 -25 20 -4 -3 -9
13 -11 33 -3 29 -4 24 -5 -19z"/>
<path d="M1513 1913 c-4 -10 3 -24 20 -39 15 -13 27 -31 27 -41 1 -17 1 -17
12 1 9 16 6 23 -22 46 -19 16 -30 32 -26 38 4 7 5 12 1 12 -3 0 -8 -7 -12 -17z"/>
<path d="M1555 1920 c3 -5 8 -10 11 -10 2 0 4 5 4 10 0 6 -5 10 -11 10 -5 0
-7 -4 -4 -10z"/>
<path d="M1795 1875 c0 -30 3 -55 8 -55 4 0 7 8 7 18 1 16 1 16 14 0 7 -10 19
-18 27 -18 8 1 3 10 -13 25 -19 16 -28 34 -28 55 0 16 -3 30 -7 30 -5 0 -8
-25 -8 -55z"/>
<path d="M1920 1875 c0 -30 5 -55 10 -55 6 0 10 25 10 55 0 30 -4 55 -10 55
-5 0 -10 -25 -10 -55z"/>
<path d="M2165 1875 c0 -30 3 -55 8 -55 4 0 7 25 7 55 0 30 -3 55 -7 55 -5 0
-8 -25 -8 -55z"/>
<path d="M4137 1914 c-15 -16 -7 -53 14 -59 30 -10 58 19 43 43 -12 18 -45 28
-57 16z"/>
<path d="M4510 1875 c0 -19 4 -35 8 -35 4 0 6 16 4 35 -2 19 -6 35 -8 35 -2 0
-4 -16 -4 -35z"/>
<path d="M4670 1900 c0 -5 5 -10 11 -10 5 0 7 5 4 10 -3 6 -8 10 -11 10 -2 0
-4 -4 -4 -10z"/>
<path d="M560 1886 c-27 -33 18 -72 48 -42 13 13 14 20 6 34 -15 23 -38 26
-54 8z"/>
<path d="M1602 1863 c-2 -35 1 -43 16 -43 11 0 13 3 5 8 -6 4 -13 23 -16 42
-4 33 -4 33 -5 -7z"/>
<path d="M4633 1875 c2 -24 7 -30 27 -32 22 -2 22 -2 5 6 -11 4 -23 19 -27 32
-6 21 -7 21 -5 -6z"/>
<path d="M970 1880 c0 -5 5 -10 11 -10 5 0 7 5 4 10 -3 6 -8 10 -11 10 -2 0
-4 -4 -4 -10z"/>
<path d="M1012 1855 c6 -19 15 -32 19 -30 7 5 -17 65 -26 65 -2 0 2 -16 7 -35z"/>
<path d="M1051 1860 c6 -16 15 -30 19 -30 5 0 3 14 -3 30 -6 17 -15 30 -19 30
-4 0 -2 -13 3 -30z"/>
<path d="M1257 1883 c-10 -9 -9 -51 1 -57 5 -3 8 11 8 29 -1 19 -1 35 -2 35 0
0 -4 -3 -7 -7z"/>
<path d="M1295 1855 c0 -18 3 -31 8 -28 4 2 7 15 7 28 0 13 -3 26 -7 28 -5 3
-8 -10 -8 -28z"/>
<path d="M1330 1855 c0 -19 5 -35 10 -35 6 0 10 16 10 35 0 19 -4 35 -10 35
-5 0 -10 -16 -10 -35z"/>
<path d="M1647 1883 c-10 -9 -9 -51 1 -57 5 -3 8 11 8 29 -1 19 -1 35 -2 35 0
0 -4 -3 -7 -7z"/>
<path d="M1685 1855 c0 -18 3 -31 8 -28 4 2 7 15 7 28 0 13 -3 26 -7 28 -5 3
-8 -10 -8 -28z"/>
<path d="M1724 1876 c-10 -25 0 -51 21 -54 20 -4 20 -3 1 11 -13 9 -17 21 -13
36 6 24 -1 29 -9 7z"/>
<path d="M2037 1858 c10 -21 21 -38 26 -38 13 0 7 15 -18 45 l-25 30 17 -37z"/>
<path d="M2095 1879 c-4 -5 -4 -21 -1 -35 5 -17 13 -24 29 -23 16 1 17 3 5 6
-19 5 -33 37 -23 53 3 5 4 10 1 10 -3 0 -8 -5 -11 -11z"/>
<path d="M2208 1855 c2 -19 7 -35 11 -35 4 0 5 16 3 35 -2 19 -7 35 -11 35 -4
0 -5 -16 -3 -35z"/>
<path d="M2280 1855 c0 -19 4 -35 8 -35 4 0 6 16 4 35 -2 19 -6 35 -8 35 -2 0
-4 -16 -4 -35z"/>
<path d="M2320 1855 c0 -19 4 -35 8 -35 4 0 6 16 4 35 -2 19 -6 35 -8 35 -2 0
-4 -16 -4 -35z"/>
<path d="M2360 1858 c0 -21 5 -38 10 -38 13 0 13 40 0 60 -7 11 -10 5 -10 -22z"/>
<path d="M2400 1876 c0 -8 4 -17 9 -20 5 -4 7 3 4 14 -6 23 -13 26 -13 6z"/>
<path d="M2442 1870 c0 -14 2 -19 5 -12 2 6 2 18 0 25 -3 6 -5 1 -5 -13z"/>
<path d="M2515 1880 c3 -5 8 -10 11 -10 2 0 4 5 4 10 0 6 -5 10 -11 10 -5 0
-7 -4 -4 -10z"/>
<path d="M933 1855 c2 -24 7 -30 27 -32 22 -2 22 -2 5 6 -11 4 -23 19 -27 32
-6 21 -7 21 -5 -6z"/>
<path d="M2470 1864 c0 -17 23 -44 38 -44 13 0 12 3 -6 16 -12 8 -20 20 -17
25 4 5 1 9 -4 9 -6 0 -11 -3 -11 -6z"/>
<path d="M2247 1853 c-13 -13 -7 -33 11 -33 13 0 14 2 3 9 -7 5 -10 14 -7 20
8 12 3 15 -7 4z"/>
<path d="M1510 1830 c0 -5 5 -10 11 -10 5 0 7 5 4 10 -3 6 -8 10 -11 10 -2 0
-4 -4 -4 -10z"/>
<path d="M2400 1828 c0 -4 14 -8 30 -8 17 0 30 2 30 4 0 2 -13 6 -30 8 -16 3
-30 1 -30 -4z"/>
<path d="M2397 1799 c7 -7 15 -10 18 -7 3 3 -2 9 -12 12 -14 6 -15 5 -6 -5z"/>
<path d="M4417 1685 c17 -35 30 -50 34 -43 5 7 4 15 -1 18 -5 3 -16 22 -25 43
-8 20 -20 37 -25 37 -5 0 2 -25 17 -55z"/>
<path d="M4479 1719 c-8 -17 -8 -20 1 -14 9 6 11 -3 8 -34 -2 -24 1 -41 7 -41
6 0 10 24 10 55 0 59 -7 68 -26 34z"/>
<path d="M820 1665 c0 -30 5 -55 10 -55 6 0 10 25 10 55 0 30 -4 55 -10 55 -5
0 -10 -25 -10 -55z"/>
<path d="M4608 1714 c-12 -11 -9 -72 3 -79 14 -10 15 -6 9 43 -3 24 -8 40 -12
36z"/>
<path d="M4958 1714 c-12 -11 -9 -72 3 -79 14 -10 15 -6 9 43 -3 24 -8 40 -12
36z"/>
<path d="M4137 1704 c-15 -16 -7 -53 14 -59 30 -10 58 19 43 43 -12 18 -45 28
-57 16z"/>
<path d="M4570 1690 c0 -5 5 -10 11 -10 5 0 7 5 4 10 -3 6 -8 10 -11 10 -2 0
-4 -4 -4 -10z"/>
<path d="M4680 1666 c0 -20 5 -36 10 -36 6 0 10 13 10 29 0 17 -4 33 -10 36
-6 4 -10 -8 -10 -29z"/>
<path d="M4725 1683 c4 -10 10 -26 12 -35 3 -10 9 -16 13 -13 5 3 2 19 -7 35
-15 32 -30 42 -18 13z"/>
<path d="M4835 1683 c2 -10 4 -26 4 -35 1 -10 5 -18 9 -18 4 0 6 16 4 35 -2
19 -8 35 -12 35 -5 0 -7 -8 -5 -17z"/>
<path d="M4870 1665 c0 -19 5 -35 10 -35 6 0 10 16 10 35 0 19 -4 35 -10 35
-5 0 -10 -16 -10 -35z"/>
<path d="M4915 1665 c0 -19 3 -35 8 -35 4 0 7 16 7 35 0 19 -3 35 -7 35 -5 0
-8 -16 -8 -35z"/>
<path d="M5035 1690 c3 -5 8 -10 11 -10 2 0 4 5 4 10 0 6 -5 10 -11 10 -5 0
-7 -4 -4 -10z"/>
<path d="M560 1676 c-27 -33 18 -72 48 -42 13 13 14 20 6 34 -15 23 -38 26
-54 8z"/>
<path d="M4533 1665 c2 -24 7 -30 27 -32 22 -2 22 -2 5 6 -11 4 -23 19 -27 32
-6 21 -7 21 -5 -6z"/>
<path d="M940 1645 c0 -19 4 -35 8 -35 4 0 6 16 4 35 -2 19 -6 35 -8 35 -2 0
-4 -16 -4 -35z"/>
<path d="M975 1645 c0 -19 3 -35 6 -35 4 0 9 16 11 35 2 20 0 35 -7 35 -5 0
-10 -16 -10 -35z"/>
<path d="M1030 1645 c0 -19 4 -35 8 -35 4 0 6 16 4 35 -2 19 -6 35 -8 35 -2 0
-4 -16 -4 -35z"/>
<path d="M1074 1645 c1 -19 4 -35 9 -35 10 0 9 58 -1 64 -5 3 -8 -11 -8 -29z"/>
<path d="M1118 1645 c2 -19 6 -35 8 -35 2 0 4 16 4 35 0 19 -4 35 -8 35 -4 0
-6 -16 -4 -35z"/>
<path d="M1190 1670 c0 -5 5 -10 11 -10 5 0 7 5 4 10 -3 6 -8 10 -11 10 -2 0
-4 -4 -4 -10z"/>
<path d="M1225 1645 c0 -19 3 -35 6 -35 4 0 9 16 11 35 2 20 0 35 -7 35 -5 0
-10 -16 -10 -35z"/>
<path d="M1330 1667 c0 -7 9 -18 20 -25 12 -7 18 -18 14 -25 -5 -9 -4 -9 6 0
11 10 9 17 -13 37 -15 14 -27 20 -27 13z"/>
<path d="M1435 1645 c0 -19 3 -35 8 -35 4 0 7 16 7 35 0 19 -3 35 -7 35 -5 0
-8 -16 -8 -35z"/>
<path d="M1480 1645 c0 -19 4 -35 8 -35 4 0 6 16 4 35 -2 19 -6 35 -8 35 -2 0
-4 -16 -4 -35z"/>
<path d="M1520 1648 c0 -21 5 -38 10 -38 13 0 13 40 0 60 -7 11 -10 5 -10 -22z"/>
<path d="M1560 1665 c0 -7 6 -18 14 -22 7 -4 16 -15 19 -23 4 -12 6 -11 6 3 1
9 -8 26 -19 37 -15 15 -20 16 -20 5z"/>
<path d="M1622 1648 c3 -28 7 -33 31 -34 25 -1 27 2 26 35 -1 35 -2 35 -8 7
-9 -41 -31 -46 -31 -7 0 17 -5 31 -11 31 -6 0 -9 -14 -7 -32z"/>
<path d="M1700 1645 c0 -19 5 -35 10 -35 6 0 10 16 10 35 0 19 -4 35 -10 35
-5 0 -10 -16 -10 -35z"/>
<path d="M1790 1645 c0 -19 4 -35 8 -35 4 0 6 16 4 35 -2 19 -6 35 -8 35 -2 0
-4 -16 -4 -35z"/>
<path d="M1830 1645 c0 -19 4 -35 8 -35 4 0 6 16 4 35 -2 19 -6 35 -8 35 -2 0
-4 -16 -4 -35z"/>
<path d="M1870 1648 c0 -21 5 -38 10 -38 13 0 13 40 0 60 -7 11 -10 5 -10 -22z"/>
<path d="M1905 1660 c-11 -34 32 -68 50 -40 3 5 0 7 -9 4 -16 -6 -36 24 -29
44 3 6 2 12 0 12 -3 0 -9 -9 -12 -20z"/>
<path d="M1945 1670 c3 -5 8 -10 11 -10 2 0 4 5 4 10 0 6 -5 10 -11 10 -5 0
-7 -4 -4 -10z"/>
<path d="M2015 1670 c3 -5 8 -10 11 -10 2 0 4 5 4 10 0 6 -5 10 -11 10 -5 0
-7 -4 -4 -10z"/>
<path d="M4990 1674 c0 -17 23 -44 38 -44 13 0 12 3 -6 16 -12 8 -20 20 -17
25 4 5 1 9 -4 9 -6 0 -11 -3 -11 -6z"/>
<path d="M1151 1658 c-2 -30 11 -48 33 -47 20 0 20 1 1 8 -11 4 -23 19 -26 32
-4 14 -7 17 -8 7z"/>
<path d="M4647 1657 c-3 -9 -2 -19 4 -23 15 -9 18 -2 9 20 -6 17 -7 18 -13 3z"/>
<path d="M4807 1663 c-13 -13 -7 -33 11 -33 13 0 14 2 3 9 -7 5 -10 14 -7 20
8 12 3 15 -7 4z"/>
<path d="M1970 1654 c0 -17 23 -44 38 -44 13 0 12 3 -6 16 -12 8 -20 20 -17
25 4 5 1 9 -4 9 -6 0 -11 -3 -11 -6z"/>
<path d="M907 1643 c-13 -13 -7 -33 11 -33 13 0 14 2 3 9 -7 5 -10 14 -7 20 8
12 3 15 -7 4z"/>
<path d="M1757 1643 c-13 -13 -7 -33 11 -33 13 0 14 2 3 9 -7 5 -10 14 -7 20
8 12 3 15 -7 4z"/>
<path d="M4420 1465 c0 -30 3 -55 8 -55 4 0 7 25 7 55 0 30 -3 55 -7 55 -5 0
-8 -25 -8 -55z"/>
<path d="M820 1445 c0 -30 5 -55 10 -55 6 0 10 25 10 55 0 30 -4 55 -10 55 -5
0 -10 -25 -10 -55z"/>
<path d="M885 1445 c0 -30 5 -55 10 -55 6 0 10 25 10 55 0 30 -4 55 -10 55 -5
0 -10 -25 -10 -55z"/>
<path d="M1075 1445 c0 -30 3 -55 8 -55 4 0 7 25 7 55 0 30 -3 55 -7 55 -5 0
-8 -25 -8 -55z"/>
<path d="M1160 1445 c0 -30 5 -55 10 -55 6 0 10 25 10 55 0 30 -4 55 -10 55
-5 0 -10 -25 -10 -55z"/>
<path d="M1252 1445 c1 -52 2 -54 5 -15 l4 44 34 -39 c19 -22 34 -35 34 -30 0
6 -17 30 -39 55 l-39 45 1 -60z"/>
<path d="M4137 1484 c-15 -16 -7 -53 14 -59 30 -10 58 19 43 43 -12 18 -45 28
-57 16z"/>
<path d="M4752 1453 c-2 -35 1 -43 16 -43 11 0 13 3 5 8 -6 4 -13 23 -16 42
-4 33 -4 33 -5 -7z"/>
<path d="M1438 1474 c-12 -11 -9 -72 3 -79 14 -10 15 -6 9 43 -3 24 -8 40 -12
36z"/>
<path d="M4510 1445 c0 -19 4 -35 8 -35 4 0 6 16 4 35 -2 19 -6 35 -8 35 -2 0
-4 -16 -4 -35z"/>
<path d="M4550 1445 c0 -19 3 -35 8 -35 4 0 7 16 7 35 0 19 -3 35 -7 35 -5 0
-8 -16 -8 -35z"/>
<path d="M4600 1466 c0 -8 4 -17 9 -20 5 -4 7 3 4 14 -6 23 -13 26 -13 6z"/>
<path d="M4642 1460 c0 -14 2 -19 5 -12 2 6 2 18 0 25 -3 6 -5 1 -5 -13z"/>
<path d="M4715 1470 c3 -5 8 -10 11 -10 2 0 4 5 4 10 0 6 -5 10 -11 10 -5 0
-7 -4 -4 -10z"/>
<path d="M560 1456 c-27 -33 18 -72 48 -42 13 13 14 20 6 34 -15 23 -38 26
-54 8z"/>
<path d="M1122 1433 c-2 -35 1 -43 16 -43 11 0 13 3 5 8 -6 4 -13 23 -16 42
-4 33 -4 33 -5 -7z"/>
<path d="M970 1450 c0 -5 5 -10 11 -10 5 0 7 5 4 10 -3 6 -8 10 -11 10 -2 0
-4 -4 -4 -10z"/>
<path d="M1035 1443 c2 -10 4 -26 4 -35 1 -10 5 -18 9 -18 4 0 6 16 4 35 -2
19 -8 35 -12 35 -5 0 -7 -8 -5 -17z"/>
<path d="M1205 1425 c0 -19 3 -35 8 -35 4 0 7 16 7 35 0 19 -3 35 -7 35 -5 0
-8 -16 -8 -35z"/>
<path d="M1395 1450 c3 -5 8 -10 11 -10 2 0 4 5 4 10 0 6 -5 10 -11 10 -5 0
-7 -4 -4 -10z"/>
<path d="M4670 1454 c0 -17 23 -44 38 -44 13 0 12 3 -6 16 -12 8 -20 20 -17
25 4 5 1 9 -4 9 -6 0 -11 -3 -11 -6z"/>
<path d="M933 1425 c2 -24 7 -30 27 -32 22 -2 22 -2 5 6 -11 4 -23 19 -27 32
-6 21 -7 21 -5 -6z"/>
<path d="M4477 1443 c-13 -13 -7 -33 11 -33 13 0 14 2 3 9 -7 5 -10 14 -7 20
8 12 3 15 -7 4z"/>
<path d="M1350 1434 c0 -17 23 -44 38 -44 13 0 12 3 -6 16 -12 8 -20 20 -17
25 4 5 1 9 -4 9 -6 0 -11 -3 -11 -6z"/>
<path d="M1007 1423 c-13 -13 -7 -33 11 -33 13 0 14 2 3 9 -7 5 -10 14 -7 20
8 12 3 15 -7 4z"/>
<path d="M4600 1418 c0 -4 14 -8 30 -8 17 0 30 2 30 4 0 2 -13 6 -30 8 -16 3
-30 1 -30 -4z"/>
<path d="M4597 1389 c7 -7 15 -10 18 -7 3 3 -2 9 -12 12 -14 6 -15 5 -6 -5z"/>
<path d="M4393 1293 c-4 -10 3 -24 20 -39 15 -13 27 -31 27 -41 1 -17 1 -17
12 1 9 16 6 23 -22 46 -19 16 -30 32 -26 38 4 7 5 12 1 12 -3 0 -8 -7 -12 -17z"/>
<path d="M4435 1300 c3 -5 8 -10 11 -10 2 0 4 5 4 10 0 6 -5 10 -11 10 -5 0
-7 -4 -4 -10z"/>
<path d="M4707 1255 c17 -35 30 -50 34 -43 5 7 4 15 -1 18 -5 3 -16 22 -25 43
-8 20 -20 37 -25 37 -5 0 2 -25 17 -55z"/>
<path d="M4769 1289 c-8 -17 -8 -20 1 -14 9 6 11 -3 8 -34 -2 -24 1 -41 7 -41
6 0 10 24 10 55 0 59 -7 68 -26 34z"/>
<path d="M5115 1300 c3 -5 8 -10 11 -10 2 0 4 5 4 10 0 6 -5 10 -11 10 -5 0
-7 -4 -4 -10z"/>
<path d="M845 1235 c0 -30 3 -55 8 -55 4 0 7 25 7 55 0 30 -3 55 -7 55 -5 0
-8 -25 -8 -55z"/>
<path d="M936 1243 c34 -59 33 -58 39 -51 7 7 -45 98 -56 98 -6 0 2 -21 17
-47z"/>
<path d="M1008 1280 c-5 -17 3 -100 11 -100 3 0 6 25 6 55 0 50 -8 71 -17 45z"/>
<path d="M1138 1235 c2 -30 7 -55 10 -55 4 0 6 17 5 37 -1 21 -2 46 -2 56 -1
9 -4 17 -8 17 -5 0 -6 -25 -5 -55z"/>
<path d="M1265 1235 c0 -30 3 -55 8 -55 4 0 7 25 7 55 0 30 -3 55 -7 55 -5 0
-8 -25 -8 -55z"/>
<path d="M5070 1281 c0 -5 14 -19 31 -31 20 -15 28 -28 24 -39 -5 -12 -3 -13
6 -4 6 6 9 18 6 26 -7 18 -67 62 -67 48z"/>
<path d="M5309 1286 c-7 -7 2 -86 10 -86 4 0 5 17 3 38 -4 48 -6 54 -13 48z"/>
<path d="M4137 1274 c-15 -16 -7 -53 14 -59 30 -10 58 19 43 43 -12 18 -45 28
-57 16z"/>
<path d="M4484 1241 c0 -21 7 -36 16 -38 10 -3 11 -2 3 4 -6 4 -13 22 -16 38
-4 27 -5 27 -3 -4z"/>
<path d="M4520 1237 c0 -20 4 -37 10 -37 5 0 7 14 3 33 -8 45 -13 47 -13 4z"/>
<path d="M4560 1235 c0 -19 4 -35 8 -35 4 0 6 16 4 35 -2 19 -6 35 -8 35 -2 0
-4 -16 -4 -35z"/>
<path d="M4600 1238 c0 -21 5 -38 10 -38 13 0 13 40 0 60 -7 11 -10 5 -10 -22z"/>
<path d="M4825 1235 c0 -19 3 -35 8 -35 4 0 7 16 7 35 0 19 -3 35 -7 35 -5 0
-8 -16 -8 -35z"/>
<path d="M4865 1250 c-11 -34 32 -68 50 -40 3 5 0 7 -9 4 -16 -6 -36 24 -29
44 3 6 2 12 0 12 -3 0 -9 -9 -12 -20z"/>
<path d="M4905 1260 c3 -5 8 -10 11 -10 2 0 4 5 4 10 0 6 -5 10 -11 10 -5 0
-7 -4 -4 -10z"/>
<path d="M4940 1235 c0 -19 3 -35 8 -35 4 0 7 16 7 35 0 19 -3 35 -7 35 -5 0
-8 -16 -8 -35z"/>
<path d="M4997 1263 c-10 -9 -9 -51 1 -57 5 -3 8 11 8 29 -1 19 -1 35 -2 35 0
0 -4 -3 -7 -7z"/>
<path d="M5035 1235 c0 -18 3 -31 8 -28 4 2 7 15 7 28 0 13 -3 26 -7 28 -5 3
-8 -10 -8 -28z"/>
<path d="M5172 1243 c17 -40 24 -47 32 -28 3 9 2 13 -4 10 -5 -3 -12 6 -16 20
-3 14 -10 25 -15 25 -5 0 -3 -12 3 -27z"/>
<path d="M5390 1260 c0 -5 5 -10 11 -10 5 0 7 5 4 10 -3 6 -8 10 -11 10 -2 0
-4 -4 -4 -10z"/>
<path d="M5420 1235 c0 -19 5 -35 10 -35 6 0 10 16 10 35 0 19 -4 35 -10 35
-5 0 -10 -16 -10 -35z"/>
<path d="M5468 1235 c2 -19 6 -35 8 -35 2 0 4 16 4 35 0 19 -4 35 -8 35 -4 0
-6 -16 -4 -35z"/>
<path d="M5508 1235 c2 -19 7 -35 11 -35 4 0 5 16 3 35 -2 19 -7 35 -11 35 -4
0 -5 -16 -3 -35z"/>
<path d="M5550 1255 c0 -7 6 -18 14 -22 7 -4 16 -15 19 -23 4 -12 6 -11 6 3 1
9 -8 26 -19 37 -15 15 -20 16 -20 5z"/>
<path d="M560 1246 c-27 -33 18 -72 48 -42 13 13 14 20 6 34 -15 23 -38 26
-54 8z"/>
<path d="M5240 1257 c0 -2 11 -13 25 -25 14 -12 25 -18 25 -13 0 5 -11 16 -25
25 -14 9 -25 15 -25 13z"/>
<path d="M5353 1235 c2 -24 7 -30 27 -32 22 -2 22 -2 5 6 -11 4 -23 19 -27 32
-6 21 -7 21 -5 -6z"/>
<path d="M1055 1239 c-9 -14 3 -59 16 -59 6 0 6 7 -1 21 -7 11 -9 27 -6 35 6
16 0 19 -9 3z"/>
<path d="M1098 1233 c5 -10 7 -25 4 -33 -3 -11 -2 -12 8 -4 13 13 5 54 -11 54
-6 0 -6 -7 -1 -17z"/>
<path d="M1181 1232 c11 -17 10 -24 -2 -39 -13 -17 -13 -17 4 -4 20 16 19 52
-1 59 -11 3 -11 0 -1 -16z"/>
<path d="M1220 1215 c0 -19 5 -35 10 -35 6 0 10 16 10 35 0 19 -4 35 -10 35
-5 0 -10 -16 -10 -35z"/>
<path d="M1340 1240 c0 -5 5 -10 11 -10 5 0 7 5 4 10 -3 6 -8 10 -11 10 -2 0
-4 -4 -4 -10z"/>
<path d="M1301 1228 c-2 -30 11 -48 33 -47 20 0 20 1 1 8 -11 4 -23 19 -26 32
-4 14 -7 17 -8 7z"/>
<path d="M4390 1210 c0 -5 5 -10 11 -10 5 0 7 5 4 10 -3 6 -8 10 -11 10 -2 0
-4 -4 -4 -10z"/>
<path d="M5070 1210 c0 -5 5 -10 11 -10 5 0 7 5 4 10 -3 6 -8 10 -11 10 -2 0
-4 -4 -4 -10z"/>
<path d="M4400 1073 c5 -10 25 -36 45 -58 l35 -40 -2 60 c-1 57 -1 58 -7 17
l-6 -44 -30 41 c-30 40 -55 57 -35 24z"/>
<path d="M4900 1035 c0 -30 5 -55 10 -55 6 0 10 25 10 55 0 30 -4 55 -10 55
-5 0 -10 -25 -10 -55z"/>
<path d="M4997 1072 c-10 -10 -17 -28 -17 -40 0 -23 25 -52 43 -52 7 0 4 5 -5
11 -21 12 -24 69 -6 87 7 7 10 12 7 12 -3 0 -13 -8 -22 -18z"/>
<path d="M5055 1080 c3 -5 8 -10 11 -10 2 0 4 5 4 10 0 6 -5 10 -11 10 -5 0
-7 -4 -4 -10z"/>
<path d="M5228 1035 c2 -30 7 -55 10 -55 4 0 6 17 5 37 -1 21 -2 46 -2 56 -1
9 -4 17 -8 17 -5 0 -6 -25 -5 -55z"/>
<path d="M5462 1038 c-1 -32 2 -58 8 -58 5 0 7 7 4 15 -4 8 -2 15 4 15 5 0 12
-7 16 -15 3 -8 10 -15 16 -15 6 0 3 11 -7 24 -10 13 -21 22 -25 20 -4 -3 -9
13 -11 33 -3 29 -4 24 -5 -19z"/>
<path d="M821 1068 c0 -7 8 -33 18 -57 13 -33 19 -40 24 -27 4 10 1 24 -8 32
-8 9 -15 26 -15 40 0 13 -4 24 -10 24 -5 0 -10 -6 -9 -12z"/>
<path d="M873 1050 c0 -16 4 -27 8 -24 4 2 10 -10 14 -27 5 -21 10 -27 15 -19
4 7 1 24 -6 39 -8 14 -14 34 -14 44 0 9 -4 17 -8 17 -5 0 -9 -13 -9 -30z"/>
<path d="M1095 1025 c0 -30 3 -55 8 -55 4 0 7 25 7 55 0 30 -3 55 -7 55 -5 0
-8 -25 -8 -55z"/>
<path d="M1507 1073 c-15 -15 -5 -44 19 -55 17 -8 24 -18 21 -30 -3 -10 -1
-16 4 -12 18 11 9 45 -17 56 -17 8 -24 18 -21 30 5 19 4 22 -6 11z"/>
<path d="M1545 1070 c3 -5 8 -10 11 -10 2 0 4 5 4 10 0 6 -5 10 -11 10 -5 0
-7 -4 -4 -10z"/>
<path d="M4579 1066 c-7 -7 2 -86 10 -86 4 0 5 17 3 38 -4 48 -6 54 -13 48z"/>
<path d="M5139 1066 c-7 -7 2 -86 10 -86 4 0 5 17 3 38 -4 48 -6 54 -13 48z"/>
<path d="M1909 1056 c-7 -7 2 -86 10 -86 4 0 5 17 3 38 -4 48 -6 54 -13 48z"/>
<path d="M4137 1054 c-15 -16 -7 -53 14 -59 30 -10 58 19 43 43 -12 18 -45 28
-57 16z"/>
<path d="M560 1036 c-27 -33 18 -72 48 -42 13 13 14 20 6 34 -15 23 -38 26
-54 8z"/>
<path d="M4540 1015 c0 -19 4 -35 8 -35 4 0 6 16 4 35 -2 19 -6 35 -8 35 -2 0
-4 -16 -4 -35z"/>
<path d="M4625 1015 c0 -19 3 -35 8 -35 4 0 7 16 7 35 0 19 -3 35 -7 35 -5 0
-8 -16 -8 -35z"/>
<path d="M4665 1039 c-9 -14 3 -59 16 -59 6 0 6 7 -1 21 -7 11 -9 27 -6 35 6
16 0 19 -9 3z"/>
<path d="M4708 1033 c5 -10 7 -25 4 -33 -3 -11 -2 -12 8 -4 13 13 5 54 -11 54
-6 0 -6 -7 -1 -17z"/>
<path d="M4745 1015 c0 -19 3 -35 8 -35 4 0 7 16 7 35 0 19 -3 35 -7 35 -5 0
-8 -16 -8 -35z"/>
<path d="M4788 1015 c2 -19 7 -35 11 -35 4 0 5 16 3 35 -2 19 -7 35 -11 35 -4
0 -5 -16 -3 -35z"/>
<path d="M4860 1016 c0 -20 5 -36 10 -36 6 0 10 13 10 29 0 17 -4 33 -10 36
-6 4 -10 -8 -10 -29z"/>
<path d="M5095 1015 c0 -19 3 -35 8 -35 4 0 7 16 7 35 0 19 -3 35 -7 35 -5 0
-8 -16 -8 -35z"/>
<path d="M5185 1015 c0 -19 3 -35 8 -35 4 0 7 16 7 35 0 19 -3 35 -7 35 -5 0
-8 -16 -8 -35z"/>
<path d="M5271 1032 c11 -17 10 -24 -2 -39 -13 -17 -13 -17 4 -4 20 16 19 52
-1 59 -11 3 -11 0 -1 -16z"/>
<path d="M5340 1015 c0 -19 4 -35 8 -35 4 0 6 16 4 35 -2 19 -6 35 -8 35 -2 0
-4 -16 -4 -35z"/>
<path d="M5380 1015 c0 -19 4 -35 8 -35 4 0 6 16 4 35 -2 19 -6 35 -8 35 -2 0
-4 -16 -4 -35z"/>
<path d="M5420 1018 c0 -21 5 -38 10 -38 13 0 13 40 0 60 -7 11 -10 5 -10 -22z"/>
<path d="M985 1023 c2 -10 4 -26 4 -35 1 -10 5 -18 9 -18 4 0 6 16 4 35 -2 19
-8 35 -12 35 -5 0 -7 -8 -5 -17z"/>
<path d="M1025 1029 c-4 -5 -4 -21 -1 -35 5 -17 13 -24 29 -23 16 1 17 3 5 6
-19 5 -33 37 -23 53 3 5 4 10 1 10 -3 0 -8 -5 -11 -11z"/>
<path d="M1138 1005 c2 -19 7 -35 11 -35 4 0 5 16 3 35 -2 19 -7 35 -11 35 -4
0 -5 -16 -3 -35z"/>
<path d="M1224 1005 c1 -18 4 -31 9 -28 10 6 9 51 -1 57 -5 3 -8 -10 -8 -29z"/>
<path d="M1265 1023 c4 -10 10 -26 12 -35 3 -10 9 -16 13 -13 5 3 2 19 -7 35
-15 32 -30 42 -18 13z"/>
<path d="M1340 1005 c0 -19 5 -35 10 -35 6 0 10 16 10 35 0 19 -4 35 -10 35
-5 0 -10 -16 -10 -35z"/>
<path d="M1415 1023 c2 -10 4 -26 4 -35 1 -10 5 -18 9 -18 4 0 6 16 4 35 -2
19 -8 35 -12 35 -5 0 -7 -8 -5 -17z"/>
<path d="M1620 1030 c0 -5 5 -10 11 -10 5 0 7 5 4 10 -3 6 -8 10 -11 10 -2 0
-4 -4 -4 -10z"/>
<path d="M1655 1029 c-4 -5 -4 -21 -1 -35 5 -17 13 -24 29 -23 16 1 17 3 5 6
-19 5 -33 37 -23 53 3 5 4 10 1 10 -3 0 -8 -5 -11 -11z"/>
<path d="M1734 1011 c0 -21 7 -36 16 -38 10 -3 11 -2 3 4 -6 4 -13 22 -16 38
-4 27 -5 27 -3 -4z"/>
<path d="M1770 1007 c0 -20 4 -37 10 -37 5 0 7 14 3 33 -8 45 -13 47 -13 4z"/>
<path d="M1810 1005 c0 -19 3 -35 8 -35 4 0 7 16 7 35 0 19 -3 35 -7 35 -5 0
-8 -16 -8 -35z"/>
<path d="M1865 1005 c0 -19 3 -35 8 -35 4 0 7 16 7 35 0 19 -3 35 -7 35 -5 0
-8 -16 -8 -35z"/>
<path d="M1955 1005 c0 -19 3 -35 8 -35 4 0 7 16 7 35 0 19 -3 35 -7 35 -5 0
-8 -16 -8 -35z"/>
<path d="M2030 1030 c0 -5 5 -10 11 -10 5 0 7 5 4 10 -3 6 -8 10 -11 10 -2 0
-4 -4 -4 -10z"/>
<path d="M2070 1025 c0 -7 6 -18 14 -22 7 -4 16 -15 19 -23 4 -12 6 -11 6 3 1
9 -8 26 -19 37 -15 15 -20 16 -20 5z"/>
<path d="M1175 1020 c-5 -8 10 -50 19 -50 1 0 1 14 -2 30 -5 32 -7 36 -17 20z"/>
<path d="M1581 1018 c-2 -30 11 -48 33 -47 20 0 20 1 1 8 -11 4 -23 19 -26 32
-4 14 -7 17 -8 7z"/>
<path d="M1991 1018 c-2 -30 11 -48 33 -47 20 0 20 1 1 8 -11 4 -23 19 -26 32
-4 14 -7 17 -8 7z"/>
<path d="M4507 1013 c-13 -13 -7 -33 11 -33 13 0 14 2 3 9 -7 5 -10 14 -7 20
8 12 3 15 -7 4z"/>
<path d="M4827 1007 c-3 -9 -2 -19 4 -23 15 -9 18 -2 9 20 -6 17 -7 18 -13 3z"/>
<path d="M5307 1013 c-13 -13 -7 -33 11 -33 13 0 14 2 3 9 -7 5 -10 14 -7 20
8 12 3 15 -7 4z"/>
<path d="M957 1003 c-13 -13 -7 -33 11 -33 13 0 14 2 3 9 -7 5 -10 14 -7 20 8
12 3 15 -7 4z"/>
<path d="M1387 1003 c-13 -13 -7 -33 11 -33 13 0 14 2 3 9 -7 5 -10 14 -7 20
8 12 3 15 -7 4z"/>
<path d="M4459 863 c13 -25 14 -65 4 -79 -5 -5 0 -1 10 9 22 25 22 40 -4 68
-19 23 -20 23 -10 2z"/>
<path d="M4705 825 c0 -30 3 -55 8 -55 4 0 7 25 7 55 0 30 -3 55 -7 55 -5 0
-8 -25 -8 -55z"/>
<path d="M4390 850 c-13 -24 -6 -53 17 -72 15 -12 15 -11 4 11 -7 13 -10 36
-7 52 6 34 1 37 -14 9z"/>
<path d="M827 842 c-10 -10 -17 -28 -17 -40 0 -23 25 -52 43 -52 7 0 4 5 -5
11 -21 12 -24 69 -6 87 7 7 10 12 7 12 -3 0 -13 -8 -22 -18z"/>
<path d="M885 850 c3 -5 8 -10 11 -10 2 0 4 5 4 10 0 6 -5 10 -11 10 -5 0 -7
-4 -4 -10z"/>
<path d="M1421 848 c0 -7 8 -33 18 -57 13 -33 19 -40 24 -27 4 10 1 24 -8 32
-8 9 -15 26 -15 40 0 13 -4 24 -10 24 -5 0 -10 -6 -9 -12z"/>
<path d="M1473 830 c0 -16 4 -27 8 -24 4 2 10 -10 14 -27 5 -21 10 -27 15 -19
4 7 1 24 -6 39 -8 14 -14 34 -14 44 0 9 -4 17 -8 17 -5 0 -9 -13 -9 -30z"/>
<path d="M1701 808 c0 -32 2 -58 7 -58 4 0 6 19 4 43 -5 70 -10 76 -11 15z"/>
<path d="M1785 805 c0 -30 3 -55 8 -55 4 0 7 25 7 55 0 30 -3 55 -7 55 -5 0
-8 -25 -8 -55z"/>
<path d="M2106 813 c34 -59 33 -58 39 -51 7 7 -45 98 -56 98 -6 0 2 -21 17
-47z"/>
<path d="M2178 850 c-5 -17 3 -100 11 -100 3 0 6 25 6 55 0 50 -8 71 -17 45z"/>
<path d="M2565 805 c0 -30 3 -55 8 -55 4 0 7 25 7 55 0 30 -3 55 -7 55 -5 0
-8 -25 -8 -55z"/>
<path d="M1998 800 c-1 -28 0 -50 5 -50 4 0 7 23 7 50 0 65 -7 65 -12 0z"/>
<path d="M4137 844 c-15 -16 -7 -53 14 -59 30 -10 58 19 43 43 -12 18 -45 28
-57 16z"/>
<path d="M1748 834 c-12 -11 -9 -72 3 -79 14 -10 15 -6 9 43 -3 24 -8 40 -12
36z"/>
<path d="M2868 834 c-12 -11 -9 -72 3 -79 14 -10 15 -6 9 43 -3 24 -8 40 -12
36z"/>
<path d="M2909 836 c-7 -7 2 -86 10 -86 4 0 5 17 3 38 -4 48 -6 54 -13 48z"/>
<path d="M4505 805 c0 -19 3 -35 6 -35 4 0 9 16 11 35 2 20 0 35 -7 35 -5 0
-10 -16 -10 -35z"/>
<path d="M4590 806 c0 -20 5 -36 10 -36 6 0 10 13 10 29 0 17 -4 33 -10 36 -6
4 -10 -8 -10 -29z"/>
<path d="M4625 820 c-11 -34 32 -68 50 -40 3 5 0 7 -9 4 -16 -6 -36 24 -29 44
3 6 2 12 0 12 -3 0 -9 -9 -12 -20z"/>
<path d="M4665 830 c3 -5 8 -10 11 -10 2 0 4 5 4 10 0 6 -5 10 -11 10 -5 0 -7
-4 -4 -10z"/>
<path d="M4780 830 c0 -5 5 -10 11 -10 5 0 7 5 4 10 -3 6 -8 10 -11 10 -2 0
-4 -4 -4 -10z"/>
<path d="M4855 820 c-11 -34 32 -68 50 -40 3 5 0 7 -9 4 -16 -6 -36 24 -29 44
3 6 2 12 0 12 -3 0 -9 -9 -12 -20z"/>
<path d="M4895 830 c3 -5 8 -10 11 -10 2 0 4 5 4 10 0 6 -5 10 -11 10 -5 0 -7
-4 -4 -10z"/>
<path d="M4974 805 c1 -18 4 -31 9 -28 10 6 9 51 -1 57 -5 3 -8 -10 -8 -29z"/>
<path d="M5010 805 c0 -19 5 -35 10 -35 6 0 10 16 10 35 0 19 -4 35 -10 35 -5
0 -10 -16 -10 -35z"/>
<path d="M5069 788 c2 -33 6 -46 10 -35 8 21 2 87 -8 87 -3 0 -4 -24 -2 -52z"/>
<path d="M5110 821 c9 -17 8 -26 -2 -39 -12 -15 -11 -16 5 -3 20 16 19 52 -1
59 -11 3 -12 0 -2 -17z"/>
<path d="M560 816 c-27 -33 18 -72 48 -42 13 13 14 20 6 34 -15 23 -38 26 -54
8z"/>
<path d="M4741 818 c-2 -30 11 -48 33 -47 20 0 20 1 1 8 -11 4 -23 19 -26 32
-4 14 -7 17 -8 7z"/>
<path d="M4925 820 c-5 -8 10 -50 19 -50 1 0 1 14 -2 30 -5 32 -7 36 -17 20z"/>
<path d="M927 813 c-10 -9 -9 -51 1 -57 5 -3 8 11 8 29 -1 19 -1 35 -2 35 0 0
-4 -3 -7 -7z"/>
<path d="M965 785 c0 -18 3 -31 8 -28 4 2 7 15 7 28 0 13 -3 26 -7 28 -5 3 -8
-10 -8 -28z"/>
<path d="M1000 785 c0 -19 5 -35 10 -35 6 0 10 16 10 35 0 19 -4 35 -10 35 -5
0 -10 -16 -10 -35z"/>
<path d="M1048 785 c2 -19 6 -35 8 -35 2 0 4 16 4 35 0 19 -4 35 -8 35 -4 0
-6 -16 -4 -35z"/>
<path d="M1088 785 c2 -19 7 -35 11 -35 4 0 5 16 3 35 -2 19 -7 35 -11 35 -4
0 -5 -16 -3 -35z"/>
<path d="M1130 785 c0 -19 4 -35 8 -35 4 0 6 16 4 35 -2 19 -6 35 -8 35 -2 0
-4 -16 -4 -35z"/>
<path d="M1174 785 c1 -19 4 -35 9 -35 10 0 9 58 -1 64 -5 3 -8 -11 -8 -29z"/>
<path d="M1218 785 c2 -19 6 -35 8 -35 2 0 4 16 4 35 0 19 -4 35 -8 35 -4 0
-6 -16 -4 -35z"/>
<path d="M1257 813 c-10 -9 -9 -51 1 -57 5 -3 8 11 8 29 -1 19 -1 35 -2 35 0
0 -4 -3 -7 -7z"/>
<path d="M1295 785 c0 -18 3 -31 8 -28 4 2 7 15 7 28 0 13 -3 26 -7 28 -5 3
-8 -10 -8 -28z"/>
<path d="M1330 785 c0 -19 5 -35 10 -35 6 0 10 16 10 35 0 19 -4 35 -10 35 -5
0 -10 -16 -10 -35z"/>
<path d="M1375 785 c0 -19 3 -35 8 -35 4 0 7 16 7 35 0 19 -3 35 -7 35 -5 0
-8 -16 -8 -35z"/>
<path d="M1590 810 c0 -5 5 -10 11 -10 5 0 7 5 4 10 -3 6 -8 10 -11 10 -2 0
-4 -4 -4 -10z"/>
<path d="M1660 785 c0 -19 4 -35 8 -35 4 0 6 16 4 35 -2 19 -6 35 -8 35 -2 0
-4 -16 -4 -35z"/>
<path d="M1828 785 c2 -19 7 -35 11 -35 4 0 5 16 3 35 -2 19 -7 35 -11 35 -4
0 -5 -16 -3 -35z"/>
<path d="M1905 809 c-9 -14 3 -59 16 -59 6 0 6 7 -1 21 -7 11 -9 27 -6 35 6
16 0 19 -9 3z"/>
<path d="M1948 803 c5 -10 7 -25 4 -33 -3 -11 -2 -12 8 -4 13 13 5 54 -11 54
-6 0 -6 -7 -1 -17z"/>
<path d="M2260 785 c0 -19 4 -35 8 -35 4 0 6 16 4 35 -2 19 -6 35 -8 35 -2 0
-4 -16 -4 -35z"/>
<path d="M2360 805 c0 -7 6 -18 14 -22 7 -4 16 -15 19 -23 4 -12 6 -11 6 3 1
9 -8 26 -19 37 -15 15 -20 16 -20 5z"/>
<path d="M2455 803 c2 -10 4 -26 4 -35 1 -10 5 -18 9 -18 4 0 6 16 4 35 -2 19
-8 35 -12 35 -5 0 -7 -8 -5 -17z"/>
<path d="M2494 806 c-10 -25 0 -51 21 -54 20 -4 20 -3 1 11 -13 9 -17 21 -13
36 6 24 -1 29 -9 7z"/>
<path d="M2608 785 c2 -19 7 -35 11 -35 4 0 5 16 3 35 -2 19 -7 35 -11 35 -4
0 -5 -16 -3 -35z"/>
<path d="M2651 788 c-1 -30 3 -38 17 -38 11 0 13 3 5 8 -6 4 -13 21 -16 37 -4
27 -4 27 -6 -7z"/>
<path d="M2690 785 c0 -19 4 -35 8 -35 4 0 6 16 4 35 -2 19 -6 35 -8 35 -2 0
-4 -16 -4 -35z"/>
<path d="M2825 810 c3 -5 8 -10 11 -10 2 0 4 5 4 10 0 6 -5 10 -11 10 -5 0 -7
-4 -4 -10z"/>
<path d="M2950 805 c0 -7 6 -18 14 -22 7 -4 16 -15 19 -23 4 -12 6 -11 6 3 1
9 -8 26 -19 37 -15 15 -20 16 -20 5z"/>
<path d="M1553 785 c2 -24 7 -30 27 -32 22 -2 22 -2 5 6 -11 4 -23 19 -27 32
-6 21 -7 21 -5 -6z"/>
<path d="M2290 807 c0 -2 11 -13 25 -25 14 -12 25 -18 25 -13 0 5 -11 16 -25
25 -14 9 -25 15 -25 13z"/>
<path d="M2720 807 c0 -2 11 -13 25 -25 14 -12 25 -18 25 -13 0 5 -11 16 -25
25 -14 9 -25 15 -25 13z"/>
<path d="M4557 797 c-3 -9 -2 -19 4 -23 15 -9 18 -2 9 20 -6 17 -7 18 -13 3z"/>
<path d="M2780 794 c0 -17 23 -44 38 -44 13 0 12 3 -6 16 -12 8 -20 20 -17 25
4 5 1 9 -4 9 -6 0 -11 -3 -11 -6z"/>
<path d="M1627 783 c-13 -13 -7 -33 11 -33 13 0 14 2 3 9 -7 5 -10 14 -7 20 8
12 3 15 -7 4z"/>
<path d="M2227 783 c-13 -13 -7 -33 11 -33 13 0 14 2 3 9 -7 5 -10 14 -7 20 8
12 3 15 -7 4z"/>
<path d="M2427 783 c-13 -13 -7 -33 11 -33 13 0 14 2 3 9 -7 5 -10 14 -7 20 8
12 3 15 -7 4z"/>
<path d="M4427 646 c-9 -23 -9 -28 2 -22 4 3 14 -13 21 -34 7 -22 17 -40 22
-40 11 0 11 1 -15 60 -18 40 -25 49 -30 36z"/>
<path d="M4671 608 c0 -32 2 -58 7 -58 4 0 6 19 4 43 -5 70 -10 76 -11 15z"/>
<path d="M5005 650 c3 -5 8 -10 11 -10 2 0 4 5 4 10 0 6 -5 10 -11 10 -5 0 -7
-4 -4 -10z"/>
<path d="M5648 605 c-2 -32 1 -55 7 -55 6 0 10 25 10 55 0 71 -12 71 -17 0z"/>
<path d="M5689 646 c6 -7 8 -22 4 -31 -4 -13 -3 -16 5 -11 18 11 15 43 -4 50
-14 5 -15 4 -5 -8z"/>
<path d="M5911 608 c0 -32 2 -58 7 -58 4 0 6 19 4 43 -5 70 -10 76 -11 15z"/>
<path d="M820 595 c0 -30 5 -55 10 -55 6 0 10 25 10 55 0 30 -4 55 -10 55 -5
0 -10 -25 -10 -55z"/>
<path d="M859 641 c8 -5 12 -18 8 -30 -6 -25 8 -29 17 -5 7 18 -10 44 -28 44
-6 0 -5 -4 3 -9z"/>
<path d="M958 643 c7 -3 16 -2 19 1 4 3 -2 6 -13 5 -11 0 -14 -3 -6 -6z"/>
<path d="M1245 595 c0 -71 12 -71 17 0 2 32 -1 55 -7 55 -5 0 -10 -25 -10 -55z"/>
<path d="M1285 620 c0 -32 12 -40 22 -14 3 8 -1 22 -8 29 -12 12 -14 10 -14
-15z"/>
<path d="M1331 598 c0 -32 2 -58 7 -58 4 0 6 19 4 43 -5 70 -10 76 -11 15z"/>
<path d="M2190 595 c0 -30 5 -55 10 -55 6 0 10 25 10 55 0 30 -4 55 -10 55 -5
0 -10 -25 -10 -55z"/>
<path d="M4939 624 c-7 -20 -6 -32 6 -50 8 -13 20 -24 26 -24 6 0 3 8 -6 17
-12 11 -15 26 -12 50 7 40 0 43 -14 7z"/>
<path d="M919 633 c-5 -40 -3 -93 3 -93 4 0 8 23 8 50 0 28 -2 50 -5 50 -3 0
-5 -3 -6 -7z"/>
<path d="M1959 626 c-7 -7 2 -86 10 -86 4 0 5 17 3 38 -4 48 -6 54 -13 48z"/>
<path d="M4137 624 c-15 -16 -7 -53 14 -59 30 -10 58 19 43 43 -12 18 -45 28
-57 16z"/>
<path d="M6102 593 c-2 -35 1 -43 16 -43 11 0 13 3 5 8 -6 4 -13 23 -16 42 -4
33 -4 33 -5 -7z"/>
<path d="M560 606 c-27 -33 18 -72 48 -42 13 13 14 20 6 34 -15 23 -38 26 -54
8z"/>
<path d="M4509 568 c2 -33 6 -46 10 -35 8 21 2 87 -8 87 -3 0 -4 -24 -2 -52z"/>
<path d="M4550 601 c9 -17 8 -26 -2 -39 -12 -15 -11 -16 5 -3 20 16 19 52 -1
59 -11 3 -12 0 -2 -17z"/>
<path d="M4589 568 c2 -33 6 -46 10 -35 8 21 2 87 -8 87 -3 0 -4 -24 -2 -52z"/>
<path d="M4630 601 c9 -17 8 -26 -2 -39 -12 -15 -11 -16 5 -3 20 16 19 52 -1
59 -11 3 -12 0 -2 -17z"/>
<path d="M4715 585 c0 -19 3 -35 8 -35 4 0 7 16 7 35 0 19 -3 35 -7 35 -5 0
-8 -16 -8 -35z"/>
<path d="M4755 609 c-4 -5 -4 -21 -1 -35 5 -17 13 -24 29 -23 16 1 17 3 5 6
-19 5 -33 37 -23 53 3 5 4 10 1 10 -3 0 -8 -5 -11 -11z"/>
<path d="M4860 586 c0 -20 5 -36 10 -36 6 0 10 13 10 29 0 17 -4 33 -10 36 -6
4 -10 -8 -10 -29z"/>
<path d="M5045 609 c-9 -14 3 -59 16 -59 6 0 6 7 -1 21 -7 11 -9 27 -6 35 6
16 0 19 -9 3z"/>
<path d="M5088 603 c5 -10 7 -25 4 -33 -3 -11 -2 -12 8 -4 13 13 5 54 -11 54
-6 0 -6 -7 -1 -17z"/>
<path d="M5130 585 c0 -19 4 -35 8 -35 4 0 6 16 4 35 -2 19 -6 35 -8 35 -2 0
-4 -16 -4 -35z"/>
<path d="M5170 588 c0 -21 5 -38 10 -38 13 0 13 40 0 60 -7 11 -10 5 -10 -22z"/>
<path d="M5210 605 c0 -7 6 -18 14 -22 7 -4 16 -15 19 -23 4 -12 6 -11 6 3 1
9 -8 26 -19 37 -15 15 -20 16 -20 5z"/>
<path d="M5272 588 c3 -28 7 -33 31 -34 25 -1 27 2 26 35 -1 35 -2 35 -8 7 -9
-41 -31 -46 -31 -7 0 17 -5 31 -11 31 -6 0 -9 -14 -7 -32z"/>
<path d="M5350 585 c0 -19 5 -35 10 -35 6 0 10 16 10 35 0 19 -4 35 -10 35 -5
0 -10 -16 -10 -35z"/>
<path d="M5398 585 c2 -19 6 -35 8 -35 2 0 4 16 4 35 0 19 -4 35 -8 35 -4 0
-6 -16 -4 -35z"/>
<path d="M5438 585 c2 -19 7 -35 11 -35 4 0 5 16 3 35 -2 19 -7 35 -11 35 -4
0 -5 -16 -3 -35z"/>
<path d="M5510 610 c0 -5 5 -10 11 -10 5 0 7 5 4 10 -3 6 -8 10 -11 10 -2 0
-4 -4 -4 -10z"/>
<path d="M5550 585 c0 -19 3 -35 8 -35 4 0 7 16 7 35 0 19 -3 35 -7 35 -5 0
-8 -16 -8 -35z"/>
<path d="M5730 585 c0 -19 5 -35 10 -35 6 0 10 16 10 35 0 19 -4 35 -10 35 -5
0 -10 -16 -10 -35z"/>
<path d="M5785 609 c-9 -14 3 -59 16 -59 6 0 6 7 -1 21 -7 11 -9 27 -6 35 6
16 0 19 -9 3z"/>
<path d="M5828 603 c5 -10 7 -25 4 -33 -3 -11 -2 -12 8 -4 13 13 5 54 -11 54
-6 0 -6 -7 -1 -17z"/>
<path d="M5864 596 c-7 -29 1 -46 22 -46 13 0 13 2 -1 16 -9 9 -13 24 -10 35
4 10 4 19 1 19 -3 0 -8 -11 -12 -24z"/>
<path d="M5951 588 c-1 -30 3 -38 17 -38 11 0 13 3 5 8 -6 4 -13 21 -16 37 -4
27 -4 27 -6 -7z"/>
<path d="M5990 585 c0 -19 4 -35 8 -35 4 0 6 16 4 35 -2 19 -6 35 -8 35 -2 0
-4 -16 -4 -35z"/>
<path d="M6025 600 c-11 -34 32 -68 50 -40 3 5 0 7 -9 4 -16 -6 -36 24 -29 44
3 6 2 12 0 12 -3 0 -9 -9 -12 -20z"/>
<path d="M6065 610 c3 -5 8 -10 11 -10 2 0 4 5 4 10 0 6 -5 10 -11 10 -5 0 -7
-4 -4 -10z"/>
<path d="M6140 607 c0 -7 9 -18 20 -25 12 -7 18 -18 14 -25 -5 -9 -4 -9 6 0
11 10 9 17 -13 37 -15 14 -27 20 -27 13z"/>
<path d="M960 575 c0 -19 5 -35 10 -35 6 0 10 16 10 35 0 19 -4 35 -10 35 -5
0 -10 -16 -10 -35z"/>
<path d="M1022 580 c-23 -31 -27 -40 -14 -40 8 0 44 61 39 66 -2 2 -13 -10
-25 -26z"/>
<path d="M1110 600 c0 -5 5 -10 11 -10 5 0 7 5 4 10 -3 6 -8 10 -11 10 -2 0
-4 -4 -4 -10z"/>
<path d="M1145 575 c0 -19 3 -35 6 -35 4 0 9 16 11 35 2 20 0 35 -7 35 -5 0
-10 -16 -10 -35z"/>
<path d="M1370 578 c0 -21 5 -38 10 -38 13 0 13 40 0 60 -7 11 -10 5 -10 -22z"/>
<path d="M1440 576 c0 -20 5 -36 10 -36 6 0 10 13 10 29 0 17 -4 33 -10 36 -6
4 -10 -8 -10 -29z"/>
<path d="M1480 575 c0 -19 5 -35 10 -35 6 0 10 16 10 35 0 19 -4 35 -10 35 -5
0 -10 -16 -10 -35z"/>
<path d="M1535 575 c0 -19 3 -35 8 -35 4 0 7 16 7 35 0 19 -3 35 -7 35 -5 0
-8 -16 -8 -35z"/>
<path d="M1578 575 c2 -19 7 -35 11 -35 4 0 5 16 3 35 -2 19 -7 35 -11 35 -4
0 -5 -16 -3 -35z"/>
<path d="M1624 575 c1 -19 4 -35 9 -35 10 0 9 58 -1 64 -5 3 -8 -11 -8 -29z"/>
<path d="M1690 576 c0 -20 5 -36 10 -36 6 0 10 13 10 29 0 17 -4 33 -10 36 -6
4 -10 -8 -10 -29z"/>
<path d="M1734 596 c-10 -25 0 -51 21 -54 20 -4 20 -3 1 11 -13 9 -17 21 -13
36 6 24 -1 29 -9 7z"/>
<path d="M1840 600 c0 -5 5 -10 11 -10 5 0 7 5 4 10 -3 6 -8 10 -11 10 -2 0
-4 -4 -4 -10z"/>
<path d="M1881 578 c-1 -30 3 -38 17 -38 11 0 13 3 5 8 -6 4 -13 21 -16 37 -4
27 -4 27 -6 -7z"/>
<path d="M1920 575 c0 -19 4 -35 8 -35 4 0 6 16 4 35 -2 19 -6 35 -8 35 -2 0
-4 -16 -4 -35z"/>
<path d="M2000 575 c0 -19 5 -35 10 -35 6 0 10 16 10 35 0 19 -4 35 -10 35 -5
0 -10 -16 -10 -35z"/>
<path d="M2045 599 c-4 -5 -4 -21 -1 -35 5 -17 13 -24 29 -23 16 1 17 3 5 6
-19 5 -33 37 -23 53 3 5 4 10 1 10 -3 0 -8 -5 -11 -11z"/>
<path d="M2150 575 c0 -19 4 -35 8 -35 4 0 6 16 4 35 -2 19 -6 35 -8 35 -2 0
-4 -16 -4 -35z"/>
<path d="M2230 597 c0 -7 9 -18 20 -25 12 -7 18 -18 14 -25 -5 -9 -4 -9 6 0
11 10 9 17 -13 37 -15 14 -27 20 -27 13z"/>
<path d="M5471 598 c-2 -30 11 -48 33 -47 20 0 20 1 1 8 -11 4 -23 19 -26 32
-4 14 -7 17 -8 7z"/>
<path d="M1071 588 c-2 -30 11 -48 33 -47 20 0 20 1 1 8 -11 4 -23 19 -26 32
-4 14 -7 17 -8 7z"/>
<path d="M1803 575 c2 -24 7 -30 27 -32 22 -2 22 -2 5 6 -11 4 -23 19 -27 32
-6 21 -7 21 -5 -6z"/>
<path d="M4827 577 c-3 -9 -2 -19 4 -23 15 -9 18 -2 9 20 -6 17 -7 18 -13 3z"/>
<path d="M1407 567 c-3 -9 -2 -19 4 -23 15 -9 18 -2 9 20 -6 17 -7 18 -13 3z"/>
<path d="M1657 567 c-3 -9 -2 -19 4 -23 15 -9 18 -2 9 20 -6 17 -7 18 -13 3z"/>
<path d="M2117 573 c-13 -13 -7 -33 11 -33 13 0 14 2 3 9 -7 5 -10 14 -7 20 8
12 3 15 -7 4z"/>
<path d="M4395 395 c0 -30 5 -55 10 -55 6 0 10 25 10 55 0 30 -4 55 -10 55 -5
0 -10 -25 -10 -55z"/>
<path d="M4438 443 c15 -6 16 -43 0 -43 -6 0 -3 -6 7 -14 17 -12 18 -16 5 -32
-13 -15 -13 -17 0 -12 10 3 16 19 17 44 1 40 -11 65 -31 63 -7 0 -6 -2 2 -6z"/>
<path d="M4501 398 c0 -32 2 -58 7 -58 4 0 6 19 4 43 -5 70 -10 76 -11 15z"/>
<path d="M4746 434 c-30 -29 -15 -94 21 -94 8 0 6 7 -7 20 -24 24 -25 38 -4
68 18 26 12 29 -10 6z"/>
<path d="M4805 440 c3 -5 8 -10 11 -10 2 0 4 5 4 10 0 6 -5 10 -11 10 -5 0 -7
-4 -4 -10z"/>
<path d="M5148 395 c-2 -32 1 -55 7 -55 6 0 10 25 10 55 0 71 -12 71 -17 0z"/>
<path d="M5200 435 c10 -11 10 -19 2 -27 -8 -8 -7 -16 1 -30 10 -15 9 -21 -3
-28 -8 -5 -10 -10 -4 -10 18 0 37 28 28 42 -5 7 -7 23 -6 34 2 13 -4 24 -14
28 -14 5 -15 4 -4 -9z"/>
<path d="M5250 395 c0 -30 5 -55 10 -55 6 0 10 25 10 55 0 30 -4 55 -10 55 -5
0 -10 -25 -10 -55z"/>
<path d="M5497 443 c-15 -15 -5 -44 19 -55 17 -8 24 -18 21 -30 -3 -10 -1 -16
4 -12 18 11 9 45 -17 56 -17 8 -24 18 -21 30 5 19 4 22 -6 11z"/>
<path d="M5535 440 c3 -5 8 -10 11 -10 2 0 4 5 4 10 0 6 -5 10 -11 10 -5 0 -7
-4 -4 -10z"/>
<path d="M5575 395 c0 -30 3 -55 8 -55 4 0 7 25 7 55 0 30 -3 55 -7 55 -5 0
-8 -25 -8 -55z"/>
<path d="M5775 395 c0 -30 3 -55 8 -55 4 0 7 25 7 55 0 30 -3 55 -7 55 -5 0
-8 -25 -8 -55z"/>
<path d="M5861 398 c0 -32 2 -58 7 -58 4 0 6 19 4 43 -5 70 -10 76 -11 15z"/>
<path d="M822 373 l1 -58 6 45 6 45 13 -37 c14 -40 26 -48 36 -22 3 8 2 13 -3
10 -4 -3 -16 12 -26 34 -10 22 -22 40 -27 40 -4 0 -7 -26 -6 -57z"/>
<path d="M908 418 c-7 -21 3 -98 13 -98 5 0 9 25 9 55 0 51 -12 73 -22 43z"/>
<path d="M1070 380 c0 -38 -4 -50 -15 -50 -10 0 -15 10 -15 28 -1 24 -2 25
-11 9 -14 -24 5 -47 37 -47 22 0 24 4 24 55 0 30 -4 55 -10 55 -5 0 -10 -22
-10 -50z"/>
<path d="M1310 375 c0 -30 3 -55 8 -55 4 0 7 25 7 55 0 30 -3 55 -7 55 -5 0
-8 -25 -8 -55z"/>
<path d="M1370 375 c0 -30 5 -55 10 -55 6 0 10 25 10 55 0 30 -4 55 -10 55 -5
0 -10 -25 -10 -55z"/>
<path d="M1565 375 c0 -30 3 -55 8 -55 4 0 7 25 7 55 0 30 -3 55 -7 55 -5 0
-8 -25 -8 -55z"/>
<path d="M1650 375 c0 -30 5 -55 10 -55 6 0 10 25 10 55 0 30 -4 55 -10 55 -5
0 -10 -25 -10 -55z"/>
<path d="M4137 414 c-15 -16 -7 -53 14 -59 30 -10 58 19 43 43 -12 18 -45 28
-57 16z"/>
<path d="M1609 406 c-7 -7 2 -86 10 -86 4 0 5 17 3 38 -4 48 -6 54 -13 48z"/>
<path d="M4542 378 c3 -28 7 -33 31 -34 25 -1 27 2 26 35 -1 35 -2 35 -8 7 -9
-41 -31 -46 -31 -7 0 17 -5 31 -11 31 -6 0 -9 -14 -7 -32z"/>
<path d="M4660 400 c0 -5 5 -10 11 -10 5 0 7 5 4 10 -3 6 -8 10 -11 10 -2 0
-4 -4 -4 -10z"/>
<path d="M4840 375 c0 -19 5 -35 10 -35 6 0 10 16 10 35 0 19 -4 35 -10 35 -5
0 -10 -16 -10 -35z"/>
<path d="M4895 399 c-9 -14 3 -59 16 -59 6 0 6 7 -1 21 -7 11 -9 27 -6 35 6
16 0 19 -9 3z"/>
<path d="M4938 393 c5 -10 7 -25 4 -33 -3 -11 -2 -12 8 -4 13 13 5 54 -11 54
-6 0 -6 -7 -1 -17z"/>
<path d="M5040 395 c0 -7 6 -18 14 -22 7 -4 16 -15 19 -23 4 -12 6 -11 6 3 1
9 -8 26 -19 37 -15 15 -20 16 -20 5z"/>
<path d="M5292 378 c3 -28 7 -33 31 -34 25 -1 27 2 26 35 -1 35 -2 35 -8 7 -9
-41 -31 -46 -31 -7 0 17 -5 31 -11 31 -6 0 -9 -14 -7 -32z"/>
<path d="M5410 400 c0 -5 5 -10 11 -10 5 0 7 5 4 10 -3 6 -8 10 -11 10 -2 0
-4 -4 -4 -10z"/>
<path d="M5618 375 c2 -19 7 -35 11 -35 4 0 5 16 3 35 -2 19 -7 35 -11 35 -4
0 -5 -16 -3 -35z"/>
<path d="M5660 375 c0 -19 4 -35 8 -35 4 0 6 16 4 35 -2 19 -6 35 -8 35 -2 0
-4 -16 -4 -35z"/>
<path d="M5740 400 c0 -5 5 -10 11 -10 5 0 7 5 4 10 -3 6 -8 10 -11 10 -2 0
-4 -4 -4 -10z"/>
<path d="M5814 386 c-7 -29 1 -46 22 -46 13 0 13 2 -1 16 -9 9 -13 24 -10 35
4 10 4 19 1 19 -3 0 -8 -11 -12 -24z"/>
<path d="M560 386 c-27 -33 18 -72 48 -42 13 13 14 20 6 34 -15 23 -38 26 -54
8z"/>
<path d="M4623 375 c2 -24 7 -30 27 -32 22 -2 22 -2 5 6 -11 4 -23 19 -27 32
-6 21 -7 21 -5 -6z"/>
<path d="M4970 397 c0 -2 11 -13 25 -25 14 -12 25 -18 25 -13 0 5 -11 16 -25
25 -14 9 -25 15 -25 13z"/>
<path d="M5371 388 c-2 -30 11 -48 33 -47 20 0 20 1 1 8 -11 4 -23 19 -26 32
-4 14 -7 17 -8 7z"/>
<path d="M5703 375 c2 -24 7 -30 27 -32 22 -2 22 -2 5 6 -11 4 -23 19 -27 32
-6 21 -7 21 -5 -6z"/>
<path d="M995 380 c3 -5 8 -10 11 -10 2 0 4 5 4 10 0 6 -5 10 -11 10 -5 0 -7
-4 -4 -10z"/>
<path d="M1105 370 c-11 -34 32 -68 50 -40 3 5 0 7 -9 4 -16 -6 -36 24 -29 44
3 6 2 12 0 12 -3 0 -9 -9 -12 -20z"/>
<path d="M1145 380 c3 -5 8 -10 11 -10 2 0 4 5 4 10 0 6 -5 10 -11 10 -5 0 -7
-4 -4 -10z"/>
<path d="M1187 383 c-10 -9 -9 -51 1 -57 5 -3 8 11 8 29 -1 19 -1 35 -2 35 0
0 -4 -3 -7 -7z"/>
<path d="M1225 355 c0 -18 3 -31 8 -28 4 2 7 15 7 28 0 13 -3 26 -7 28 -5 3
-8 -10 -8 -28z"/>
<path d="M1455 380 c3 -5 8 -10 11 -10 2 0 4 5 4 10 0 6 -5 10 -11 10 -5 0 -7
-4 -4 -10z"/>
<path d="M1520 356 c0 -20 5 -36 10 -36 6 0 10 13 10 29 0 17 -4 33 -10 36 -6
4 -10 -8 -10 -29z"/>
<path d="M1695 355 c0 -19 3 -35 8 -35 4 0 7 16 7 35 0 19 -3 35 -7 35 -5 0
-8 -16 -8 -35z"/>
<path d="M950 364 c0 -17 23 -44 38 -44 13 0 12 3 -6 16 -12 8 -20 20 -17 25
4 5 1 9 -4 9 -6 0 -11 -3 -11 -6z"/>
<path d="M1410 364 c0 -17 23 -44 38 -44 13 0 12 3 -6 16 -12 8 -20 20 -17 25
4 5 1 9 -4 9 -6 0 -11 -3 -11 -6z"/>
<path d="M1487 347 c-3 -9 -2 -19 4 -23 15 -9 18 -2 9 20 -6 17 -7 18 -13 3z"/>
</g>
</svg>
