<?xml version="1.0" standalone="no"?>
<!DOCTYPE svg PUBLIC "-//W3C//DTD SVG 20010904//EN"
 "http://www.w3.org/TR/2001/REC-SVG-20010904/DTD/svg10.dtd">
<svg version="1.0" xmlns="http://www.w3.org/2000/svg"
 width="838.000000pt" height="604.000000pt" viewBox="0 0 838.000000 604.000000"
 preserveAspectRatio="xMidYMid meet">

<g transform="translate(0.000000,604.000000) scale(0.100000,-0.100000)"
fill="#000000" stroke="none">
<path d="M1406 5104 c-22 -21 -20 -77 2 -97 30 -28 92 -19 92 12 -1 14 -2 14
-11 -1 -5 -10 -21 -18 -35 -18 -31 0 -49 40 -36 79 7 20 15 26 40 26 16 0 28
3 25 7 -8 14 -61 8 -77 -8z"/>
<path d="M1525 5055 c0 -51 3 -65 15 -65 11 0 15 11 13 42 -1 24 -2 53 -2 66
-1 12 -7 22 -13 22 -9 0 -13 -20 -13 -65z"/>
<path d="M1885 5055 c0 -51 3 -65 15 -65 12 0 14 12 12 65 -5 89 -27 89 -27 0z"/>
<path d="M4956 5102 c6 -4 21 -33 34 -64 13 -32 26 -58 29 -58 3 0 18 29 32
65 21 51 24 65 12 65 -8 0 -12 -4 -9 -9 3 -5 -1 -26 -10 -47 l-16 -38 -15 34
c-9 19 -16 41 -16 48 0 6 -12 12 -26 12 -14 0 -21 -4 -15 -8z"/>
<path d="M5256 5101 c-4 -5 -2 -12 3 -15 5 -4 12 -2 15 3 4 5 2 12 -3 15 -5 4
-12 2 -15 -3z"/>
<path d="M1143 5073 c-18 -7 -16 -48 2 -63 17 -14 51 -5 59 16 14 35 -23 63
-61 47z"/>
<path d="M1574 5064 c3 -9 6 -29 6 -45 0 -19 5 -29 15 -29 10 0 15 10 15 29 0
40 -9 61 -27 61 -10 0 -13 -6 -9 -16z"/>
<path d="M1630 5035 c0 -36 3 -45 18 -45 13 0 17 8 17 33 0 24 4 32 18 31 9
-1 17 4 17 12 0 17 -12 18 -28 2 -9 -9 -12 -9 -12 0 0 7 -7 12 -15 12 -11 0
-15 -12 -15 -45z"/>
<path d="M1710 5075 c0 -4 7 -20 16 -36 17 -34 15 -75 -4 -71 -6 1 -12 -3 -12
-9 0 -26 27 1 52 51 31 62 33 70 16 70 -6 0 -8 -3 -5 -6 3 -4 1 -16 -5 -27 -9
-18 -11 -19 -20 -4 -5 10 -6 22 -3 27 3 6 -3 10 -14 10 -12 0 -21 -2 -21 -5z"/>
<path d="M1811 5066 c-9 -11 -8 -18 4 -30 9 -9 21 -16 26 -16 5 0 9 -5 9 -11
0 -7 -10 -9 -25 -7 -13 3 -22 1 -19 -3 8 -14 40 -11 53 5 9 11 8 18 -4 30 -9
9 -21 16 -26 16 -5 0 -9 5 -9 11 0 6 9 9 20 6 11 -3 20 -1 20 4 0 14 -36 11
-49 -5z"/>
<path d="M1940 5059 c-18 -33 2 -69 37 -68 27 0 27 1 6 9 -29 12 -30 30 -2 30
15 0 20 5 17 23 -4 31 -43 35 -58 6z m40 -4 c0 -8 -4 -15 -10 -15 -5 0 -10 7
-10 15 0 8 5 15 10 15 6 0 10 -7 10 -15z"/>
<path d="M2025 5035 c0 -33 4 -45 15 -45 10 0 15 10 15 33 0 24 4 32 18 31 9
-1 17 4 17 12 0 17 -12 18 -28 2 -9 -9 -12 -9 -12 0 0 7 -6 12 -12 12 -9 0
-13 -16 -13 -45z"/>
<path d="M4710 5051 c-13 -25 -4 -48 21 -56 38 -12 65 35 37 63 -18 18 -46 14
-58 -7z"/>
<path d="M5093 5063 c-16 -6 -17 -55 -1 -71 7 -7 21 -12 33 -11 19 0 19 1 -2
9 -31 12 -29 30 2 30 27 0 33 18 13 38 -13 13 -24 14 -45 5z m26 -32 c-15 -5
-22 6 -14 19 6 9 10 9 16 -1 5 -8 4 -15 -2 -18z"/>
<path d="M5165 5025 c0 -39 3 -45 20 -45 18 0 20 5 17 35 -3 27 -1 35 12 35
30 0 16 15 -17 17 -32 3 -32 2 -32 -42z"/>
<path d="M5250 5025 c0 -33 4 -45 15 -45 11 0 15 12 15 45 0 33 -4 45 -15 45
-11 0 -15 -12 -15 -45z"/>
<path d="M5300 5060 c0 -5 7 -7 15 -4 19 8 19 -4 0 -36 -21 -36 -19 -40 20
-40 19 0 35 4 35 9 0 5 -9 7 -21 4 l-21 -6 21 42 21 41 -35 0 c-19 0 -35 -4
-35 -10z"/>
<path d="M5389 5049 c-8 -16 -8 -28 0 -45 18 -41 71 -25 71 21 0 44 -50 61
-71 24z m46 -24 c0 -16 -6 -30 -12 -32 -9 -3 -13 7 -13 32 0 25 4 35 13 33 6
-3 12 -17 12 -33z"/>
<path d="M5480 5025 c0 -36 3 -45 18 -45 14 0 17 7 14 45 -3 30 -9 45 -18 45
-10 0 -14 -13 -14 -45z"/>
<path d="M5529 5056 c7 -9 11 -29 9 -46 -4 -23 -1 -30 12 -30 26 0 12 83 -15
89 -17 3 -18 1 -6 -13z"/>
<path d="M1388 4863 c7 -3 12 -25 12 -58 0 -33 -5 -55 -12 -58 -7 -3 8 -6 34
-6 29 -1 52 5 62 14 15 16 12 45 -5 45 -6 0 -5 9 1 21 17 32 -4 49 -59 48 -25
0 -40 -3 -33 -6z m67 -28 c0 -11 -8 -21 -17 -23 -14 -3 -18 3 -18 23 0 20 4
26 18 23 9 -2 17 -12 17 -23z m10 -60 c0 -13 -8 -21 -22 -23 -19 -3 -23 1 -23
23 0 22 4 26 23 23 14 -2 22 -10 22 -23z"/>
<path d="M1515 4805 c0 -37 4 -65 10 -65 6 0 9 23 8 52 l-3 53 21 -47 c12 -27
25 -48 28 -48 4 0 17 21 29 48 l21 47 -2 -53 c-2 -46 0 -52 18 -52 18 0 20 7
20 65 0 59 -2 65 -21 65 -15 0 -26 -12 -38 -42 l-18 -43 -18 43 c-12 27 -26
42 -37 42 -15 0 -18 -9 -18 -65z"/>
<path d="M1713 4805 c12 -36 24 -65 27 -65 3 0 12 17 21 38 l16 37 17 -39 c10
-21 19 -36 22 -33 3 3 14 32 24 66 15 52 16 61 3 61 -8 0 -12 -4 -8 -10 7 -12
-5 -60 -15 -60 -4 0 -13 15 -20 33 l-12 32 -18 -39 -18 -40 -15 35 c-10 24
-11 36 -3 41 6 4 -1 8 -16 8 l-26 0 21 -65z"/>
<path d="M4965 4785 l0 -66 44 3 c53 4 78 31 48 53 -12 8 -14 15 -8 20 16 10
13 42 -5 49 -9 3 -30 6 -47 6 l-32 0 0 -65z m65 30 c0 -16 -6 -25 -15 -25 -9
0 -15 9 -15 25 0 16 6 25 15 25 9 0 15 -9 15 -25z m5 -60 c0 -11 -8 -21 -17
-23 -14 -3 -18 3 -18 23 0 20 4 26 18 23 9 -2 17 -12 17 -23z"/>
<path d="M5558 4843 c7 -3 12 -25 12 -58 0 -33 -5 -55 -12 -58 -7 -3 8 -6 34
-6 29 -1 52 5 62 14 15 16 12 45 -5 45 -6 0 -5 9 1 21 17 32 -4 49 -59 48 -25
0 -40 -3 -33 -6z m67 -28 c0 -11 -8 -21 -17 -23 -14 -3 -18 3 -18 23 0 20 4
26 18 23 9 -2 17 -12 17 -23z m10 -60 c0 -13 -8 -21 -22 -23 -19 -3 -23 1 -23
23 0 22 4 26 23 23 14 -2 22 -10 22 -23z"/>
<path d="M5920 4785 c0 -55 3 -65 18 -65 15 0 17 8 14 65 -3 48 -7 65 -18 65
-11 0 -14 -16 -14 -65z"/>
<path d="M1143 4823 c-18 -7 -16 -48 2 -63 17 -14 51 -5 59 16 14 35 -23 63
-61 47z"/>
<path d="M5865 4817 c-5 -7 -8 -30 -5 -52 4 -34 9 -40 30 -42 14 -1 19 0 13 3
-16 7 -17 74 -2 74 6 0 4 7 -5 15 -17 18 -18 18 -31 2z"/>
<path d="M4710 4791 c-13 -25 -4 -48 21 -56 38 -12 65 35 37 63 -18 18 -46 14
-58 -7z"/>
<path d="M5085 4765 c0 -39 3 -45 20 -45 18 0 20 5 17 35 -3 27 -1 35 12 35
30 0 16 15 -17 17 -32 3 -32 2 -32 -42z"/>
<path d="M5183 4804 c-16 -7 -17 -70 -2 -79 5 -4 21 -4 35 -1 22 6 25 11 22
44 -3 37 -22 49 -55 36z m35 -45 c-1 -13 -7 -23 -13 -22 -13 3 -18 30 -11 50
10 24 29 1 24 -28z"/>
<path d="M5266 4788 c3 -13 12 -34 19 -48 12 -22 14 -23 21 -7 3 10 2 23 -5
30 -6 6 -11 19 -11 29 0 10 -7 18 -16 18 -11 0 -14 -6 -8 -22z"/>
<path d="M5365 4800 c3 -5 1 -18 -4 -27 -10 -17 -11 -16 -17 5 -8 27 -20 28
-27 2 -3 -11 -1 -20 3 -20 5 0 12 -9 15 -21 8 -25 13 -21 36 31 16 34 16 40 3
40 -8 0 -12 -4 -9 -10z"/>
<path d="M5400 4765 c0 -36 3 -45 18 -45 14 0 17 7 14 45 -3 30 -9 45 -18 45
-10 0 -14 -13 -14 -45z"/>
<path d="M5449 4796 c7 -9 11 -29 9 -46 -4 -23 -1 -30 12 -30 26 0 12 83 -15
89 -17 3 -18 1 -6 -13z"/>
<path d="M5685 4765 c0 -33 4 -45 15 -45 10 0 15 10 15 33 0 24 4 32 18 31 9
-1 17 4 17 12 0 17 -12 18 -28 2 -9 -9 -12 -9 -12 0 0 7 -6 12 -12 12 -9 0
-13 -16 -13 -45z"/>
<path d="M5770 4796 c-28 -35 11 -93 48 -70 35 22 22 84 -18 84 -10 0 -23 -7
-30 -14z m40 -31 c0 -19 -4 -35 -10 -35 -5 0 -10 16 -10 35 0 19 5 35 10 35 6
0 10 -16 10 -35z"/>
<path d="M5969 4796 c7 -9 11 -29 9 -46 -4 -23 -1 -30 12 -30 26 0 12 83 -15
89 -17 3 -18 1 -6 -13z"/>
<path d="M6037 4803 c-4 -3 -7 -21 -7 -39 0 -32 14 -45 48 -43 12 0 10 3 -5 9
-31 12 -29 30 2 30 28 0 29 3 15 31 -10 19 -40 26 -53 12z m33 -18 c0 -8 -4
-15 -10 -15 -5 0 -10 7 -10 15 0 8 5 15 10 15 6 0 10 -7 10 -15z"/>
<path d="M6115 4765 c0 -42 2 -45 25 -44 14 0 19 3 13 6 -21 8 -16 54 7 60 11
3 20 9 20 15 0 5 -9 4 -20 -2 -14 -7 -20 -7 -20 0 0 5 -6 10 -12 10 -9 0 -13
-16 -13 -45z"/>
<path d="M6203 4803 c-21 -8 -15 -33 12 -45 28 -13 23 -32 -8 -24 -14 3 -17 2
-10 -5 17 -17 48 -6 51 18 2 14 -3 23 -17 28 -27 8 -27 29 -1 22 11 -3 20 -1
20 4 0 10 -26 11 -47 2z"/>
<path d="M1388 4613 c7 -3 12 -25 12 -58 0 -33 -5 -55 -12 -58 -7 -3 -4 -6 7
-6 18 -1 20 4 17 47 l-3 47 20 -23 c11 -13 29 -36 40 -50 l20 -27 1 62 c0 39
4 63 13 66 6 3 3 6 -8 6 -18 1 -21 -4 -17 -36 l3 -38 -31 38 c-20 23 -40 37
-53 36 -12 0 -16 -3 -9 -6z"/>
<path d="M1528 4613 c7 -3 12 -25 12 -58 0 -33 -5 -55 -12 -58 -7 -3 3 -5 22
-5 19 0 29 2 23 5 -8 3 -13 25 -13 58 0 33 5 55 13 58 6 3 -4 5 -23 5 -19 0
-29 -2 -22 -5z"/>
<path d="M1598 4613 c7 -3 12 -25 12 -58 0 -33 -5 -55 -12 -58 -7 -3 1 -6 17
-6 l30 -1 0 65 0 65 -30 -1 c-16 0 -24 -3 -17 -6z"/>
<path d="M1661 4603 c0 -11 3 -13 6 -5 2 6 13 12 24 12 16 0 19 -7 19 -54 0
-34 -5 -56 -12 -59 -7 -3 1 -6 17 -6 l30 -1 -3 61 c-4 59 -3 62 17 56 12 -3
21 -1 21 4 0 5 -27 9 -60 9 -51 0 -60 -3 -59 -17z"/>
<path d="M1841 4603 c0 -11 3 -13 6 -5 2 6 11 12 20 12 12 0 14 -12 11 -60
l-3 -60 30 1 c17 0 24 3 18 6 -8 3 -13 25 -13 59 0 47 3 54 19 54 11 0 22 -6
24 -12 3 -8 6 -6 6 5 1 14 -8 17 -59 17 -51 0 -60 -3 -59 -17z"/>
<path d="M2125 4555 c0 -51 3 -65 15 -65 11 0 15 11 13 42 -1 24 -2 53 -2 66
-1 12 -7 22 -13 22 -9 0 -13 -20 -13 -65z"/>
<path d="M2430 4555 c0 -55 3 -65 18 -65 15 0 17 8 14 65 -3 48 -7 65 -18 65
-11 0 -14 -16 -14 -65z"/>
<path d="M2680 4605 c0 -8 5 -15 10 -15 6 0 10 7 10 15 0 8 -4 15 -10 15 -5 0
-10 -7 -10 -15z"/>
<path d="M4965 4535 c0 -59 2 -65 21 -65 17 0 20 5 16 25 -2 14 0 25 6 25 5 0
17 -11 26 -25 9 -14 26 -25 37 -25 21 0 21 0 -2 19 -21 17 -22 22 -11 45 15
33 15 31 -4 50 -8 9 -32 16 -52 16 l-37 0 0 -65z m70 25 c0 -16 -6 -26 -17
-28 -14 -3 -18 3 -18 28 0 25 4 31 18 28 11 -2 17 -12 17 -28z"/>
<path d="M5185 4535 c0 -51 3 -65 15 -65 12 0 14 12 12 65 -5 89 -27 89 -27 0z"/>
<path d="M5240 4585 c0 -8 5 -15 10 -15 6 0 10 7 10 15 0 8 -4 15 -10 15 -5 0
-10 -7 -10 -15z"/>
<path d="M5605 4535 l0 -66 49 3 c33 2 51 8 54 18 4 12 2 13 -9 3 -7 -7 -23
-13 -36 -13 -18 0 -23 6 -23 26 0 21 4 25 20 21 12 -3 20 0 20 8 0 8 -8 11
-20 8 -16 -4 -20 0 -20 21 0 21 5 26 24 26 15 0 26 -7 29 -17 4 -14 5 -12 6 5
1 20 -4 22 -46 22 l-48 0 0 -65z"/>
<path d="M1143 4573 c-18 -7 -16 -48 2 -63 17 -14 51 -5 59 16 14 35 -23 63
-61 47z"/>
<path d="M1960 4559 c-18 -33 2 -69 37 -68 27 0 27 1 6 9 -29 12 -30 30 -2 30
15 0 20 5 17 23 -4 31 -43 35 -58 6z m40 -4 c0 -8 -4 -15 -10 -15 -5 0 -10 7
-10 15 0 8 5 15 10 15 6 0 10 -7 10 -15z"/>
<path d="M2052 4568 c-28 -28 -7 -79 33 -77 16 1 16 2 3 6 -20 5 -31 33 -22
57 7 18 30 22 37 6 3 -6 4 -5 3 2 -3 18 -38 22 -54 6z"/>
<path d="M2174 4564 c3 -9 6 -29 6 -45 0 -19 5 -29 15 -29 10 0 15 10 15 29 0
40 -9 61 -27 61 -10 0 -13 -6 -9 -16z"/>
<path d="M2230 4535 c0 -36 3 -45 18 -45 14 0 17 7 14 45 -3 30 -9 45 -18 45
-10 0 -14 -13 -14 -45z"/>
<path d="M2279 4566 c7 -9 11 -29 9 -46 -4 -23 -1 -30 12 -30 26 0 12 83 -15
89 -17 3 -18 1 -6 -13z"/>
<path d="M2339 4559 c-8 -16 -8 -28 0 -45 18 -41 71 -25 71 21 0 44 -50 61
-71 24z m46 -24 c0 -16 -6 -30 -12 -32 -9 -3 -13 7 -13 32 0 25 4 35 13 33 6
-3 12 -17 12 -33z"/>
<path d="M2489 4559 c-8 -16 -8 -28 0 -45 18 -41 71 -25 71 21 0 44 -50 61
-71 24z m46 -24 c0 -16 -6 -30 -12 -32 -9 -3 -13 7 -13 32 0 25 4 35 13 33 6
-3 12 -17 12 -33z"/>
<path d="M2593 4572 c-16 -10 -11 -114 5 -120 7 -2 24 -1 38 2 38 10 30 50
-11 55 -29 4 -30 4 -5 10 35 9 42 61 8 61 -13 0 -28 -4 -35 -8z m37 -22 c0
-11 -4 -20 -9 -20 -14 0 -23 18 -16 30 10 17 25 11 25 -10z m10 -75 c0 -16
-35 -21 -44 -6 -8 12 4 21 26 21 10 0 18 -7 18 -15z"/>
<path d="M2675 4535 c0 -33 4 -45 15 -45 12 0 14 10 12 45 -2 25 -9 45 -16 45
-6 0 -11 -18 -11 -45z"/>
<path d="M2737 4573 c-4 -3 -7 -21 -7 -39 0 -32 14 -45 48 -43 12 0 10 3 -5 9
-31 12 -29 30 2 30 28 0 29 3 15 31 -10 19 -40 26 -53 12z m33 -18 c0 -8 -4
-15 -10 -15 -5 0 -10 7 -10 15 0 8 5 15 10 15 6 0 10 -7 10 -15z"/>
<path d="M2813 4563 c-4 -11 1 -22 15 -31 28 -18 29 -36 2 -29 -11 3 -20 1
-20 -4 0 -5 11 -9 25 -9 35 0 44 28 17 51 -27 21 -27 26 -4 32 12 4 11 5 -6 6
-13 0 -25 -6 -29 -16z"/>
<path d="M5495 4567 c-5 -7 -8 -30 -5 -52 4 -34 9 -40 30 -42 14 -1 19 0 13 3
-16 7 -17 74 -2 74 6 0 4 7 -5 15 -17 18 -18 18 -31 2z"/>
<path d="M4710 4541 c-13 -25 -4 -48 21 -56 38 -12 65 35 37 63 -18 18 -46 14
-58 -7z"/>
<path d="M5107 4553 c-4 -3 -7 -21 -7 -39 0 -32 14 -45 48 -43 12 0 10 3 -5 9
-31 12 -29 30 2 30 28 0 29 3 15 31 -10 19 -40 26 -53 12z m33 -18 c0 -8 -4
-15 -10 -15 -5 0 -10 7 -10 15 0 8 5 15 10 15 6 0 10 -7 10 -15z"/>
<path d="M5235 4515 c0 -33 4 -45 15 -45 12 0 14 10 12 45 -2 25 -9 45 -16 45
-6 0 -11 -18 -11 -45z"/>
<path d="M5318 4550 c12 -5 22 -14 22 -19 0 -5 -10 -11 -22 -13 -15 -2 -24
-11 -26 -25 -3 -21 1 -23 35 -23 l39 0 -5 43 c-5 38 -9 42 -36 44 -27 2 -28 2
-7 -7z m20 -52 c-6 -18 -28 -21 -28 -4 0 9 7 16 16 16 9 0 14 -5 12 -12z"/>
<path d="M5385 4514 c0 -32 4 -44 15 -44 10 0 15 11 15 35 0 45 19 46 23 0 4
-46 32 -49 32 -2 0 45 -10 55 -50 55 -35 0 -35 0 -35 -44z"/>
<path d="M5728 4515 c3 -30 9 -45 18 -45 10 0 14 13 14 45 0 36 -3 45 -18 45
-14 0 -17 -7 -14 -45z"/>
<path d="M5779 4546 c7 -9 11 -29 9 -46 -4 -23 -1 -30 12 -30 26 0 12 83 -15
89 -17 3 -18 1 -6 -13z"/>
<path d="M5842 4548 c-28 -28 -7 -79 33 -77 16 1 17 2 3 6 -25 6 -22 33 3 33
15 0 20 5 17 23 -3 25 -36 35 -56 15z m38 -13 c0 -8 -4 -15 -10 -15 -5 0 -10
7 -10 15 0 8 5 15 10 15 6 0 10 -7 10 -15z"/>
<path d="M5920 4515 c0 -36 3 -45 18 -45 13 0 17 8 17 33 0 24 4 32 18 31 9
-1 17 4 17 12 0 17 -12 18 -28 2 -9 -9 -12 -9 -12 0 0 7 -7 12 -15 12 -11 0
-15 -12 -15 -45z"/>
<path d="M6014 4552 c-15 -10 -11 -115 4 -120 7 -2 24 -1 38 2 37 10 29 49
-11 57 -21 5 -24 7 -9 8 45 2 59 61 15 61 -14 0 -31 -4 -37 -8z m36 -22 c0
-11 -4 -20 -10 -20 -5 0 -10 9 -10 20 0 11 5 20 10 20 6 0 10 -9 10 -20z m15
-75 c0 -5 -10 -11 -22 -13 -16 -2 -23 2 -23 13 0 11 7 15 23 13 12 -2 22 -7
22 -13z"/>
<path d="M6112 4513 c11 -27 21 -49 22 -50 1 -2 12 20 23 47 12 28 18 50 13
50 -4 0 -11 -11 -14 -25 -7 -29 -26 -24 -26 6 0 12 -7 19 -19 19 -20 0 -19 -1
1 -47z"/>
<path d="M6090 4438 c0 -4 6 -8 14 -8 8 0 17 4 20 8 2 4 -4 8 -15 8 -10 0 -19
-4 -19 -8z"/>
<path d="M1388 4353 c7 -3 12 -25 12 -58 0 -33 -5 -55 -12 -58 -7 -3 1 -6 17
-6 l30 -1 0 65 0 65 -30 -1 c-16 0 -24 -3 -17 -6z"/>
<path d="M1580 4345 c-6 -8 -13 -37 -13 -65 -2 -44 0 -50 18 -50 18 0 20 6 18
60 -1 37 2 58 7 55 6 -4 10 -1 10 4 0 16 -26 13 -40 -4z"/>
<path d="M1730 4340 c-11 -20 3 -42 45 -66 11 -6 15 -15 11 -22 -11 -18 -43
-14 -56 6 -10 15 -10 15 -8 -3 2 -14 12 -21 31 -23 59 -7 76 48 23 77 -16 9
-29 21 -30 26 -2 15 36 18 45 3 7 -10 9 -9 9 5 0 25 -56 23 -70 -3z"/>
<path d="M4965 4285 l0 -65 30 1 c17 0 24 3 18 6 -7 2 -13 14 -13 25 0 15 5
19 20 15 16 -4 20 0 19 16 0 12 -3 16 -6 10 -10 -26 -33 -13 -33 17 0 25 4 30
24 30 13 0 27 -6 29 -12 3 -8 6 -6 6 5 1 14 -8 17 -46 17 l-48 0 0 -65z"/>
<path d="M5390 4335 c0 -8 5 -15 10 -15 6 0 10 7 10 15 0 8 -4 15 -10 15 -5 0
-10 -7 -10 -15z"/>
<path d="M5568 4343 c7 -3 12 -25 12 -58 0 -33 -5 -55 -12 -58 -7 -3 -4 -6 7
-6 18 -1 20 5 18 51 l-3 53 22 -54 22 -55 26 55 25 54 3 -44 c2 -28 -1 -47
-10 -52 -8 -6 0 -8 22 -8 19 0 29 3 23 6 -8 3 -13 25 -13 58 0 33 5 55 13 58
6 3 0 6 -14 6 -22 1 -30 -6 -44 -41 l-17 -43 -21 43 c-17 34 -26 42 -46 41
-15 0 -20 -3 -13 -6z"/>
<path d="M1143 4313 c-18 -7 -16 -48 2 -63 17 -14 51 -5 59 16 14 35 -23 63
-61 47z"/>
<path d="M1458 4275 c3 -30 9 -45 18 -45 10 0 14 13 14 45 0 36 -3 45 -18 45
-14 0 -17 -7 -14 -45z"/>
<path d="M1509 4306 c7 -9 11 -29 9 -46 -4 -23 -1 -30 12 -30 26 0 12 83 -15
89 -17 3 -18 1 -6 -13z"/>
<path d="M1643 4314 c-16 -7 -17 -70 -2 -79 5 -4 21 -4 35 -1 22 6 25 11 22
44 -3 37 -22 49 -55 36z m35 -45 c-1 -13 -7 -23 -13 -22 -13 3 -18 30 -11 50
10 24 29 1 24 -28z"/>
<path d="M1841 4280 c24 -48 24 -66 2 -80 -12 -8 -13 -10 -3 -7 15 3 27 24 55
91 9 21 11 36 5 36 -5 0 -10 -9 -10 -19 0 -30 -19 -35 -26 -6 -4 15 -13 25
-24 25 -17 0 -17 -2 1 -40z"/>
<path d="M1933 4313 c-21 -8 -15 -33 12 -45 28 -13 23 -32 -8 -24 -14 3 -17 2
-10 -5 17 -17 48 -6 51 18 2 14 -3 23 -17 28 -27 8 -27 29 -1 22 11 -3 20 -1
20 4 0 10 -26 11 -47 2z"/>
<path d="M4710 4291 c-13 -25 -4 -48 21 -56 38 -12 65 35 37 63 -18 18 -46 14
-58 -7z"/>
<path d="M5086 4302 c-3 -6 3 -8 14 -5 13 4 20 0 20 -10 0 -8 -12 -18 -26 -21
-40 -10 -27 -40 19 -44 l38 -3 -3 43 c-3 38 -6 43 -30 46 -14 2 -29 -1 -32 -6z
m34 -57 c0 -8 -4 -15 -10 -15 -5 0 -10 7 -10 15 0 8 5 15 10 15 6 0 10 -7 10
-15z"/>
<path d="M5170 4265 c0 -36 3 -45 18 -45 14 0 17 7 14 45 -3 30 -9 45 -18 45
-10 0 -14 -13 -14 -45z"/>
<path d="M5219 4296 c7 -9 11 -29 9 -46 -4 -23 -1 -30 12 -30 26 0 12 83 -15
89 -17 3 -18 1 -6 -13z"/>
<path d="M5278 4265 c3 -30 9 -45 18 -45 10 0 14 13 14 45 0 36 -3 45 -18 45
-14 0 -17 -7 -14 -45z"/>
<path d="M5329 4296 c7 -9 11 -29 9 -46 -4 -23 -1 -30 12 -30 26 0 12 83 -15
89 -17 3 -18 1 -6 -13z"/>
<path d="M5385 4265 c0 -33 4 -45 15 -45 12 0 14 10 12 45 -2 25 -9 45 -16 45
-6 0 -11 -18 -11 -45z"/>
<path d="M5440 4289 c-18 -33 2 -69 37 -68 27 0 27 1 6 9 -29 12 -30 30 -2 30
15 0 20 5 17 23 -4 31 -43 35 -58 6z m40 -4 c0 -8 -4 -15 -10 -15 -5 0 -10 7
-10 15 0 8 5 15 10 15 6 0 10 -7 10 -15z"/>
<path d="M5778 4300 c12 -5 22 -14 22 -19 0 -5 -10 -11 -22 -13 -15 -2 -24
-11 -26 -25 -3 -21 1 -23 35 -23 l39 0 -5 43 c-5 38 -9 42 -36 44 -27 2 -28 2
-7 -7z m20 -52 c-6 -18 -28 -21 -28 -4 0 9 7 16 16 16 9 0 14 -5 12 -12z"/>
<path d="M5852 4298 c-28 -28 -7 -79 33 -77 16 1 17 2 3 6 -25 6 -22 33 3 33
15 0 20 5 17 23 -3 25 -36 35 -56 15z m38 -13 c0 -8 -4 -15 -10 -15 -5 0 -10
7 -10 15 0 8 5 15 10 15 6 0 10 -7 10 -15z"/>
<path d="M1387 4098 c6 -7 18 -37 27 -65 10 -29 19 -53 22 -53 2 0 11 17 20
38 l16 37 18 -40 c12 -27 20 -35 23 -25 39 100 44 120 33 120 -6 0 -13 -12
-14 -26 -1 -14 -6 -33 -11 -41 -7 -13 -11 -8 -21 21 -6 20 -15 36 -19 36 -4 0
-13 -17 -21 -37 l-13 -38 -14 33 c-7 18 -11 37 -8 43 4 5 -6 9 -21 9 -20 0
-24 -3 -17 -12z"/>
<path d="M1575 4101 c-6 -11 9 -23 19 -14 9 9 7 23 -3 23 -6 0 -12 -4 -16 -9z"/>
<path d="M4981 4071 c-44 -44 -10 -115 52 -109 22 2 32 9 33 21 1 12 1 13 -3
2 -5 -18 -44 -20 -61 -3 -16 16 -16 70 0 86 15 15 54 16 61 2 3 -6 4 -5 3 2
-4 22 -63 21 -85 -1z"/>
<path d="M5106 4081 c-4 -5 -2 -12 3 -15 5 -4 12 -2 15 3 4 5 2 12 -3 15 -5 4
-12 2 -15 -3z"/>
<path d="M5498 4083 c7 -3 12 -25 12 -58 0 -33 -5 -55 -12 -58 -7 -3 1 -6 17
-6 l30 -1 0 65 0 65 -30 -1 c-16 0 -24 -3 -17 -6z"/>
<path d="M1143 4063 c-18 -7 -16 -48 2 -63 17 -14 51 -5 59 16 14 35 -23 63
-61 47z"/>
<path d="M1570 4025 c0 -36 3 -45 18 -45 14 0 17 7 14 45 -3 30 -9 45 -18 45
-10 0 -14 -13 -14 -45z"/>
<path d="M1625 4005 c0 -54 3 -65 17 -65 11 0 15 6 11 20 -4 15 0 20 15 20 27
0 44 24 40 57 -3 25 -7 28 -43 31 l-40 3 0 -66z m60 36 c7 -24 -4 -51 -21 -51
-9 0 -14 12 -14 35 0 38 24 50 35 16z"/>
<path d="M1735 4025 c0 -33 4 -45 15 -45 10 0 15 10 15 33 0 24 4 32 18 31 9
-1 17 4 17 12 0 17 -12 18 -28 2 -9 -9 -12 -9 -12 0 0 7 -6 12 -12 12 -9 0
-13 -16 -13 -45z"/>
<path d="M1820 4056 c-28 -35 11 -93 48 -70 35 22 22 84 -18 84 -10 0 -23 -7
-30 -14z m40 -31 c0 -19 -4 -35 -10 -35 -5 0 -10 16 -10 35 0 19 5 35 10 35 6
0 10 -16 10 -35z"/>
<path d="M4710 4031 c-13 -25 -4 -48 21 -56 38 -12 65 35 37 63 -18 18 -46 14
-58 -7z"/>
<path d="M5100 4005 c0 -33 4 -45 15 -45 11 0 15 12 15 45 0 33 -4 45 -15 45
-11 0 -15 -12 -15 -45z"/>
<path d="M5163 4042 c-16 -10 -11 -114 5 -120 7 -2 24 -1 38 2 38 10 30 50
-11 55 -29 4 -30 4 -5 10 35 9 42 61 8 61 -13 0 -28 -4 -35 -8z m37 -22 c0
-21 -15 -27 -25 -10 -7 12 2 30 16 30 5 0 9 -9 9 -20z m10 -75 c0 -16 -35 -21
-44 -6 -8 12 4 21 26 21 10 0 18 -7 18 -15z"/>
<path d="M5245 4005 c0 -33 4 -45 15 -45 11 0 15 11 15 37 0 20 6 38 13 40 8
3 12 -8 12 -36 0 -30 4 -41 16 -41 12 0 14 9 12 43 -3 41 -4 42 -43 45 l-40 3
0 -46z"/>
<path d="M5360 4042 c0 -5 7 -9 16 -8 26 2 28 -22 2 -26 -29 -4 -32 -41 -3
-46 15 -2 17 -1 6 6 -7 6 -10 15 -7 21 11 18 26 13 26 -9 0 -11 6 -20 13 -20
10 0 12 11 8 43 -5 37 -9 42 -33 45 -16 2 -28 -1 -28 -6z"/>
<path d="M5568 4005 c3 -30 9 -45 18 -45 10 0 14 13 14 45 0 36 -3 45 -18 45
-14 0 -17 -7 -14 -45z"/>
<path d="M5619 4036 c7 -9 11 -29 9 -46 -4 -23 -1 -30 12 -30 26 0 12 83 -15
89 -17 3 -18 1 -6 -13z"/>
<path d="M5683 4043 c-21 -8 -15 -33 12 -45 28 -13 23 -32 -8 -24 -14 3 -17 2
-10 -5 17 -17 48 -6 51 18 2 14 -3 23 -17 28 -27 8 -27 29 -1 22 11 -3 20 -1
20 4 0 10 -26 11 -47 2z"/>
<path d="M5749 4008 c4 -31 11 -44 24 -46 16 -3 17 -1 8 16 -6 12 -11 32 -11
46 0 15 -6 26 -13 26 -10 0 -12 -11 -8 -42z"/>
<path d="M5800 4005 c0 -36 3 -45 18 -45 14 0 17 7 14 45 -3 30 -9 45 -18 45
-10 0 -14 -13 -14 -45z"/>
<path d="M5855 4005 c0 -39 3 -45 20 -45 18 0 20 5 17 35 -3 27 -1 35 12 35
30 0 16 15 -17 17 -32 3 -32 2 -32 -42z"/>
<path d="M5950 4042 c0 -5 7 -9 16 -8 26 2 28 -22 2 -26 -29 -4 -32 -41 -3
-46 15 -2 17 -1 6 6 -7 6 -10 15 -7 21 11 18 26 13 26 -9 0 -11 6 -20 13 -20
10 0 12 11 8 43 -5 37 -9 42 -33 45 -16 2 -28 -1 -28 -6z"/>
<path d="M6035 4005 c0 -33 4 -45 15 -45 11 0 15 11 15 37 0 20 6 38 13 40 8
3 12 -8 12 -36 0 -30 4 -41 16 -41 12 0 14 9 12 43 -3 41 -4 42 -43 45 l-40 3
0 -46z"/>
<path d="M6152 4038 c-28 -28 -7 -79 33 -77 16 1 16 2 3 6 -20 5 -31 33 -22
57 7 18 30 22 37 6 3 -6 4 -5 3 2 -3 18 -38 22 -54 6z"/>
<path d="M6230 4029 c-18 -33 2 -69 37 -68 27 0 27 1 6 9 -29 12 -30 30 -2 30
15 0 20 5 17 23 -4 31 -43 35 -58 6z m40 -4 c0 -8 -4 -15 -10 -15 -5 0 -10 7
-10 15 0 8 5 15 10 15 6 0 10 -7 10 -15z"/>
<path d="M1381 3843 c0 -11 3 -13 6 -5 2 6 11 12 20 12 12 0 14 -12 11 -60
l-3 -60 30 1 c17 0 24 3 18 6 -8 3 -13 25 -13 59 0 47 3 54 19 54 11 0 22 -6
24 -12 3 -8 6 -6 6 5 1 14 -8 17 -59 17 -51 0 -60 -3 -59 -17z"/>
<path d="M1531 3841 c-44 -44 -10 -115 52 -109 22 2 32 9 33 21 1 12 1 13 -3
2 -5 -18 -44 -20 -61 -3 -7 7 -12 26 -12 43 0 17 5 36 12 43 15 15 54 16 61 2
3 -6 4 -5 3 2 -4 22 -63 21 -85 -1z"/>
<path d="M1662 3848 c-20 -20 -13 -38 23 -60 20 -11 34 -26 32 -32 -6 -19 -40
-19 -55 0 -13 18 -14 18 -10 -1 5 -29 63 -34 77 -6 15 27 5 47 -30 61 -16 7
-29 17 -29 22 0 15 30 21 45 8 12 -10 15 -9 15 4 0 19 -50 22 -68 4z"/>
<path d="M4968 3788 c4 -54 20 -78 51 -78 32 0 45 19 51 74 6 52 5 56 -14 55
-12 0 -15 -3 -8 -6 17 -7 16 -88 -3 -103 -30 -25 -47 -4 -43 55 3 50 1 55 -17
55 -18 0 -20 -6 -17 -52z"/>
<path d="M5210 3825 c0 -8 5 -15 10 -15 6 0 10 7 10 15 0 8 -4 15 -10 15 -5 0
-10 -7 -10 -15z"/>
<path d="M5457 3820 c4 -15 0 -20 -14 -20 -25 0 -43 -19 -43 -45 0 -30 19 -45
57 -45 l33 0 0 65 c0 57 -2 65 -19 65 -14 0 -18 -5 -14 -20z m3 -65 c0 -24 -5
-35 -15 -35 -10 0 -15 11 -15 35 0 24 5 35 15 35 10 0 15 -11 15 -35z"/>
<path d="M5558 3833 c7 -3 12 -25 12 -58 0 -33 -5 -55 -12 -58 -7 -3 1 -6 18
-6 28 -1 30 1 26 29 -4 27 -1 30 22 30 21 0 26 -5 26 -24 0 -13 -6 -27 -12
-29 -7 -3 1 -6 17 -6 l30 -1 0 65 0 65 -30 -1 c-16 0 -24 -3 -17 -6 6 -2 12
-16 12 -29 0 -19 -5 -24 -26 -24 -23 0 -26 3 -22 30 4 28 2 30 -26 29 -17 0
-25 -3 -18 -6z"/>
<path d="M5885 3775 c0 -51 3 -65 15 -65 12 0 14 12 12 65 -5 89 -27 89 -27 0z"/>
<path d="M6005 3775 c0 -51 3 -65 15 -65 11 0 15 11 13 42 -1 24 -2 53 -2 66
-1 12 -7 22 -13 22 -9 0 -13 -20 -13 -65z"/>
<path d="M1143 3813 c-18 -7 -16 -48 2 -63 17 -14 51 -5 59 16 14 35 -23 63
-61 47z"/>
<path d="M5265 3807 c-15 -18 -3 -91 15 -95 14 -2 17 27 11 101 -1 11 -15 8
-26 -6z"/>
<path d="M5945 3807 c-5 -7 -8 -30 -5 -52 4 -34 9 -40 30 -42 14 -1 19 0 13 3
-16 7 -17 74 -2 74 6 0 4 7 -5 15 -17 18 -18 18 -31 2z"/>
<path d="M4710 3781 c-13 -25 -4 -48 21 -56 38 -12 65 35 37 63 -18 18 -46 14
-58 -7z"/>
<path d="M5098 3755 c3 -30 9 -45 18 -45 10 0 14 13 14 45 0 36 -3 45 -18 45
-14 0 -17 -7 -14 -45z"/>
<path d="M5149 3786 c7 -9 11 -29 9 -46 -4 -23 -1 -30 12 -30 26 0 12 83 -15
89 -17 3 -18 1 -6 -13z"/>
<path d="M5205 3755 c0 -33 4 -45 15 -45 12 0 14 10 12 45 -2 25 -9 45 -16 45
-6 0 -11 -18 -11 -45z"/>
<path d="M5333 3793 c-16 -6 -17 -55 -1 -71 7 -7 21 -12 33 -11 19 0 19 1 -2
9 -31 12 -29 30 2 30 27 0 33 18 13 38 -13 13 -24 14 -45 5z m26 -32 c-15 -5
-22 6 -14 19 6 9 10 9 16 -1 5 -8 4 -15 -2 -18z"/>
<path d="M5710 3779 c-18 -33 2 -69 37 -68 27 0 27 1 6 9 -29 12 -30 30 -2 30
15 0 20 5 17 23 -4 31 -43 35 -58 6z m40 -4 c0 -8 -4 -15 -10 -15 -5 0 -10 7
-10 15 0 8 5 15 10 15 6 0 10 -7 10 -15z"/>
<path d="M5800 3792 c0 -5 7 -9 16 -8 26 2 28 -22 2 -26 -29 -4 -32 -41 -3
-46 15 -2 17 -1 6 6 -7 6 -10 15 -7 21 11 18 26 13 26 -9 0 -11 6 -20 13 -20
10 0 12 11 8 43 -5 37 -9 42 -33 45 -16 2 -28 -1 -28 -6z"/>
<path d="M6054 3784 c3 -9 6 -29 6 -45 0 -19 5 -29 15 -29 10 0 15 10 15 29 0
40 -9 61 -27 61 -10 0 -13 -6 -9 -16z"/>
<path d="M6123 3793 c-7 -2 -13 -20 -13 -38 0 -33 14 -46 48 -44 12 0 10 3 -5
9 -16 6 -23 18 -23 35 0 17 7 29 23 35 20 8 20 9 2 9 -11 -1 -26 -3 -32 -6z"/>
<path d="M6200 3791 c0 -5 9 -7 20 -4 14 4 20 0 20 -10 0 -9 -10 -17 -22 -19
-29 -4 -32 -41 -3 -47 16 -3 17 -1 7 11 -6 8 -9 18 -5 21 12 13 23 7 23 -13 0
-11 7 -20 15 -20 18 0 20 41 5 71 -11 19 -60 27 -60 10z"/>
<path d="M6290 3755 c0 -36 3 -45 18 -45 13 0 17 8 17 33 0 24 4 32 18 31 9
-1 17 4 17 12 0 17 -12 18 -28 2 -9 -9 -12 -9 -12 0 0 7 -7 12 -15 12 -11 0
-15 -12 -15 -45z"/>
<path d="M6383 3793 c-16 -6 -17 -55 -1 -71 7 -7 21 -12 33 -11 19 0 19 1 -2
9 -31 12 -29 30 2 30 27 0 33 18 13 38 -13 13 -24 14 -45 5z m26 -32 c-15 -5
-22 6 -14 19 6 9 10 9 16 -1 5 -8 4 -15 -2 -18z"/>
<path d="M1381 3593 c0 -11 3 -13 6 -5 2 6 11 12 20 12 12 0 14 -12 11 -60
l-3 -60 30 1 c17 0 24 3 18 6 -8 3 -13 25 -13 59 0 47 3 54 19 54 11 0 22 -6
24 -12 3 -8 6 -6 6 5 1 14 -8 17 -59 17 -51 0 -60 -3 -59 -17z"/>
<path d="M1516 3601 c-4 -5 -2 -12 3 -15 5 -4 12 -2 15 3 4 5 2 12 -3 15 -5 4
-12 2 -15 -3z"/>
<path d="M1807 3598 c6 -7 18 -37 27 -65 10 -29 19 -53 22 -53 2 0 11 17 20
38 l16 37 18 -40 c12 -27 20 -35 23 -25 39 100 44 120 33 120 -6 0 -13 -12
-14 -26 -1 -14 -6 -33 -11 -41 -7 -13 -11 -8 -21 21 -6 20 -15 36 -19 36 -4 0
-13 -17 -21 -37 l-13 -38 -14 33 c-7 18 -11 37 -8 43 4 5 -6 9 -21 9 -20 0
-24 -3 -17 -12z"/>
<path d="M2513 3595 c-33 -23 -32 -79 1 -100 33 -22 80 -16 84 10 2 18 2 18
-8 3 -25 -41 -73 -11 -68 43 4 41 30 59 59 41 18 -11 20 -11 17 0 -7 19 -60
21 -85 3z"/>
<path d="M2720 3550 c0 -66 10 -77 55 -66 47 12 42 86 -6 86 -12 0 -19 7 -19
20 0 11 -7 20 -15 20 -12 0 -15 -13 -15 -60z m55 -25 c0 -16 -6 -30 -12 -32
-9 -3 -13 7 -13 32 0 25 4 35 13 33 6 -3 12 -17 12 -33z"/>
<path d="M2825 3545 c0 -51 3 -65 15 -65 12 0 14 12 12 65 -5 89 -27 89 -27 0z"/>
<path d="M4965 3525 l0 -66 44 3 c53 4 78 31 48 53 -12 8 -14 15 -8 20 16 10
13 42 -5 49 -9 3 -30 6 -47 6 l-32 0 0 -65z m65 30 c0 -16 -6 -25 -15 -25 -9
0 -15 9 -15 25 0 16 6 25 15 25 9 0 15 -9 15 -25z m5 -60 c0 -11 -8 -21 -17
-23 -14 -3 -18 3 -18 23 0 20 4 26 18 23 9 -2 17 -12 17 -23z"/>
<path d="M5175 3581 c-6 -11 9 -23 19 -14 9 9 7 23 -3 23 -6 0 -12 -4 -16 -9z"/>
<path d="M5458 3525 c-3 -57 -1 -65 15 -65 14 0 17 10 17 65 0 49 -3 65 -14
65 -11 0 -15 -17 -18 -65z"/>
<path d="M5558 3583 c7 -3 12 -25 12 -58 0 -33 -5 -55 -12 -58 -7 -3 -4 -6 7
-6 18 -1 20 5 18 51 l-3 53 22 -54 22 -55 26 55 25 54 3 -44 c2 -28 -1 -47
-10 -52 -8 -6 0 -8 22 -8 19 0 29 3 23 6 -8 3 -13 25 -13 58 0 33 5 55 13 58
6 3 0 6 -14 6 -22 1 -30 -6 -44 -41 l-17 -43 -21 43 c-17 34 -26 42 -46 41
-15 0 -20 -3 -13 -6z"/>
<path d="M6130 3570 c-11 -20 3 -42 45 -66 11 -6 15 -15 11 -22 -11 -18 -43
-14 -56 6 -10 15 -10 15 -8 -3 2 -14 12 -21 31 -23 59 -7 76 48 23 77 -16 9
-29 21 -30 26 -2 15 36 18 45 3 7 -10 9 -9 9 5 0 25 -56 23 -70 -3z"/>
<path d="M6450 3575 c0 -8 5 -15 10 -15 6 0 10 7 10 15 0 8 -4 15 -10 15 -5 0
-10 -7 -10 -15z"/>
<path d="M6500 3528 c5 -59 7 -63 31 -66 32 -4 51 18 47 55 -2 22 -9 29 -30
31 -20 2 -28 9 -28 23 0 10 -6 19 -12 19 -10 0 -12 -16 -8 -62z m55 -7 c7 -24
-4 -51 -21 -51 -9 0 -14 12 -14 35 0 38 24 50 35 16z"/>
<path d="M6600 3530 c0 -66 10 -77 55 -66 47 12 42 86 -6 86 -12 0 -19 7 -19
20 0 11 -7 20 -15 20 -12 0 -15 -13 -15 -60z m55 -25 c0 -16 -6 -30 -12 -32
-9 -3 -13 7 -13 32 0 25 4 35 13 33 6 -3 12 -17 12 -33z"/>
<path d="M1143 3563 c-18 -7 -16 -48 2 -63 17 -14 51 -5 59 16 14 35 -23 63
-61 47z"/>
<path d="M1510 3525 c0 -33 4 -45 15 -45 11 0 15 12 15 45 0 33 -4 45 -15 45
-11 0 -15 -12 -15 -45z"/>
<path d="M1560 3525 c0 -36 3 -45 18 -45 14 0 17 7 14 45 -3 30 -9 45 -18 45
-10 0 -14 -13 -14 -45z"/>
<path d="M1610 3555 c7 -8 10 -28 8 -45 -3 -23 -1 -30 11 -30 12 0 16 10 16
37 0 39 -9 53 -34 53 -11 0 -11 -3 -1 -15z"/>
<path d="M1664 3554 c3 -9 6 -29 6 -45 0 -19 5 -29 15 -29 10 0 15 10 15 29 0
40 -9 61 -27 61 -10 0 -13 -6 -9 -16z"/>
<path d="M1733 3563 c-16 -6 -17 -55 -1 -71 7 -7 21 -12 33 -11 19 0 19 1 -2
9 -31 12 -29 30 2 30 27 0 33 18 13 38 -13 13 -24 14 -45 5z m26 -32 c-15 -5
-22 6 -14 19 6 9 10 9 16 -1 5 -8 4 -15 -2 -18z"/>
<path d="M1996 3562 c-3 -6 3 -8 14 -5 13 4 20 0 20 -10 0 -8 -12 -18 -26 -21
-40 -10 -27 -40 19 -44 l38 -3 -3 43 c-3 38 -6 43 -30 46 -14 2 -29 -1 -32 -6z
m34 -57 c0 -8 -4 -15 -10 -15 -5 0 -10 7 -10 15 0 8 5 15 10 15 6 0 10 -7 10
-15z"/>
<path d="M2085 3525 c0 -33 4 -45 15 -45 10 0 15 10 15 33 0 24 4 32 18 31 9
-1 17 4 17 12 0 17 -12 18 -28 2 -9 -9 -12 -9 -12 0 0 7 -6 12 -12 12 -9 0
-13 -16 -13 -45z"/>
<path d="M2165 3525 c0 -33 4 -45 15 -45 11 0 15 11 15 37 0 20 6 38 13 40 8
3 12 -8 12 -36 0 -30 4 -41 16 -41 12 0 14 9 12 43 -3 41 -4 42 -43 45 l-40 3
0 -46z"/>
<path d="M2283 3563 c-16 -6 -17 -55 -1 -71 7 -7 21 -12 33 -11 19 0 19 1 -2
9 -31 12 -29 30 2 30 27 0 33 18 13 38 -13 13 -24 14 -45 5z m26 -32 c-15 -5
-22 6 -14 19 6 9 10 9 16 -1 5 -8 4 -15 -2 -18z"/>
<path d="M2355 3525 c0 -39 3 -45 20 -45 18 0 20 5 17 35 -3 27 -1 35 12 35
30 0 16 15 -17 17 -32 3 -32 2 -32 -42z"/>
<path d="M2636 3562 c-3 -6 3 -8 14 -5 13 4 20 0 20 -10 0 -8 -12 -18 -26 -21
-40 -10 -27 -40 19 -44 l38 -3 -3 43 c-3 38 -6 43 -30 46 -14 2 -29 -1 -32 -6z
m34 -57 c0 -8 -4 -15 -10 -15 -5 0 -10 7 -10 15 0 8 5 15 10 15 6 0 10 -7 10
-15z"/>
<path d="M2893 3563 c-16 -6 -17 -55 -1 -71 7 -7 21 -12 33 -11 19 0 19 1 -2
9 -31 12 -29 30 2 30 27 0 33 18 13 38 -13 13 -24 14 -45 5z m26 -32 c-15 -5
-22 6 -14 19 6 9 10 9 16 -1 5 -8 4 -15 -2 -18z"/>
<path d="M5305 3557 c-5 -7 -8 -30 -5 -52 4 -34 9 -40 30 -42 14 -1 19 0 13 3
-16 7 -17 74 -2 74 6 0 4 7 -5 15 -17 18 -18 18 -31 2z"/>
<path d="M4710 3531 c-13 -25 -4 -48 21 -56 38 -12 65 35 37 63 -18 18 -46 14
-58 -7z"/>
<path d="M5085 3505 c0 -39 3 -45 20 -45 18 0 20 5 17 35 -3 27 -1 35 12 35
30 0 16 15 -17 17 -32 3 -32 2 -32 -42z"/>
<path d="M5170 3505 c0 -36 3 -45 18 -45 14 0 17 7 14 45 -3 30 -9 45 -18 45
-10 0 -14 -13 -14 -45z"/>
<path d="M5223 3533 c-4 -11 1 -22 15 -31 28 -18 29 -36 2 -29 -11 3 -20 1
-20 -4 0 -5 11 -9 25 -9 35 0 44 28 17 51 -27 21 -27 26 -4 32 12 4 11 5 -6 6
-13 0 -25 -6 -29 -16z"/>
<path d="M5370 3536 c-28 -35 11 -93 48 -70 35 22 22 84 -18 84 -10 0 -23 -7
-30 -14z m40 -31 c0 -19 -4 -35 -10 -35 -5 0 -10 16 -10 35 0 19 5 35 10 35 6
0 10 -16 10 -35z"/>
<path d="M5752 3503 c11 -27 21 -49 22 -50 1 -2 12 20 23 47 12 28 18 50 13
50 -4 0 -11 -11 -14 -25 -7 -29 -26 -24 -26 6 0 12 -7 19 -19 19 -20 0 -19 -1
1 -47z"/>
<path d="M5842 3538 c-28 -28 -7 -79 33 -77 16 1 17 2 3 6 -25 6 -22 33 3 33
15 0 20 5 17 23 -3 25 -36 35 -56 15z m38 -13 c0 -8 -4 -15 -10 -15 -5 0 -10
7 -10 15 0 8 5 15 10 15 6 0 10 -7 10 -15z"/>
<path d="M5920 3505 c0 -36 3 -45 18 -45 13 0 17 8 17 33 0 24 4 32 18 31 9
-1 17 4 17 12 0 17 -12 18 -28 2 -9 -9 -12 -9 -12 0 0 7 -7 12 -15 12 -11 0
-15 -12 -15 -45z"/>
<path d="M6003 3533 c-4 -11 1 -22 15 -31 28 -18 29 -36 2 -29 -11 3 -20 1
-20 -4 0 -5 11 -9 25 -9 35 0 44 28 17 51 -27 21 -27 26 -4 32 12 4 11 5 -6 6
-13 0 -25 -6 -29 -16z"/>
<path d="M6242 3538 c-25 -25 -8 -78 26 -78 10 0 10 3 -2 16 -9 8 -16 19 -16
24 0 20 13 40 27 40 12 0 14 -12 11 -60 -2 -48 0 -60 12 -60 12 0 14 12 12 65
-4 63 -4 65 -31 65 -15 0 -32 -5 -39 -12z"/>
<path d="M6339 3508 c5 -32 11 -44 26 -46 16 -3 18 -1 8 9 -7 7 -13 28 -13 46
0 21 -5 33 -13 33 -10 0 -12 -11 -8 -42z"/>
<path d="M6390 3505 c0 -33 4 -45 15 -45 11 0 15 12 15 45 0 33 -4 45 -15 45
-11 0 -15 -12 -15 -45z"/>
<path d="M6445 3505 c0 -33 4 -45 15 -45 12 0 14 10 12 45 -2 25 -9 45 -16 45
-6 0 -11 -18 -11 -45z"/>
<path d="M5730 3428 c0 -4 6 -8 14 -8 8 0 17 4 20 8 2 4 -4 8 -15 8 -10 0 -19
-4 -19 -8z"/>
<path d="M1388 3341 c8 -4 26 -34 41 -66 l27 -57 24 53 24 54 4 -44 c2 -29 -1
-47 -10 -52 -8 -6 0 -8 22 -8 19 0 29 3 23 6 -8 3 -13 25 -13 58 0 33 5 55 13
58 6 3 0 6 -15 6 -23 1 -31 -6 -47 -41 l-19 -43 -18 43 c-14 34 -22 42 -43 42
-18 0 -22 -3 -13 -9z"/>
<path d="M1648 3285 c-3 -57 -1 -65 15 -65 14 0 17 10 17 65 0 49 -3 65 -14
65 -11 0 -15 -17 -18 -65z"/>
<path d="M1705 3285 c0 -51 3 -65 15 -65 12 0 14 12 12 65 -5 89 -27 89 -27 0z"/>
<path d="M2005 3285 l0 -65 37 0 c20 0 43 3 52 6 18 7 22 39 6 49 -6 3 -7 18
-4 32 8 31 -7 43 -56 43 l-35 0 0 -65z m68 43 c6 -19 -3 -38 -19 -38 -8 0 -14
10 -14 25 0 26 25 35 33 13z m7 -73 c0 -18 -5 -25 -20 -25 -15 0 -20 7 -20 25
0 18 5 25 20 25 15 0 20 -7 20 -25z"/>
<path d="M2335 3285 c0 -55 3 -65 17 -65 11 0 15 5 12 14 -3 8 -1 17 5 20 5 4
12 -3 16 -14 3 -11 13 -20 21 -20 18 0 18 5 -3 37 -16 24 -16 26 2 39 11 8 14
14 6 14 -7 0 -21 -10 -32 -22 l-18 -23 -1 43 c0 27 -5 42 -12 42 -9 0 -13 -20
-13 -65z"/>
<path d="M4965 3275 c0 -58 2 -65 20 -65 18 0 20 7 20 65 0 58 -2 65 -20 65
-18 0 -20 -7 -20 -65z"/>
<path d="M5035 3275 l0 -65 37 0 c20 0 43 3 52 6 18 7 22 39 6 49 -6 3 -7 18
-4 32 8 31 -7 43 -56 43 l-35 0 0 -65z m68 43 c6 -19 -3 -38 -19 -38 -8 0 -14
10 -14 25 0 26 25 35 33 13z m7 -73 c0 -18 -5 -25 -20 -25 -15 0 -20 7 -20 25
0 18 5 25 20 25 15 0 20 -7 20 -25z"/>
<path d="M5165 3275 c0 -37 4 -65 10 -65 6 0 9 23 8 52 l-3 53 21 -47 c12 -27
25 -48 28 -48 4 0 17 21 29 48 l21 47 -2 -53 c-2 -46 0 -52 18 -52 18 0 20 7
20 65 0 59 -2 65 -21 65 -15 0 -26 -12 -38 -42 l-18 -43 -18 43 c-12 27 -26
42 -37 42 -15 0 -18 -9 -18 -65z"/>
<path d="M1143 3303 c-18 -7 -16 -48 2 -63 17 -14 51 -5 59 16 14 35 -23 63
-61 47z"/>
<path d="M1570 3289 c-18 -33 2 -69 37 -68 27 0 27 1 6 9 -29 12 -30 30 -2 30
15 0 20 5 17 23 -4 31 -43 35 -58 6z m40 -4 c0 -8 -4 -15 -10 -15 -5 0 -10 7
-10 15 0 8 5 15 10 15 6 0 10 -7 10 -15z"/>
<path d="M1759 3289 c-8 -16 -8 -28 0 -45 18 -41 71 -25 71 21 0 44 -50 61
-71 24z m46 -24 c0 -16 -6 -30 -12 -32 -9 -3 -13 7 -13 32 0 25 4 35 13 33 6
-3 12 -17 12 -33z"/>
<path d="M1850 3265 c0 -36 3 -45 18 -45 14 0 17 7 14 45 -3 30 -9 45 -18 45
-10 0 -14 -13 -14 -45z"/>
<path d="M1899 3296 c7 -9 11 -29 9 -46 -4 -23 -1 -30 12 -30 26 0 12 83 -15
89 -17 3 -18 1 -6 -13z"/>
<path d="M2140 3302 c0 -5 7 -9 16 -8 26 2 28 -22 2 -26 -29 -4 -32 -41 -3
-46 15 -2 17 -1 6 6 -7 6 -10 15 -7 21 11 18 26 13 26 -9 0 -11 6 -20 13 -20
10 0 12 11 8 43 -5 37 -9 42 -33 45 -16 2 -28 -1 -28 -6z"/>
<path d="M2225 3265 c0 -33 4 -45 15 -45 11 0 15 11 15 37 0 20 6 38 13 40 8
3 12 -8 12 -36 0 -30 4 -41 16 -41 12 0 14 9 12 43 -3 41 -4 42 -43 45 l-40 3
0 -46z"/>
<path d="M4710 3281 c-13 -25 -4 -48 21 -56 38 -12 65 35 37 63 -18 18 -46 14
-58 -7z"/>
<path d="M1388 3223 c6 -2 18 -2 25 0 6 3 1 5 -13 5 -14 0 -19 -2 -12 -5z"/>
<path d="M1388 3093 c7 -3 12 -25 12 -58 0 -33 -5 -55 -12 -58 -7 -3 -4 -6 7
-6 18 -1 20 4 17 47 l-3 47 20 -23 c11 -13 29 -36 40 -50 l20 -27 1 62 c0 39
4 63 13 66 6 3 3 6 -8 6 -18 1 -21 -4 -17 -36 l3 -38 -31 38 c-20 23 -40 37
-53 36 -12 0 -16 -3 -9 -6z"/>
<path d="M1815 3063 c27 -41 33 -78 13 -86 -7 -3 1 -6 18 -6 28 -1 30 1 26 29
-3 19 3 43 17 65 17 29 18 35 5 35 -8 0 -13 -3 -10 -8 2 -4 -2 -18 -9 -31
l-12 -24 -12 22 c-7 12 -9 26 -6 31 4 6 -7 10 -25 10 l-31 0 26 -37z"/>
<path d="M2090 3035 c0 -50 3 -65 14 -65 8 0 17 10 19 23 l4 22 8 -22 c4 -13
15 -23 26 -23 19 0 19 1 2 26 -13 21 -14 30 -5 45 17 26 4 24 -19 -3 l-18 -23
-1 43 c0 30 -4 42 -15 42 -12 0 -15 -14 -15 -65z"/>
<path d="M2250 3080 c-11 -20 3 -42 45 -66 11 -6 15 -15 11 -22 -11 -18 -43
-14 -56 6 -10 15 -10 15 -8 -3 2 -14 12 -21 31 -23 59 -7 76 48 23 77 -16 9
-29 21 -30 26 -2 15 36 18 45 3 7 -10 9 -9 9 5 0 25 -56 23 -70 -3z"/>
<path d="M2590 3035 c0 -57 2 -65 19 -65 14 0 18 5 14 20 -3 11 -1 20 5 20 6
0 14 -9 17 -20 3 -11 13 -20 21 -20 13 0 12 5 -3 31 -17 30 -17 31 1 45 12 8
14 14 7 14 -7 0 -21 -10 -32 -22 l-18 -23 -1 43 c0 30 -4 42 -15 42 -12 0 -15
-14 -15 -65z"/>
<path d="M2748 3093 c7 -3 12 -25 12 -58 0 -33 -5 -55 -12 -58 -7 -3 13 -6 45
-6 48 -1 57 2 56 17 0 10 -3 12 -6 5 -2 -7 -18 -13 -34 -13 -24 0 -29 4 -29
25 0 18 5 25 19 25 11 0 22 -6 24 -12 3 -7 6 -3 6 8 1 17 -4 20 -24 16 -22 -4
-25 -1 -25 23 0 25 3 27 30 23 17 -3 30 -1 30 4 0 4 -24 8 -52 7 -29 0 -47 -3
-40 -6z"/>
<path d="M3055 3035 c0 -51 3 -65 15 -65 11 0 15 11 13 42 -1 24 -2 53 -2 66
-1 12 -7 22 -13 22 -9 0 -13 -20 -13 -65z"/>
<path d="M2355 3067 c-5 -7 -8 -30 -5 -52 4 -34 9 -40 30 -42 14 -1 19 0 13 3
-16 7 -17 74 -2 74 6 0 4 7 -5 15 -17 18 -18 18 -31 2z"/>
<path d="M4965 3015 c0 -59 2 -65 20 -64 11 0 14 3 8 6 -8 3 -13 23 -13 51 l1
47 22 -30 c12 -16 32 -41 44 -55 l21 -25 4 68 c3 62 1 67 -17 67 -15 0 -16 -3
-7 -9 8 -5 12 -22 10 -41 l-3 -34 -29 42 c-43 63 -61 57 -61 -23z"/>
<path d="M5106 3071 c-4 -5 -2 -12 3 -15 5 -4 12 -2 15 3 4 5 2 12 -3 15 -5 4
-12 2 -15 -3z"/>
<path d="M5150 3015 c0 -57 2 -65 19 -65 14 0 18 5 14 20 -3 11 -1 20 5 20 6
0 14 -9 17 -20 3 -11 13 -20 21 -20 13 0 12 5 -3 31 -17 30 -17 31 1 45 12 8
14 14 7 14 -7 0 -21 -10 -32 -22 l-18 -23 -1 43 c0 30 -4 42 -15 42 -12 0 -15
-14 -15 -65z"/>
<path d="M1143 3053 c-18 -7 -16 -48 2 -63 17 -14 51 -5 59 16 14 35 -23 63
-61 47z"/>
<path d="M1532 3048 c-28 -28 -7 -79 33 -77 16 1 17 2 3 6 -25 6 -22 33 3 33
15 0 20 5 17 23 -3 25 -36 35 -56 15z m38 -13 c0 -8 -4 -15 -10 -15 -5 0 -10
7 -10 15 0 8 5 15 10 15 6 0 10 -7 10 -15z"/>
<path d="M1619 3015 c9 -25 19 -45 22 -45 13 0 20 33 9 40 -6 4 -12 17 -13 28
-1 13 -8 22 -18 22 -15 0 -15 -3 0 -45z"/>
<path d="M1710 3041 c0 -28 -17 -35 -25 -11 -4 11 -11 18 -16 15 -14 -9 -11
-27 10 -54 l18 -24 16 47 c9 25 12 46 6 46 -5 0 -9 -9 -9 -19z"/>
<path d="M1923 3054 c-16 -7 -17 -70 -2 -79 5 -4 21 -4 35 -1 22 6 25 11 22
44 -3 37 -22 49 -55 36z m35 -45 c-1 -13 -7 -23 -13 -22 -13 3 -18 30 -11 50
10 24 29 1 24 -28z"/>
<path d="M2005 3015 c0 -42 2 -45 25 -44 14 0 19 3 13 6 -21 8 -16 54 7 60 11
3 20 9 20 15 0 5 -9 4 -20 -2 -14 -7 -20 -7 -20 0 0 5 -6 10 -12 10 -9 0 -13
-16 -13 -45z"/>
<path d="M2422 3048 c-7 -7 -12 -21 -12 -33 0 -46 53 -62 71 -21 21 45 -26 87
-59 54z m38 -34 c0 -24 -4 -34 -12 -32 -24 8 -22 68 2 68 5 0 10 -16 10 -36z"/>
<path d="M2523 3053 c-7 -2 -13 -20 -13 -38 0 -33 14 -46 48 -44 12 0 10 3 -5
9 -16 6 -23 18 -23 35 0 17 7 29 23 35 20 8 20 9 2 9 -11 -1 -26 -3 -32 -6z"/>
<path d="M2884 3038 c14 -20 14 -24 1 -45 -9 -13 -11 -23 -6 -23 5 0 12 7 15
16 3 8 10 12 16 9 6 -4 8 -11 5 -16 -4 -5 3 -9 14 -9 20 0 20 0 -2 45 -14 27
-29 44 -40 45 -17 0 -17 -2 -3 -22z"/>
<path d="M2926 3044 c-5 -14 -4 -15 9 -4 17 14 19 20 6 20 -5 0 -12 -7 -15
-16z"/>
<path d="M2983 3053 c-7 -2 -13 -20 -13 -38 0 -33 14 -46 48 -44 12 0 10 3 -5
9 -16 6 -23 18 -23 35 0 17 7 29 23 35 20 8 20 9 2 9 -11 -1 -26 -3 -32 -6z"/>
<path d="M3104 3044 c3 -9 6 -29 6 -45 0 -19 5 -29 15 -29 10 0 15 10 15 29 0
40 -9 61 -27 61 -10 0 -13 -6 -9 -16z"/>
<path d="M3188 3050 c12 -5 22 -14 22 -19 0 -5 -10 -11 -22 -13 -15 -2 -24
-11 -26 -25 -3 -21 1 -23 35 -23 l39 0 -5 43 c-5 38 -9 42 -36 44 -27 2 -28 2
-7 -7z m20 -52 c-6 -18 -28 -21 -28 -4 0 9 7 16 16 16 9 0 14 -5 12 -12z"/>
<path d="M3255 3014 c0 -32 4 -44 15 -44 10 0 15 11 15 35 0 45 19 46 23 0 4
-46 32 -49 32 -2 0 45 -10 55 -50 55 -35 0 -35 0 -35 -44z"/>
<path d="M3373 3052 c-16 -10 -11 -114 5 -120 7 -2 24 -1 38 2 38 10 30 50
-11 55 -29 4 -30 4 -5 10 35 9 42 61 8 61 -13 0 -28 -4 -35 -8z m37 -22 c0
-11 -4 -20 -9 -20 -14 0 -23 18 -16 30 10 17 25 11 25 -10z m10 -75 c0 -16
-35 -21 -44 -6 -8 12 4 21 26 21 10 0 18 -7 18 -15z"/>
<path d="M3460 3039 c-18 -33 2 -69 37 -68 27 0 27 1 6 9 -29 12 -30 30 -2 30
15 0 20 5 17 23 -4 31 -43 35 -58 6z m40 -4 c0 -8 -4 -15 -10 -15 -5 0 -10 7
-10 15 0 8 5 15 10 15 6 0 10 -7 10 -15z"/>
<path d="M4710 3021 c-13 -25 -4 -48 21 -56 38 -12 65 35 37 63 -18 18 -46 14
-58 -7z"/>
<path d="M5100 2995 c0 -33 4 -45 15 -45 11 0 15 12 15 45 0 33 -4 45 -15 45
-11 0 -15 -12 -15 -45z"/>
<path d="M5260 3019 c-18 -33 2 -69 37 -68 27 0 27 1 6 9 -29 12 -30 30 -2 30
15 0 20 5 17 23 -4 31 -43 35 -58 6z m40 -4 c0 -8 -4 -15 -10 -15 -5 0 -10 7
-10 15 0 8 5 15 10 15 6 0 10 -7 10 -15z"/>
<path d="M1388 2843 c7 -3 12 -25 12 -58 0 -33 -5 -55 -12 -58 -7 -3 3 -5 22
-5 19 0 29 2 23 5 -22 8 -15 41 10 46 l22 4 -22 2 c-19 1 -23 7 -23 31 0 25 4
30 24 30 13 0 27 -6 29 -12 3 -8 6 -6 6 5 1 14 -8 17 -51 16 -29 0 -47 -3 -40
-6z"/>
<path d="M2024 2825 c0 -14 6 -23 11 -22 14 5 13 39 -1 44 -7 2 -11 -6 -10
-22z"/>
<path d="M2195 2841 c-6 -11 9 -23 19 -14 9 9 7 23 -3 23 -6 0 -12 -4 -16 -9z"/>
<path d="M4965 2765 c0 -37 4 -65 10 -65 6 0 9 23 8 52 l-3 53 21 -47 c12 -27
25 -48 28 -48 4 0 17 21 29 48 l21 47 -2 -53 c-2 -46 0 -52 18 -52 18 0 20 7
20 65 0 59 -2 65 -21 65 -15 0 -26 -12 -38 -42 l-18 -43 -18 43 c-12 27 -26
42 -37 42 -15 0 -18 -9 -18 -65z"/>
<path d="M1143 2803 c-18 -7 -16 -48 2 -63 17 -14 51 -5 59 16 14 35 -23 63
-61 47z"/>
<path d="M1510 2802 c0 -5 7 -9 16 -8 26 2 28 -22 2 -26 -29 -4 -32 -41 -3
-46 15 -2 17 -1 6 6 -7 6 -10 15 -7 21 11 18 26 13 26 -9 0 -11 6 -20 13 -20
10 0 12 11 8 43 -5 37 -9 42 -33 45 -16 2 -28 -1 -28 -6z"/>
<path d="M1595 2765 c0 -39 3 -45 20 -45 18 0 20 5 17 35 -3 27 -1 35 12 35
30 0 16 15 -17 17 -32 3 -32 2 -32 -42z"/>
<path d="M1680 2765 c0 -36 3 -45 18 -45 14 0 17 7 14 45 -3 30 -9 45 -18 45
-10 0 -14 -13 -14 -45z"/>
<path d="M1730 2795 c7 -8 10 -28 8 -45 -3 -23 -1 -30 11 -30 12 0 16 10 16
37 0 39 -9 53 -34 53 -11 0 -11 -3 -1 -15z"/>
<path d="M1784 2794 c3 -9 6 -29 6 -45 0 -19 5 -29 15 -29 10 0 15 10 15 29 0
40 -9 61 -27 61 -10 0 -13 -6 -9 -16z"/>
<path d="M1853 2803 c-16 -6 -17 -55 -1 -71 7 -7 21 -12 33 -11 19 0 19 1 -2
9 -31 12 -29 30 2 30 27 0 33 18 13 38 -13 13 -24 14 -45 5z m26 -32 c-15 -5
-22 6 -14 19 6 9 10 9 16 -1 5 -8 4 -15 -2 -18z"/>
<path d="M1925 2765 c0 -42 2 -45 25 -44 14 0 19 3 13 6 -21 8 -16 54 7 60 11
3 20 9 20 15 0 5 -9 4 -20 -2 -14 -7 -20 -7 -20 0 0 5 -6 10 -12 10 -9 0 -13
-16 -13 -45z"/>
<path d="M2071 2796 c-9 -11 -8 -18 4 -30 9 -9 21 -16 26 -16 5 0 9 -5 9 -11
0 -7 -10 -9 -25 -7 -13 3 -22 1 -19 -3 8 -14 40 -11 53 5 9 11 8 18 -4 30 -9
9 -21 16 -26 16 -5 0 -9 5 -9 11 0 6 9 9 20 6 11 -3 20 -1 20 4 0 14 -36 11
-49 -5z"/>
<path d="M2190 2765 c0 -36 3 -45 18 -45 14 0 17 7 14 45 -3 30 -9 45 -18 45
-10 0 -14 -13 -14 -45z"/>
<path d="M2245 2764 c0 -32 4 -44 15 -44 10 0 15 11 15 35 0 45 19 46 23 0 4
-46 32 -49 32 -2 0 45 -10 55 -50 55 -35 0 -35 0 -35 -44z"/>
<path d="M2353 2793 c-4 -11 1 -22 15 -31 28 -18 29 -36 2 -29 -11 3 -20 1
-20 -4 0 -15 37 -10 51 7 12 14 9 20 -16 41 -27 22 -28 25 -7 20 12 -3 22 -1
22 4 0 16 -40 9 -47 -8z"/>
<path d="M2428 2765 c3 -38 7 -45 25 -45 16 0 18 3 9 12 -7 7 -12 27 -12 45 0
20 -5 33 -13 33 -8 0 -11 -14 -9 -45z"/>
<path d="M2478 2765 c2 -25 9 -45 16 -45 7 0 10 16 8 45 -2 25 -9 45 -16 45
-7 0 -10 -16 -8 -45z"/>
<path d="M2535 2765 c0 -33 4 -45 15 -45 10 0 15 10 15 33 0 24 4 32 18 31 9
-1 17 4 17 12 0 17 -12 18 -28 2 -9 -9 -12 -9 -12 0 0 7 -6 12 -12 12 -9 0
-13 -16 -13 -45z"/>
<path d="M2620 2801 c0 -5 9 -7 20 -4 14 4 20 0 20 -10 0 -9 -10 -17 -22 -19
-29 -4 -32 -41 -3 -47 16 -3 17 -1 7 11 -6 8 -9 18 -5 21 12 13 23 7 23 -13 0
-11 7 -20 15 -20 18 0 20 41 5 71 -11 19 -60 27 -60 10z"/>
<path d="M2710 2765 c0 -36 3 -45 18 -45 14 0 17 7 14 45 -3 30 -9 45 -18 45
-10 0 -14 -13 -14 -45z"/>
<path d="M2759 2796 c7 -9 11 -29 9 -46 -4 -23 -1 -30 12 -30 26 0 12 83 -15
89 -17 3 -18 1 -6 -13z"/>
<path d="M2826 2794 c-30 -29 -10 -74 32 -73 27 0 27 0 4 10 -18 7 -23 15 -20
36 2 20 8 28 21 27 9 -1 17 2 17 7 0 15 -37 10 -54 -7z"/>
<path d="M2913 2803 c-16 -6 -17 -55 -1 -71 7 -7 21 -12 33 -11 19 0 19 1 -2
9 -31 12 -29 30 2 30 27 0 33 18 13 38 -13 13 -24 14 -45 5z m26 -32 c-15 -5
-22 6 -14 19 6 9 10 9 16 -1 5 -8 4 -15 -2 -18z"/>
<path d="M5233 2799 c-5 -5 -7 -28 -4 -52 5 -31 11 -43 26 -45 16 -3 18 -1 8
9 -15 15 -17 66 -4 71 5 2 3 8 -4 15 -8 7 -16 8 -22 2z"/>
<path d="M5694 2800 c-5 -5 -8 -30 -6 -55 4 -39 7 -45 26 -44 11 0 15 3 9 6
-15 5 -18 70 -4 75 5 2 3 8 -4 15 -7 7 -16 8 -21 3z"/>
<path d="M4710 2771 c-13 -25 -4 -48 21 -56 38 -12 65 35 37 63 -18 18 -46 14
-58 -7z"/>
<path d="M5153 2783 c-16 -6 -17 -55 -1 -71 7 -7 21 -12 33 -11 19 0 19 1 -2
9 -31 12 -29 30 2 30 27 0 33 18 13 38 -13 13 -24 14 -45 5z m26 -32 c-15 -5
-22 6 -14 19 6 9 10 9 16 -1 5 -8 4 -15 -2 -18z"/>
<path d="M5318 2780 c12 -5 22 -14 22 -19 0 -5 -10 -11 -22 -13 -15 -2 -24
-11 -26 -25 -3 -21 1 -23 35 -23 l39 0 -5 43 c-5 38 -9 42 -36 44 -27 2 -28 2
-7 -7z m20 -52 c-6 -18 -28 -21 -28 -4 0 9 7 16 16 16 9 0 14 -5 12 -12z"/>
<path d="M5382 2783 c2 -5 10 -25 18 -45 8 -21 17 -38 21 -38 15 0 18 32 4 46
-8 9 -15 22 -15 30 0 8 -7 14 -16 14 -9 0 -14 -3 -12 -7z"/>
<path d="M5443 2768 c-2 -18 0 -20 7 -8 12 18 13 30 2 30 -4 0 -9 -10 -9 -22z"/>
<path d="M5508 2780 c12 -5 22 -14 22 -19 0 -5 -10 -11 -22 -13 -15 -2 -24
-11 -26 -25 -3 -21 1 -23 35 -23 l39 0 -5 43 c-5 38 -9 42 -36 44 -27 2 -28 2
-7 -7z m20 -52 c-6 -18 -28 -21 -28 -4 0 9 7 16 16 16 9 0 14 -5 12 -12z"/>
<path d="M5575 2744 c0 -32 4 -44 15 -44 10 0 15 11 15 35 0 45 19 46 23 0 4
-46 32 -49 32 -2 0 45 -10 55 -50 55 -35 0 -35 0 -35 -44z"/>
<path d="M5752 2778 c-28 -28 -7 -79 33 -77 16 1 17 2 3 6 -25 6 -22 33 3 33
15 0 20 5 17 23 -3 25 -36 35 -56 15z m38 -13 c0 -8 -4 -15 -10 -15 -5 0 -10
7 -10 15 0 8 5 15 10 15 6 0 10 -7 10 -15z"/>
<path d="M1388 2583 c7 -3 12 -25 12 -58 0 -33 -5 -55 -12 -58 -7 -3 3 -5 22
-5 19 0 29 2 23 5 -7 2 -13 16 -13 29 0 20 5 24 30 24 25 0 30 -4 30 -24 0
-13 -6 -27 -12 -29 -7 -3 3 -5 22 -5 19 0 29 2 23 5 -8 3 -13 25 -13 58 0 33
5 55 13 58 6 3 -4 5 -23 5 -19 0 -29 -2 -22 -5 6 -2 12 -16 12 -29 0 -20 -5
-24 -30 -24 -25 0 -30 4 -30 24 0 13 6 27 13 29 6 3 -4 5 -23 5 -19 0 -29 -2
-22 -5z"/>
<path d="M1715 2525 c0 -51 3 -65 15 -65 12 0 14 12 12 65 -5 89 -27 89 -27 0z"/>
<path d="M1830 2525 c0 -51 3 -65 15 -65 12 0 15 14 15 65 0 51 -3 65 -15 65
-12 0 -15 -14 -15 -65z"/>
<path d="M1938 2583 c7 -3 12 -25 12 -58 0 -33 -5 -55 -12 -58 -7 -3 -4 -6 7
-6 18 -1 20 4 17 47 l-3 47 20 -23 c11 -13 29 -36 40 -50 l20 -27 1 62 c0 39
4 63 13 66 6 3 3 6 -8 6 -18 1 -21 -4 -17 -36 l3 -38 -31 38 c-20 23 -40 37
-53 36 -12 0 -16 -3 -9 -6z"/>
<path d="M4951 2563 c0 -11 3 -13 6 -5 2 6 13 12 24 12 16 0 19 -7 19 -54 0
-34 -5 -56 -12 -59 -7 -3 1 -6 17 -6 l30 -1 -3 61 c-4 59 -3 62 17 56 12 -3
21 -1 21 4 0 5 -27 9 -60 9 -51 0 -60 -3 -59 -17z"/>
<path d="M1775 2557 c-15 -18 -3 -91 15 -95 14 -2 17 27 11 101 -1 11 -15 8
-26 -6z"/>
<path d="M2165 2557 c-5 -7 -8 -30 -5 -52 4 -34 9 -40 30 -42 14 -1 19 0 13 3
-16 7 -17 74 -2 74 6 0 4 7 -5 15 -17 18 -18 18 -31 2z"/>
<path d="M5435 2547 c-5 -7 -8 -30 -5 -52 4 -34 9 -40 30 -42 14 -1 19 0 13 3
-16 7 -17 74 -2 74 6 0 4 7 -5 15 -17 18 -18 18 -31 2z"/>
<path d="M1143 2543 c-18 -7 -16 -48 2 -63 17 -14 51 -5 59 16 14 35 -23 63
-61 47z"/>
<path d="M1542 2538 c-28 -28 -7 -79 33 -77 16 1 17 2 3 6 -25 6 -22 33 3 33
15 0 20 5 17 23 -3 25 -36 35 -56 15z m38 -13 c0 -8 -4 -15 -10 -15 -5 0 -10
7 -10 15 0 8 5 15 10 15 6 0 10 -7 10 -15z"/>
<path d="M1648 2540 c12 -5 22 -14 22 -19 0 -5 -10 -11 -22 -13 -15 -2 -24
-11 -26 -25 -3 -21 1 -23 35 -23 l39 0 -5 43 c-5 38 -9 42 -36 44 -27 2 -28 2
-7 -7z m20 -52 c-6 -18 -28 -21 -28 -4 0 9 7 16 16 16 9 0 14 -5 12 -12z"/>
<path d="M1879 2536 c7 -9 11 -29 9 -46 -4 -23 -1 -30 12 -30 26 0 12 83 -15
89 -17 3 -18 1 -6 -13z"/>
<path d="M2082 2538 c-28 -28 -7 -79 33 -77 16 1 17 2 3 6 -25 6 -22 33 3 33
15 0 20 5 17 23 -3 25 -36 35 -56 15z m38 -13 c0 -8 -4 -15 -10 -15 -5 0 -10
7 -10 15 0 8 5 15 10 15 6 0 10 -7 10 -15z"/>
<path d="M4710 2521 c-13 -25 -4 -48 21 -56 38 -12 65 35 37 63 -18 18 -46 14
-58 -7z"/>
<path d="M5098 2530 c12 -5 22 -14 22 -19 0 -5 -10 -11 -22 -13 -15 -2 -24
-11 -26 -25 -3 -21 1 -23 35 -23 l39 0 -5 43 c-5 38 -9 42 -36 44 -27 2 -28 2
-7 -7z m20 -52 c-6 -18 -28 -21 -28 -4 0 9 7 16 16 16 9 0 14 -5 12 -12z"/>
<path d="M5165 2495 c0 -39 3 -45 20 -45 18 0 20 5 17 35 -3 27 -1 35 12 35
30 0 16 15 -17 17 -32 3 -32 2 -32 -42z"/>
<path d="M5257 2533 c-3 -5 -5 -25 -5 -46 0 -21 -3 -41 -6 -44 -10 -11 16 -33
39 -33 51 0 59 59 8 61 l-28 1 28 10 c19 7 27 17 27 34 0 20 -5 24 -29 24 -17
0 -32 -3 -34 -7z m38 -23 c0 -7 -6 -15 -12 -17 -8 -3 -13 4 -13 17 0 13 5 20
13 18 6 -3 12 -11 12 -18z m13 -72 c-5 -15 -48 -24 -48 -10 0 14 12 22 33 22
10 0 17 -5 15 -12z"/>
<path d="M5350 2519 c-18 -33 2 -69 37 -68 27 0 27 1 6 9 -29 12 -30 30 -2 30
15 0 20 5 17 23 -4 31 -43 35 -58 6z m40 -4 c0 -8 -4 -15 -10 -15 -5 0 -10 7
-10 15 0 8 5 15 10 15 6 0 10 -7 10 -15z"/>
<path d="M1381 2323 c0 -11 3 -13 6 -5 2 6 11 12 20 12 12 0 14 -12 11 -60
l-3 -60 30 1 c17 0 24 3 18 6 -8 3 -13 25 -13 59 0 47 3 54 19 54 11 0 22 -6
24 -12 3 -8 6 -6 6 5 1 14 -8 17 -59 17 -51 0 -60 -3 -59 -17z"/>
<path d="M1515 2275 c0 -37 4 -65 10 -65 6 0 9 23 8 52 l-3 53 21 -47 c12 -27
25 -48 28 -48 4 0 17 21 29 48 l21 47 -2 -53 c-2 -46 0 -52 18 -52 18 0 20 7
20 65 0 59 -2 65 -21 65 -15 0 -26 -12 -38 -42 l-18 -43 -18 43 c-12 27 -26
42 -37 42 -15 0 -18 -9 -18 -65z"/>
<path d="M1788 2279 c4 -65 13 -76 58 -65 22 6 25 11 22 44 -3 32 -7 37 -30
40 -20 2 -28 9 -28 23 0 10 -6 19 -12 19 -10 0 -12 -17 -10 -61z m57 -25 c0
-19 -5 -29 -15 -29 -16 0 -25 28 -16 51 10 25 31 10 31 -22z"/>
<path d="M1900 2325 c0 -8 5 -15 10 -15 6 0 10 7 10 15 0 8 -4 15 -10 15 -5 0
-10 -7 -10 -15z"/>
<path d="M1945 2275 c0 -51 3 -65 15 -65 12 0 14 12 12 65 -5 89 -27 89 -27 0z"/>
<path d="M4972 2308 c-20 -20 -13 -38 23 -60 20 -11 34 -26 32 -32 -6 -19 -40
-19 -55 0 -13 18 -14 18 -10 -1 5 -29 63 -34 77 -6 15 27 5 47 -30 61 -16 7
-29 17 -29 22 0 15 30 21 45 8 12 -10 15 -9 15 4 0 19 -50 22 -68 4z"/>
<path d="M5328 2311 c8 -4 26 -34 41 -66 l27 -57 24 53 24 54 4 -44 c2 -29 -1
-47 -10 -52 -8 -6 0 -8 22 -8 19 0 29 3 23 6 -8 3 -13 25 -13 58 0 33 5 55 13
58 6 3 0 6 -15 6 -23 1 -31 -6 -47 -41 l-19 -43 -18 43 c-14 34 -22 42 -43 42
-18 0 -22 -3 -13 -9z"/>
<path d="M5510 2305 c0 -8 5 -15 10 -15 6 0 10 7 10 15 0 8 -4 15 -10 15 -5 0
-10 -7 -10 -15z"/>
<path d="M5832 2308 c-20 -20 -14 -38 22 -59 22 -13 33 -26 29 -35 -7 -20 -40
-18 -52 4 -10 16 -10 16 -11 -1 0 -22 22 -31 55 -23 19 5 25 13 25 35 0 23 -6
31 -30 40 -16 5 -30 17 -30 25 0 19 31 21 49 4 11 -11 13 -10 9 2 -6 19 -49
25 -66 8z"/>
<path d="M1143 2293 c-18 -7 -16 -48 2 -63 17 -14 51 -5 59 16 14 35 -23 63
-61 47z"/>
<path d="M1702 2288 c-7 -7 -12 -21 -12 -33 0 -46 53 -62 71 -21 21 45 -26 87
-59 54z m38 -34 c0 -24 -4 -34 -12 -32 -24 8 -22 68 2 68 5 0 10 -16 10 -36z"/>
<path d="M1895 2255 c0 -33 4 -45 15 -45 12 0 14 10 12 45 -2 25 -9 45 -16 45
-6 0 -11 -18 -11 -45z"/>
<path d="M2007 2293 c-4 -3 -7 -21 -7 -39 0 -32 14 -45 48 -43 12 0 10 3 -5 9
-31 12 -29 30 2 30 28 0 29 3 15 31 -10 19 -40 26 -53 12z m33 -18 c0 -8 -4
-15 -10 -15 -5 0 -10 7 -10 15 0 8 5 15 10 15 6 0 10 -7 10 -15z"/>
<path d="M6105 2287 c-15 -18 -3 -91 15 -95 14 -2 17 27 11 101 -1 11 -15 8
-26 -6z"/>
<path d="M4710 2261 c-13 -25 -4 -48 21 -56 38 -12 65 35 37 63 -18 18 -46 14
-58 -7z"/>
<path d="M5069 2238 c5 -32 11 -44 26 -46 16 -3 18 -1 8 9 -7 7 -13 28 -13 46
0 21 -5 33 -13 33 -10 0 -12 -11 -8 -42z"/>
<path d="M5120 2235 c0 -33 4 -45 15 -45 11 0 15 12 15 45 0 33 -4 45 -15 45
-11 0 -15 -12 -15 -45z"/>
<path d="M5170 2235 c0 -36 3 -45 18 -45 14 0 17 7 14 45 -3 30 -9 45 -18 45
-10 0 -14 -13 -14 -45z"/>
<path d="M5219 2266 c7 -9 11 -29 9 -46 -4 -23 -1 -30 12 -30 26 0 12 83 -15
89 -17 3 -18 1 -6 -13z"/>
<path d="M5505 2235 c0 -33 4 -45 15 -45 12 0 14 10 12 45 -2 25 -9 45 -16 45
-6 0 -11 -18 -11 -45z"/>
<path d="M5573 2273 c-7 -2 -13 -20 -13 -38 0 -33 14 -46 48 -44 12 0 10 3 -5
9 -16 6 -23 18 -23 35 0 17 7 29 23 35 20 8 20 9 2 9 -11 -1 -26 -3 -32 -6z"/>
<path d="M5645 2235 c0 -42 2 -45 25 -44 14 0 19 3 13 6 -21 8 -16 54 7 60 11
3 20 9 20 15 0 5 -9 4 -20 -2 -14 -7 -20 -7 -20 0 0 5 -6 10 -12 10 -9 0 -13
-16 -13 -45z"/>
<path d="M5730 2266 c-28 -35 11 -93 48 -70 35 22 22 84 -18 84 -10 0 -23 -7
-30 -14z m40 -31 c0 -19 -4 -35 -10 -35 -5 0 -10 16 -10 35 0 19 5 35 10 35 6
0 10 -16 10 -35z"/>
<path d="M5940 2235 c20 -47 17 -80 -6 -71 -8 3 -14 1 -14 -4 0 -6 7 -10 15
-10 9 0 24 20 35 48 11 26 25 55 30 65 8 13 7 17 -5 17 -8 0 -14 -3 -14 -7 1
-5 1 -17 0 -28 -2 -20 -2 -20 -16 -1 -8 10 -12 23 -9 27 3 5 -4 9 -15 9 -20 0
-20 0 -1 -45z"/>
<path d="M6023 2263 c-4 -11 1 -22 15 -31 28 -18 29 -36 2 -29 -11 3 -20 1
-20 -4 0 -15 37 -10 51 7 12 14 9 20 -16 41 -27 22 -28 25 -7 20 12 -3 22 -1
22 4 0 16 -40 9 -47 -8z"/>
<path d="M6167 2273 c-4 -3 -7 -21 -7 -39 0 -32 14 -45 48 -43 12 0 10 3 -5 9
-31 12 -29 30 2 30 28 0 29 3 15 31 -10 19 -40 26 -53 12z m33 -18 c0 -8 -4
-15 -10 -15 -5 0 -10 7 -10 15 0 8 5 15 10 15 6 0 10 -7 10 -15z"/>
<path d="M6245 2234 c0 -32 4 -44 15 -44 10 0 15 11 15 35 0 19 5 35 10 35 6
0 10 -16 10 -35 0 -27 4 -35 18 -35 16 0 18 7 15 43 -4 41 -4 42 -43 44 l-40
2 0 -45z"/>
<path d="M6348 2235 c3 -31 9 -45 19 -45 20 0 14 84 -7 88 -12 2 -14 -7 -12
-43z"/>
<path d="M6403 2263 c-4 -11 1 -22 15 -31 28 -18 29 -36 2 -29 -11 3 -20 1
-20 -4 0 -15 37 -10 51 7 12 14 9 20 -16 41 -27 22 -28 25 -7 20 12 -3 22 -1
22 4 0 16 -40 9 -47 -8z"/>
<path d="M5328 2193 c6 -2 18 -2 25 0 6 3 1 5 -13 5 -14 0 -19 -2 -12 -5z"/>
<path d="M1387 2078 c6 -7 18 -37 27 -65 10 -29 19 -53 22 -53 2 0 11 17 20
38 l16 37 18 -40 c12 -27 20 -35 23 -25 39 100 44 120 33 120 -6 0 -13 -12
-14 -26 -1 -14 -6 -33 -11 -41 -7 -13 -11 -8 -21 21 -6 20 -15 36 -19 36 -4 0
-13 -17 -21 -37 l-13 -38 -14 33 c-7 18 -11 37 -8 43 4 5 -6 9 -21 9 -20 0
-24 -3 -17 -12z"/>
<path d="M1745 2025 c0 -51 3 -65 15 -65 11 0 15 11 13 42 -1 24 -2 53 -2 66
-1 12 -7 22 -13 22 -9 0 -13 -20 -13 -65z"/>
<path d="M2045 2081 c-6 -11 9 -23 19 -14 9 9 7 23 -3 23 -6 0 -12 -4 -16 -9z"/>
<path d="M2252 2078 c-20 -20 -14 -38 22 -59 22 -13 33 -26 29 -35 -7 -20 -40
-18 -52 4 -10 16 -10 16 -11 -1 0 -22 22 -31 55 -23 19 5 25 13 25 35 0 23 -6
31 -30 40 -16 5 -30 17 -30 25 0 19 31 21 49 4 11 -11 13 -10 9 2 -6 19 -49
25 -66 8z"/>
<path d="M2710 2075 c0 -8 5 -15 10 -15 6 0 10 7 10 15 0 8 -4 15 -10 15 -5 0
-10 -7 -10 -15z"/>
<path d="M2825 2081 c-6 -11 9 -23 19 -14 9 9 7 23 -3 23 -6 0 -12 -4 -16 -9z"/>
<path d="M2765 2057 c-15 -18 -3 -91 15 -95 14 -2 17 27 11 101 -1 11 -15 8
-26 -6z"/>
<path d="M4965 2005 c0 -59 2 -65 20 -64 11 0 14 3 8 6 -8 3 -13 23 -13 51 l1
47 22 -30 c12 -16 32 -41 44 -55 l21 -25 4 68 c3 62 1 67 -17 67 -15 0 -16 -3
-7 -9 8 -5 12 -22 10 -41 l-3 -34 -29 42 c-43 63 -61 57 -61 -23z"/>
<path d="M5260 2055 c0 -8 5 -15 10 -15 6 0 10 7 10 15 0 8 -4 15 -10 15 -5 0
-10 -7 -10 -15z"/>
<path d="M5605 2005 c0 -51 3 -65 15 -65 12 0 14 12 12 65 -5 89 -27 89 -27 0z"/>
<path d="M5726 2054 c-22 -21 -20 -77 2 -97 30 -28 92 -19 92 12 -1 14 -2 14
-11 -1 -5 -10 -21 -18 -35 -18 -31 0 -49 40 -36 79 7 20 15 26 40 26 16 0 28
3 25 7 -8 14 -61 8 -77 -8z"/>
<path d="M5850 2055 c0 -8 5 -15 10 -15 6 0 10 7 10 15 0 8 -4 15 -10 15 -5 0
-10 -7 -10 -15z"/>
<path d="M5965 2061 c-6 -11 9 -23 19 -14 9 9 7 23 -3 23 -6 0 -12 -4 -16 -9z"/>
<path d="M6010 2010 c0 -56 2 -60 27 -66 14 -4 33 -2 42 3 34 21 20 84 -18 82
-10 0 -11 -2 -3 -6 18 -7 16 -73 -3 -73 -12 0 -15 13 -15 60 0 47 -3 60 -15
60 -12 0 -15 -13 -15 -60z"/>
<path d="M6320 2005 c0 -57 2 -65 19 -65 14 0 18 5 14 20 -3 11 -1 20 5 20 6
0 14 -9 17 -20 3 -11 13 -20 21 -20 13 0 12 5 -3 31 -17 30 -17 31 1 45 12 8
14 14 7 14 -7 0 -21 -10 -32 -22 l-18 -23 -1 43 c0 30 -4 42 -15 42 -12 0 -15
-14 -15 -65z"/>
<path d="M1143 2043 c-18 -7 -16 -48 2 -63 17 -14 51 -5 59 16 14 35 -23 63
-61 47z"/>
<path d="M1576 2042 c-3 -6 3 -8 14 -5 13 4 20 0 20 -10 0 -8 -12 -18 -26 -21
-40 -10 -27 -40 19 -44 l38 -3 -3 43 c-3 38 -6 43 -30 46 -14 2 -29 -1 -32 -6z
m34 -57 c0 -8 -4 -15 -10 -15 -5 0 -10 7 -10 15 0 8 5 15 10 15 6 0 10 -7 10
-15z"/>
<path d="M1672 2038 c-28 -28 -7 -79 33 -77 16 1 16 2 3 6 -20 5 -31 33 -22
57 7 18 30 22 37 6 3 -6 4 -5 3 2 -3 18 -38 22 -54 6z"/>
<path d="M1798 2005 c3 -31 9 -45 19 -45 20 0 14 84 -7 88 -12 2 -14 -7 -12
-43z"/>
<path d="M1862 2038 c-7 -7 -12 -21 -12 -33 0 -46 53 -62 71 -21 21 45 -26 87
-59 54z m38 -34 c0 -24 -4 -34 -12 -32 -24 8 -22 68 2 68 5 0 10 -16 10 -36z"/>
<path d="M1955 2013 c24 -56 29 -57 53 -8 12 25 18 45 13 45 -5 0 -12 -11 -15
-25 -10 -41 -34 -25 -27 18 0 4 -8 7 -19 7 -20 0 -20 -1 -5 -37z"/>
<path d="M2040 2005 c0 -36 3 -45 18 -45 14 0 17 7 14 45 -3 30 -9 45 -18 45
-10 0 -14 -13 -14 -45z"/>
<path d="M2100 2041 c0 -5 9 -7 20 -4 14 4 20 0 20 -10 0 -9 -10 -17 -22 -19
-29 -4 -32 -41 -3 -47 16 -3 17 -1 7 11 -6 8 -9 18 -5 21 12 13 23 7 23 -13 0
-11 7 -20 15 -20 18 0 20 41 5 71 -11 19 -60 27 -60 10z"/>
<path d="M2352 2038 c-28 -28 -7 -79 33 -77 16 1 17 2 3 6 -25 6 -22 33 3 33
15 0 20 5 17 23 -3 25 -36 35 -56 15z m38 -13 c0 -8 -4 -15 -10 -15 -5 0 -10
7 -10 15 0 8 5 15 10 15 6 0 10 -7 10 -15z"/>
<path d="M2443 2043 c-7 -2 -13 -20 -13 -38 0 -33 14 -46 48 -44 12 0 10 3 -5
9 -16 6 -23 18 -23 35 0 17 7 29 23 35 20 8 20 9 2 9 -11 -1 -26 -3 -32 -6z"/>
<path d="M2518 2005 c3 -38 7 -45 25 -45 16 0 18 3 9 12 -7 7 -12 27 -12 45 0
20 -5 33 -13 33 -8 0 -11 -14 -9 -45z"/>
<path d="M2568 2005 c2 -25 9 -45 16 -45 7 0 10 16 8 45 -2 25 -9 45 -16 45
-7 0 -10 -16 -8 -45z"/>
<path d="M2620 2005 c0 -36 3 -45 18 -45 13 0 17 8 17 33 0 24 4 32 18 31 9
-1 17 4 17 12 0 17 -12 18 -28 2 -9 -9 -12 -9 -12 0 0 7 -7 12 -15 12 -11 0
-15 -12 -15 -45z"/>
<path d="M2705 2005 c0 -33 4 -45 15 -45 12 0 14 10 12 45 -2 25 -9 45 -16 45
-6 0 -11 -18 -11 -45z"/>
<path d="M2820 2005 c0 -36 3 -45 18 -45 14 0 17 7 14 45 -3 30 -9 45 -18 45
-10 0 -14 -13 -14 -45z"/>
<path d="M2882 2038 c-28 -28 -7 -79 33 -77 16 1 17 2 3 6 -25 6 -22 33 3 33
15 0 20 5 17 23 -3 25 -36 35 -56 15z m38 -13 c0 -8 -4 -15 -10 -15 -5 0 -10
7 -10 15 0 8 5 15 10 15 6 0 10 -7 10 -15z"/>
<path d="M2961 2036 c-9 -11 -8 -18 4 -30 9 -9 21 -16 26 -16 5 0 9 -5 9 -11
0 -7 -10 -9 -25 -7 -13 3 -22 1 -19 -3 8 -14 40 -11 53 5 9 11 8 18 -4 30 -9
9 -21 16 -26 16 -5 0 -9 5 -9 11 0 6 9 9 20 6 11 -3 20 -1 20 4 0 14 -36 11
-49 -5z"/>
<path d="M5203 2039 c-5 -5 -7 -28 -4 -52 5 -31 11 -43 26 -45 16 -3 18 -1 8
9 -15 15 -17 66 -4 71 5 2 3 8 -4 15 -8 7 -16 8 -22 2z"/>
<path d="M5905 2037 c-15 -18 -3 -91 15 -95 14 -2 17 27 11 101 -1 11 -15 8
-26 -6z"/>
<path d="M4710 2011 c-13 -25 -4 -48 21 -56 38 -12 65 35 37 63 -18 18 -46 14
-58 -7z"/>
<path d="M5128 2020 c12 -5 22 -14 22 -19 0 -5 -10 -11 -22 -13 -15 -2 -24
-11 -26 -25 -3 -21 1 -23 35 -23 l39 0 -5 43 c-5 38 -9 42 -36 44 -27 2 -28 2
-7 -7z m20 -52 c-6 -18 -28 -21 -28 -4 0 9 7 16 16 16 9 0 14 -5 12 -12z"/>
<path d="M5255 1985 c0 -33 4 -45 15 -45 12 0 14 10 12 45 -2 25 -9 45 -16 45
-6 0 -11 -18 -11 -45z"/>
<path d="M5323 2024 c-16 -7 -17 -70 -2 -79 5 -4 21 -4 35 -1 22 6 25 11 22
44 -3 37 -22 49 -55 36z m35 -45 c-1 -13 -7 -23 -13 -22 -13 3 -18 30 -11 50
10 24 29 1 24 -28z"/>
<path d="M5405 1984 c0 -32 4 -44 15 -44 10 0 15 11 15 35 0 45 19 46 23 0 4
-46 32 -49 32 -2 0 45 -10 55 -50 55 -35 0 -35 0 -35 -44z"/>
<path d="M5520 2022 c0 -5 7 -9 16 -8 26 2 28 -22 2 -26 -29 -4 -32 -41 -3
-46 15 -2 17 -1 6 6 -7 6 -10 15 -7 21 11 18 26 13 26 -9 0 -11 6 -20 13 -20
10 0 12 11 8 43 -5 37 -9 42 -33 45 -16 2 -28 -1 -28 -6z"/>
<path d="M5845 1985 c0 -33 4 -45 15 -45 12 0 14 10 12 45 -2 25 -9 45 -16 45
-6 0 -11 -18 -11 -45z"/>
<path d="M5960 1985 c0 -36 3 -45 18 -45 14 0 17 7 14 45 -3 30 -9 45 -18 45
-10 0 -14 -13 -14 -45z"/>
<path d="M6148 2020 c12 -5 22 -14 22 -19 0 -5 -10 -11 -22 -13 -15 -2 -24
-11 -26 -25 -3 -21 1 -23 35 -23 l39 0 -5 43 c-5 38 -9 42 -36 44 -27 2 -28 2
-7 -7z m20 -52 c-6 -18 -28 -21 -28 -4 0 9 7 16 16 16 9 0 14 -5 12 -12z"/>
<path d="M6215 1985 c0 -33 4 -45 15 -45 11 0 15 11 15 37 0 20 6 38 13 40 8
3 12 -8 12 -36 0 -30 4 -41 16 -41 12 0 14 9 12 43 -3 41 -4 42 -43 45 l-40 3
0 -46z"/>
<path d="M1406 1814 c-22 -21 -20 -77 2 -97 30 -28 92 -19 92 12 -1 14 -2 14
-11 -1 -5 -10 -21 -18 -35 -18 -31 0 -49 40 -36 79 7 20 15 26 40 26 16 0 28
3 25 7 -8 14 -61 8 -77 -8z"/>
<path d="M2137 1818 c6 -7 18 -37 27 -65 10 -29 19 -53 22 -53 2 0 11 17 20
38 l16 37 18 -40 c12 -27 20 -35 23 -25 39 100 44 120 33 120 -6 0 -13 -12
-14 -26 -1 -14 -6 -33 -11 -41 -7 -13 -11 -8 -21 21 -6 20 -15 36 -19 36 -4 0
-13 -17 -21 -37 l-13 -38 -14 33 c-7 18 -11 37 -8 43 4 5 -6 9 -21 9 -20 0
-24 -3 -17 -12z"/>
<path d="M2495 1765 c0 -51 3 -65 15 -65 12 0 14 12 12 65 -5 89 -27 89 -27 0z"/>
<path d="M2615 1765 c0 -51 3 -65 15 -65 11 0 15 11 13 42 -1 24 -2 53 -2 66
-1 12 -7 22 -13 22 -9 0 -13 -20 -13 -65z"/>
<path d="M2873 1810 c-3 -11 -10 -20 -17 -20 -6 0 -5 -4 3 -9 9 -6 12 -21 9
-45 -3 -28 0 -36 12 -36 12 0 15 8 12 36 -3 24 0 39 9 45 10 6 11 9 2 9 -7 0
-13 6 -13 14 0 8 6 17 13 19 7 3 4 6 -6 6 -11 1 -21 -8 -24 -19z"/>
<path d="M4980 1800 c-40 -40 -11 -110 45 -110 32 0 65 33 65 65 0 32 -33 65
-65 65 -14 0 -34 -9 -45 -20z m68 -2 c7 -7 12 -26 12 -43 0 -34 -15 -55 -41
-55 -19 0 -29 20 -29 55 0 51 29 72 58 43z"/>
<path d="M5375 1755 c0 -51 3 -65 15 -65 12 0 14 12 12 65 -5 89 -27 89 -27 0z"/>
<path d="M2564 1800 c-5 -5 -8 -30 -6 -55 4 -39 7 -45 26 -44 11 0 15 3 9 6
-15 5 -18 70 -4 75 5 2 3 8 -4 15 -7 7 -16 8 -21 3z"/>
<path d="M1143 1783 c-18 -7 -16 -48 2 -63 17 -14 51 -5 59 16 14 35 -23 63
-61 47z"/>
<path d="M1530 1776 c-28 -35 11 -93 48 -70 35 22 22 84 -18 84 -10 0 -23 -7
-30 -14z m40 -31 c0 -19 -4 -35 -10 -35 -5 0 -10 16 -10 35 0 19 5 35 10 35 6
0 10 -16 10 -35z"/>
<path d="M1618 1745 c3 -30 9 -45 18 -45 10 0 14 13 14 45 0 36 -3 45 -18 45
-14 0 -17 -7 -14 -45z"/>
<path d="M1670 1770 c7 -12 10 -33 7 -46 -3 -18 0 -24 13 -24 25 0 13 83 -13
88 -16 3 -17 1 -7 -18z"/>
<path d="M1719 1776 c7 -9 11 -29 9 -46 -4 -23 -1 -30 12 -30 26 0 12 83 -15
89 -17 3 -18 1 -6 -13z"/>
<path d="M1775 1745 c0 -33 4 -45 15 -45 11 0 15 11 15 37 0 20 6 38 13 40 8
3 12 -8 12 -36 0 -30 4 -41 16 -41 12 0 14 9 12 43 -3 41 -4 42 -43 45 l-40 3
0 -46z"/>
<path d="M1879 1776 c7 -9 11 -29 9 -46 -4 -23 -1 -30 12 -30 26 0 12 83 -15
89 -17 3 -18 1 -6 -13z"/>
<path d="M1939 1769 c-8 -16 -8 -28 0 -45 18 -41 71 -25 71 21 0 44 -50 61
-71 24z m46 -24 c0 -16 -6 -30 -12 -32 -9 -3 -13 7 -13 32 0 25 4 35 13 33 6
-3 12 -17 12 -33z"/>
<path d="M2030 1745 c0 -36 3 -45 18 -45 14 0 17 7 14 45 -3 30 -9 45 -18 45
-10 0 -14 -13 -14 -45z"/>
<path d="M2079 1776 c7 -9 11 -29 9 -46 -4 -23 -1 -30 12 -30 26 0 12 83 -15
89 -17 3 -18 1 -6 -13z"/>
<path d="M2320 1769 c-18 -33 2 -69 37 -68 27 0 27 1 6 9 -29 12 -30 30 -2 30
15 0 20 5 17 23 -4 31 -43 35 -58 6z m40 -4 c0 -8 -4 -15 -10 -15 -5 0 -10 7
-10 15 0 8 5 15 10 15 6 0 10 -7 10 -15z"/>
<path d="M2410 1782 c0 -5 7 -9 16 -8 26 2 28 -22 2 -26 -29 -4 -32 -41 -3
-46 15 -2 17 -1 6 6 -7 6 -10 15 -7 21 11 18 26 13 26 -9 0 -11 6 -20 13 -20
10 0 12 11 8 43 -5 37 -9 42 -33 45 -16 2 -28 -1 -28 -6z"/>
<path d="M2664 1774 c3 -9 6 -29 6 -45 0 -19 5 -29 15 -29 10 0 15 10 15 29 0
40 -9 61 -27 61 -10 0 -13 -6 -9 -16z"/>
<path d="M2769 1769 c-8 -16 -8 -28 0 -45 18 -41 71 -25 71 21 0 44 -50 61
-71 24z m46 -24 c0 -16 -6 -30 -12 -32 -9 -3 -13 7 -13 32 0 25 4 35 13 33 6
-3 12 -17 12 -33z"/>
<path d="M4710 1761 c-13 -25 -4 -48 21 -56 38 -12 65 35 37 63 -18 18 -46 14
-58 -7z"/>
<path d="M5110 1735 c0 -36 3 -45 18 -45 13 0 17 8 17 33 0 24 4 32 18 31 9
-1 17 4 17 12 0 17 -12 18 -28 2 -9 -9 -12 -9 -12 0 0 7 -7 12 -15 12 -11 0
-15 -12 -15 -45z"/>
<path d="M5200 1771 c0 -5 9 -7 20 -4 14 4 20 0 20 -10 0 -9 -10 -17 -22 -19
-29 -4 -32 -41 -3 -47 16 -3 17 -1 7 11 -6 8 -9 18 -5 21 12 13 23 7 23 -13 0
-11 7 -20 15 -20 18 0 20 41 5 71 -11 19 -60 27 -60 10z"/>
<path d="M5303 1773 c-7 -2 -13 -20 -13 -38 0 -33 14 -46 48 -44 12 0 10 3 -5
9 -16 6 -23 18 -23 35 0 17 7 29 23 35 20 8 20 9 2 9 -11 -1 -26 -3 -32 -6z"/>
<path d="M5430 1759 c-18 -33 2 -69 37 -68 27 0 27 1 6 9 -29 12 -30 30 -2 30
15 0 20 5 17 23 -4 31 -43 35 -58 6z m40 -4 c0 -8 -4 -15 -10 -15 -5 0 -10 7
-10 15 0 8 5 15 10 15 6 0 10 -7 10 -15z"/>
<path d="M5573 1773 c-7 -2 -13 -20 -13 -38 0 -33 14 -46 48 -44 12 0 10 3 -5
9 -16 6 -23 18 -23 35 0 17 7 29 23 35 20 8 20 9 2 9 -11 -1 -26 -3 -32 -6z"/>
<path d="M5650 1766 c-28 -35 11 -93 48 -70 35 22 22 84 -18 84 -10 0 -23 -7
-30 -14z m40 -31 c0 -19 -4 -35 -10 -35 -5 0 -10 16 -10 35 0 19 5 35 10 35 6
0 10 -16 10 -35z"/>
<path d="M5740 1735 c0 -36 3 -45 18 -45 13 0 17 8 17 33 0 24 4 32 18 31 9
-1 17 4 17 12 0 17 -12 18 -28 2 -9 -9 -12 -9 -12 0 0 7 -7 12 -15 12 -11 0
-15 -12 -15 -45z"/>
<path d="M5825 1715 c0 -54 3 -65 17 -65 11 0 15 6 11 20 -4 15 0 20 14 20 25
0 43 19 43 45 0 29 -19 45 -54 45 l-31 0 0 -65z m55 20 c0 -24 -5 -35 -15 -35
-10 0 -15 11 -15 35 0 24 5 35 15 35 10 0 15 -11 15 -35z"/>
<path d="M5930 1705 c0 -9 5 -15 11 -13 6 2 11 8 11 13 0 5 -5 11 -11 13 -6 2
-11 -4 -11 -13z"/>
<path d="M1388 1571 c8 -4 26 -34 41 -66 l27 -57 24 53 24 54 4 -44 c2 -29 -1
-47 -10 -52 -8 -6 0 -8 22 -8 19 0 29 3 23 6 -8 3 -13 25 -13 58 0 33 5 55 13
58 6 3 0 6 -15 6 -23 1 -31 -6 -47 -41 l-19 -43 -18 43 c-14 34 -22 42 -43 42
-18 0 -22 -3 -13 -9z"/>
<path d="M1990 1515 c0 -51 3 -65 15 -65 12 0 15 14 15 65 0 51 -3 65 -15 65
-12 0 -15 -14 -15 -65z"/>
<path d="M2365 1547 c-5 -7 -8 -30 -5 -52 4 -34 9 -40 30 -42 14 -1 19 0 13 3
-16 7 -17 74 -2 74 6 0 4 7 -5 15 -17 18 -18 18 -31 2z"/>
<path d="M2433 1549 c-5 -5 -7 -28 -4 -52 5 -31 11 -43 26 -45 16 -3 18 -1 8
9 -15 15 -17 66 -4 71 5 2 3 8 -4 15 -8 7 -16 8 -22 2z"/>
<path d="M4991 1518 c-7 -24 -19 -53 -27 -65 -13 -21 -13 -23 5 -23 14 0 18 5
14 20 -5 17 0 20 27 20 27 0 32 -3 27 -20 -4 -16 0 -20 19 -20 l24 0 -24 63
c-28 76 -48 84 -65 25z m33 -14 c9 -23 8 -24 -14 -24 -11 0 -20 2 -20 4 0 12
13 36 20 36 4 0 11 -7 14 -16z"/>
<path d="M5308 1495 c-3 -57 -1 -65 15 -65 14 0 17 10 17 65 0 49 -3 65 -14
65 -11 0 -15 -17 -18 -65z"/>
<path d="M5370 1545 c0 -8 5 -15 10 -15 6 0 10 7 10 15 0 8 -4 15 -10 15 -5 0
-10 -7 -10 -15z"/>
<path d="M5666 1547 c-27 -20 -27 -84 -1 -103 20 -15 71 -19 78 -6 3 4 -9 7
-26 7 -25 0 -33 5 -41 27 -14 38 6 78 38 78 13 0 27 -5 29 -10 3 -6 4 -5 3 2
-4 19 -57 21 -80 5z"/>
<path d="M6539 1551 c9 -6 12 -25 10 -65 -4 -51 -2 -56 17 -56 17 0 20 5 16
25 -3 20 0 25 15 25 41 0 59 51 24 70 -24 12 -102 14 -82 1z m66 -31 c0 -13
-6 -25 -12 -27 -9 -3 -13 6 -13 27 0 21 4 30 13 28 6 -3 12 -15 12 -28z"/>
<path d="M6887 1540 c4 -15 0 -20 -14 -20 -25 0 -43 -19 -43 -45 0 -29 19 -45
55 -45 l30 0 -3 65 c-3 46 -8 65 -17 65 -8 0 -11 -7 -8 -20z m3 -65 c0 -37
-22 -49 -34 -19 -9 23 2 54 20 54 9 0 14 -11 14 -35z"/>
<path d="M1576 1532 c-3 -6 3 -8 14 -5 13 4 20 0 20 -10 0 -8 -12 -18 -26 -21
-40 -10 -27 -40 19 -44 l38 -3 -3 43 c-3 38 -6 43 -30 46 -14 2 -29 -1 -32 -6z
m34 -57 c0 -8 -4 -15 -10 -15 -5 0 -10 7 -10 15 0 8 5 15 10 15 6 0 10 -7 10
-15z"/>
<path d="M1663 1523 c-4 -11 1 -22 15 -31 28 -18 29 -36 2 -29 -11 3 -20 1
-20 -4 0 -15 37 -10 51 7 12 14 9 20 -16 41 -27 22 -28 25 -7 20 12 -3 22 -1
22 4 0 16 -40 9 -47 -8z"/>
<path d="M1733 1523 c-4 -11 1 -22 15 -31 28 -18 29 -36 2 -29 -11 3 -20 1
-20 -4 0 -5 11 -9 25 -9 35 0 44 28 17 51 -27 21 -27 26 -4 32 12 4 11 5 -6 6
-13 0 -25 -6 -29 -16z"/>
<path d="M1838 1530 c12 -5 22 -14 22 -19 0 -5 -10 -11 -22 -13 -15 -2 -24
-11 -26 -25 -3 -21 1 -23 35 -23 l39 0 -5 43 c-5 38 -9 42 -36 44 -27 2 -28 2
-7 -7z m20 -52 c-6 -18 -28 -21 -28 -4 0 9 7 16 16 16 9 0 14 -5 12 -12z"/>
<path d="M1912 1528 c-7 -7 -12 -21 -12 -33 0 -28 19 -45 50 -44 25 0 25 0 3
9 -17 7 -23 18 -23 40 0 30 23 43 33 18 3 -8 6 -6 6 5 1 20 -38 24 -57 5z"/>
<path d="M2039 1526 c7 -9 11 -29 9 -46 -4 -23 -1 -30 12 -30 26 0 12 83 -15
89 -17 3 -18 1 -6 -13z"/>
<path d="M2098 1495 c3 -38 7 -45 25 -45 16 0 18 3 9 12 -7 7 -12 27 -12 45 0
20 -5 33 -13 33 -8 0 -11 -14 -9 -45z"/>
<path d="M2148 1495 c2 -25 9 -45 16 -45 7 0 10 16 8 45 -2 25 -9 45 -16 45
-7 0 -10 -16 -8 -45z"/>
<path d="M2203 1523 c-4 -11 1 -22 15 -31 28 -18 29 -36 2 -29 -11 3 -20 1
-20 -4 0 -15 37 -10 51 7 12 14 9 20 -16 41 -27 22 -28 25 -7 20 12 -3 22 -1
22 4 0 16 -40 9 -47 -8z"/>
<path d="M2282 1528 c-28 -28 -7 -79 33 -77 16 1 17 2 3 6 -25 6 -22 33 3 33
15 0 20 5 17 23 -3 25 -36 35 -56 15z m38 -13 c0 -8 -4 -15 -10 -15 -5 0 -10
7 -10 15 0 8 5 15 10 15 6 0 10 -7 10 -15z"/>
<path d="M2493 1533 c-21 -8 -15 -33 12 -45 28 -13 23 -32 -8 -24 -14 3 -17 2
-10 -5 17 -17 48 -6 51 18 2 14 -3 23 -17 28 -27 8 -27 29 -1 22 11 -3 20 -1
20 4 0 10 -26 11 -47 2z"/>
<path d="M7135 1527 c-5 -7 -8 -30 -5 -52 4 -34 9 -40 30 -42 14 -1 19 0 13 3
-16 7 -17 74 -2 74 6 0 4 7 -5 15 -17 18 -18 18 -31 2z"/>
<path d="M4710 1501 c-13 -25 -4 -48 21 -56 38 -12 65 35 37 63 -18 18 -46 14
-58 -7z"/>
<path d="M5095 1455 c0 -60 2 -65 22 -65 16 0 20 5 16 19 -3 14 2 20 22 25 23
6 26 11 23 44 -3 35 -5 37 -43 40 l-40 3 0 -66z m60 20 c0 -16 -6 -30 -12 -32
-9 -3 -13 7 -13 32 0 25 4 35 13 33 6 -3 12 -17 12 -33z"/>
<path d="M5205 1455 c0 -54 3 -65 17 -65 11 0 15 6 11 20 -4 15 0 20 14 20 25
0 43 19 43 45 0 29 -19 45 -54 45 l-31 0 0 -65z m55 20 c0 -24 -5 -35 -15 -35
-10 0 -15 11 -15 35 0 24 5 35 15 35 10 0 15 -11 15 -35z"/>
<path d="M5365 1475 c0 -33 4 -45 15 -45 12 0 14 10 12 45 -2 25 -9 45 -16 45
-6 0 -11 -18 -11 -45z"/>
<path d="M5426 1504 c-30 -29 -10 -74 32 -73 27 0 27 0 4 10 -18 7 -23 15 -20
36 2 20 8 28 21 27 9 -1 17 2 17 7 0 15 -37 10 -54 -7z"/>
<path d="M5510 1512 c0 -5 7 -9 16 -8 26 2 28 -22 2 -26 -29 -4 -32 -41 -3
-46 15 -2 17 -1 6 6 -7 6 -10 15 -7 21 11 18 26 13 26 -9 0 -11 6 -20 13 -20
10 0 12 11 8 43 -5 37 -9 42 -33 45 -16 2 -28 -1 -28 -6z"/>
<path d="M5792 1508 c-7 -7 -12 -21 -12 -33 0 -46 53 -62 71 -21 21 45 -26 87
-59 54z m38 -34 c0 -24 -4 -34 -12 -32 -24 8 -22 68 2 68 5 0 10 -16 10 -36z"/>
<path d="M5875 1475 c0 -33 4 -45 15 -45 11 0 15 11 15 37 0 20 6 38 13 40 8
3 12 -8 12 -36 0 -30 4 -41 16 -41 12 0 14 9 12 43 -3 41 -4 42 -43 45 l-40 3
0 -46z"/>
<path d="M5983 1503 c-4 -11 1 -22 15 -31 28 -18 29 -36 2 -29 -11 3 -20 1
-20 -4 0 -15 37 -10 51 7 12 14 9 20 -16 41 -27 22 -28 25 -7 20 12 -3 22 -1
22 4 0 16 -40 9 -47 -8z"/>
<path d="M6059 1478 c5 -32 11 -44 26 -46 16 -3 18 -1 8 9 -7 7 -13 28 -13 46
0 21 -5 33 -13 33 -10 0 -12 -11 -8 -42z"/>
<path d="M6110 1475 c0 -33 4 -45 15 -45 11 0 15 12 15 45 0 33 -4 45 -15 45
-11 0 -15 -12 -15 -45z"/>
<path d="M6165 1474 c0 -32 4 -44 15 -44 10 0 15 11 15 35 0 19 5 35 10 35 6
0 10 -16 10 -35 0 -27 4 -35 18 -35 16 0 18 7 15 43 -4 41 -4 42 -43 44 l-40
2 0 -45z"/>
<path d="M6268 1475 c3 -31 9 -45 19 -45 20 0 14 84 -7 88 -12 2 -14 -7 -12
-43z"/>
<path d="M6333 1513 c-16 -6 -17 -55 -1 -71 7 -7 21 -12 33 -11 19 0 19 1 -2
9 -31 12 -29 30 2 30 27 0 33 18 13 38 -13 13 -24 14 -45 5z m26 -32 c-15 -5
-22 6 -14 19 6 9 10 9 16 -1 5 -8 4 -15 -2 -18z"/>
<path d="M6405 1475 c0 -39 3 -45 20 -45 18 0 20 5 17 35 -3 27 -1 35 12 35
30 0 16 15 -17 17 -32 3 -32 2 -32 -42z"/>
<path d="M6655 1475 c0 -42 2 -45 25 -44 14 0 19 3 13 6 -21 8 -16 54 7 60 11
3 20 9 20 15 0 5 -9 4 -20 -2 -14 -7 -20 -7 -20 0 0 5 -6 10 -12 10 -9 0 -13
-16 -13 -45z"/>
<path d="M6739 1499 c-8 -16 -8 -28 0 -45 18 -41 71 -25 71 21 0 44 -50 61
-71 24z m46 -24 c0 -16 -6 -30 -12 -32 -9 -3 -13 7 -13 32 0 25 4 35 13 33 6
-3 12 -17 12 -33z"/>
<path d="M6939 1478 c5 -32 11 -44 26 -46 16 -3 18 -1 8 9 -7 7 -13 28 -13 46
0 21 -5 33 -13 33 -10 0 -12 -11 -8 -42z"/>
<path d="M6990 1475 c0 -33 4 -45 15 -45 11 0 15 12 15 45 0 33 -4 45 -15 45
-11 0 -15 -12 -15 -45z"/>
<path d="M7052 1508 c-7 -7 -12 -21 -12 -33 0 -28 19 -45 50 -44 25 0 25 0 3
9 -17 7 -23 18 -23 40 0 30 23 43 33 18 3 -8 6 -6 6 5 1 20 -38 24 -57 5z"/>
<path d="M7193 1503 c-4 -11 1 -22 15 -31 28 -18 29 -36 2 -29 -11 3 -20 1
-20 -4 0 -15 37 -10 51 7 12 14 9 20 -16 41 -27 22 -28 25 -7 20 12 -3 22 -1
22 4 0 16 -40 9 -47 -8z"/>
<path d="M1388 1453 c6 -2 18 -2 25 0 6 3 1 5 -13 5 -14 0 -19 -2 -12 -5z"/>
<path d="M1388 1323 c7 -3 12 -25 12 -58 0 -33 -5 -55 -12 -58 -7 -3 3 -5 22
-5 19 0 29 2 23 5 -25 10 -14 42 15 45 21 2 28 9 30 32 4 35 -11 46 -63 45
-22 0 -34 -3 -27 -6z m67 -23 c8 -24 -1 -40 -21 -40 -9 0 -14 11 -14 30 0 35
25 42 35 10z"/>
<path d="M1513 1310 c-3 -11 -10 -20 -17 -20 -6 0 -5 -4 3 -9 9 -6 12 -21 9
-45 -3 -28 0 -36 12 -36 12 0 15 8 12 36 -3 24 0 39 9 45 10 6 11 9 2 9 -7 0
-13 6 -13 14 0 8 6 17 13 19 7 3 4 6 -6 6 -11 1 -21 -8 -24 -19z"/>
<path d="M1570 1315 c0 -8 5 -15 10 -15 6 0 10 7 10 15 0 8 -4 15 -10 15 -5 0
-10 -7 -10 -15z"/>
<path d="M1919 1321 c9 -6 12 -25 10 -65 -4 -51 -2 -56 17 -56 17 0 20 5 16
25 -3 20 0 25 15 25 41 0 59 51 24 70 -24 12 -102 14 -82 1z m66 -31 c0 -13
-6 -25 -12 -27 -9 -3 -13 6 -13 27 0 21 4 30 13 28 6 -3 12 -15 12 -28z"/>
<path d="M2035 1265 c0 -51 3 -65 15 -65 11 0 15 11 13 42 -1 24 -2 53 -2 66
-1 12 -7 22 -13 22 -9 0 -13 -20 -13 -65z"/>
<path d="M2920 1315 c0 -8 5 -15 10 -15 6 0 10 7 10 15 0 8 -4 15 -10 15 -5 0
-10 -7 -10 -15z"/>
<path d="M3148 1265 c-3 -57 -1 -65 15 -65 14 0 17 10 17 65 0 49 -3 65 -14
65 -11 0 -15 -17 -18 -65z"/>
<path d="M2864 1300 c-5 -5 -8 -30 -6 -55 4 -39 7 -45 26 -44 11 0 15 3 9 6
-15 5 -18 70 -4 75 5 2 3 8 -4 15 -7 7 -16 8 -21 3z"/>
<path d="M4965 1245 l0 -66 44 3 c53 4 78 31 48 53 -12 8 -14 15 -8 20 16 10
13 42 -5 49 -9 3 -30 6 -47 6 l-32 0 0 -65z m65 30 c0 -16 -6 -25 -15 -25 -9
0 -15 9 -15 25 0 16 6 25 15 25 9 0 15 -9 15 -25z m5 -60 c0 -11 -8 -21 -17
-23 -14 -3 -18 3 -18 23 0 20 4 26 18 23 9 -2 17 -12 17 -23z"/>
<path d="M5085 1245 c0 -51 3 -65 15 -65 12 0 14 12 12 65 -5 89 -27 89 -27 0z"/>
<path d="M5403 1295 c-33 -23 -32 -79 1 -100 33 -22 80 -16 84 10 2 18 2 18
-8 3 -25 -41 -73 -11 -68 43 4 41 30 59 59 41 18 -11 20 -11 17 0 -7 19 -60
21 -85 3z"/>
<path d="M5888 1303 c7 -3 12 -25 12 -58 0 -33 -5 -55 -12 -58 -7 -3 6 -6 30
-6 24 -1 52 4 63 9 22 13 25 38 4 46 -11 5 -12 10 -3 24 19 30 -6 50 -61 49
-25 0 -40 -3 -33 -6z m67 -28 c0 -10 -6 -20 -12 -22 -8 -3 -13 5 -13 22 0 17
5 25 13 23 6 -3 12 -13 12 -23z m10 -60 c0 -11 -8 -21 -17 -23 -14 -3 -18 3
-18 23 0 20 4 26 18 23 9 -2 17 -12 17 -23z"/>
<path d="M6015 1245 c0 -51 3 -65 15 -65 12 0 14 12 12 65 -5 89 -27 89 -27 0z"/>
<path d="M6323 1303 c-7 -2 -13 -16 -13 -29 0 -19 8 -28 30 -35 38 -14 42 -49
6 -49 -13 0 -27 6 -29 13 -3 7 -6 5 -6 -5 -1 -13 7 -18 28 -18 56 0 68 54 18
78 -35 17 -37 46 -2 40 14 -3 25 -1 25 3 0 10 -37 11 -57 2z"/>
<path d="M6415 1245 c0 -51 3 -65 15 -65 11 0 15 11 13 42 -1 24 -2 53 -2 66
-1 12 -7 22 -13 22 -9 0 -13 -20 -13 -65z"/>
<path d="M6526 1301 c-4 -5 -2 -12 3 -15 5 -4 12 -2 15 3 4 5 2 12 -3 15 -5 4
-12 2 -15 -3z"/>
<path d="M6655 1245 c0 -51 3 -65 15 -65 12 0 14 12 12 65 -5 89 -27 89 -27 0z"/>
<path d="M6767 1291 c4 -14 -2 -20 -27 -24 -29 -6 -31 -9 -28 -44 3 -37 5 -38
43 -41 l40 -3 -3 66 c-3 45 -8 65 -17 65 -8 0 -11 -7 -8 -19z m1 -63 c-3 -36
-30 -46 -36 -15 -5 26 5 47 23 47 12 0 15 -8 13 -32z"/>
<path d="M1143 1283 c-18 -7 -16 -48 2 -63 17 -14 51 -5 59 16 14 35 -23 63
-61 47z"/>
<path d="M1565 1245 c0 -33 4 -45 15 -45 12 0 14 10 12 45 -2 25 -9 45 -16 45
-6 0 -11 -18 -11 -45z"/>
<path d="M1632 1283 c16 -4 16 -7 -3 -44 l-20 -40 37 3 c21 2 39 9 40 16 1 7
0 8 -3 2 -5 -12 -33 -14 -33 -2 1 4 7 18 15 32 21 36 19 40 -17 39 -18 -1 -25
-3 -16 -6z"/>
<path d="M1712 1278 c-28 -28 -7 -79 33 -77 16 1 17 2 3 6 -25 6 -22 33 3 33
15 0 20 5 17 23 -3 25 -36 35 -56 15z m38 -13 c0 -8 -4 -15 -10 -15 -5 0 -10
7 -10 15 0 8 5 15 10 15 6 0 10 -7 10 -15z"/>
<path d="M1785 1245 c0 -39 3 -45 20 -45 18 0 20 5 17 35 -3 27 -1 35 12 35
30 0 16 15 -17 17 -32 3 -32 2 -32 -42z"/>
<path d="M2088 1245 c3 -31 9 -45 19 -45 20 0 14 84 -7 88 -12 2 -14 -7 -12
-43z"/>
<path d="M2150 1282 c0 -5 7 -9 16 -8 26 2 28 -22 2 -26 -29 -4 -32 -41 -3
-46 15 -2 17 -1 6 6 -7 6 -10 15 -7 21 11 18 26 13 26 -9 0 -11 6 -20 13 -20
10 0 12 11 8 43 -5 37 -9 42 -33 45 -16 2 -28 -1 -28 -6z"/>
<path d="M2235 1245 c0 -39 3 -45 20 -45 18 0 20 5 17 35 -3 27 -1 35 12 35
30 0 16 15 -17 17 -32 3 -32 2 -32 -42z"/>
<path d="M2320 1245 c0 -36 3 -45 18 -45 14 0 17 7 14 45 -3 30 -9 45 -18 45
-10 0 -14 -13 -14 -45z"/>
<path d="M2370 1275 c7 -8 10 -28 8 -45 -3 -23 -1 -30 11 -30 12 0 16 10 16
37 0 39 -9 53 -34 53 -11 0 -11 -3 -1 -15z"/>
<path d="M2424 1274 c3 -9 6 -29 6 -45 0 -19 5 -29 15 -29 10 0 15 10 15 29 0
40 -9 61 -27 61 -10 0 -13 -6 -9 -16z"/>
<path d="M2490 1282 c0 -5 7 -9 16 -8 26 2 28 -22 2 -26 -29 -4 -32 -41 -3
-46 15 -2 17 -1 6 6 -7 6 -10 15 -7 21 11 18 26 13 26 -9 0 -11 6 -20 13 -20
10 0 12 11 8 43 -5 37 -9 42 -33 45 -16 2 -28 -1 -28 -6z"/>
<path d="M2586 1274 c-30 -29 -10 -74 32 -73 27 0 27 0 4 10 -18 7 -23 15 -20
36 2 20 8 28 21 27 9 -1 17 2 17 7 0 15 -37 10 -54 -7z"/>
<path d="M2673 1283 c-16 -6 -17 -55 -1 -71 7 -7 21 -12 33 -11 19 0 19 1 -2
9 -31 12 -29 30 2 30 27 0 33 18 13 38 -13 13 -24 14 -45 5z m26 -32 c-15 -5
-22 6 -14 19 6 9 10 9 16 -1 5 -8 4 -15 -2 -18z"/>
<path d="M2749 1248 c5 -32 11 -44 26 -46 16 -3 18 -1 8 9 -7 7 -13 28 -13 46
0 21 -5 33 -13 33 -10 0 -12 -11 -8 -42z"/>
<path d="M2800 1245 c0 -33 4 -45 15 -45 11 0 15 12 15 45 0 33 -4 45 -15 45
-11 0 -15 -12 -15 -45z"/>
<path d="M2915 1245 c0 -33 4 -45 15 -45 12 0 14 10 12 45 -2 25 -9 45 -16 45
-6 0 -11 -18 -11 -45z"/>
<path d="M2983 1283 c-7 -2 -13 -20 -13 -38 0 -33 14 -46 48 -44 12 0 10 3 -5
9 -16 6 -23 18 -23 35 0 17 7 29 23 35 20 8 20 9 2 9 -11 -1 -26 -3 -32 -6z"/>
<path d="M3060 1282 c0 -5 7 -9 16 -8 26 2 28 -22 2 -26 -29 -4 -32 -41 -3
-46 15 -2 17 -1 6 6 -7 6 -10 15 -7 21 11 18 26 13 26 -9 0 -11 6 -20 13 -20
10 0 12 11 8 43 -5 37 -9 42 -33 45 -16 2 -28 -1 -28 -6z"/>
<path d="M3203 1273 c-4 -11 1 -22 15 -31 28 -18 29 -36 2 -29 -11 3 -20 1
-20 -4 0 -15 37 -10 51 7 12 14 9 20 -16 41 -27 22 -28 25 -7 20 12 -3 22 -1
22 4 0 16 -40 9 -47 -8z"/>
<path d="M4710 1251 c-13 -25 -4 -48 21 -56 38 -12 65 35 37 63 -18 18 -46 14
-58 -7z"/>
<path d="M5142 1228 c3 -43 3 -43 43 -45 l40 -2 -3 45 c-5 53 -27 60 -27 7 0
-20 -6 -38 -12 -40 -9 -3 -13 8 -13 36 0 30 -4 41 -16 41 -12 0 -14 -9 -12
-42z"/>
<path d="M5250 1249 c-18 -33 2 -69 37 -68 27 0 27 1 6 9 -29 12 -30 30 -2 30
15 0 20 5 17 23 -4 31 -43 35 -58 6z m40 -4 c0 -8 -4 -15 -10 -15 -5 0 -10 7
-10 15 0 8 5 15 10 15 6 0 10 -7 10 -15z"/>
<path d="M5515 1225 c0 -39 3 -45 20 -45 18 0 20 5 17 35 -3 27 -1 35 12 35
30 0 16 15 -17 17 -32 3 -32 2 -32 -42z"/>
<path d="M5599 1249 c-8 -16 -8 -28 0 -45 18 -41 71 -25 71 21 0 44 -50 61
-71 24z m46 -24 c0 -16 -6 -30 -12 -32 -9 -3 -13 7 -13 32 0 25 4 35 13 33 6
-3 12 -17 12 -33z"/>
<path d="M5693 1253 c-4 -11 1 -22 15 -31 28 -18 29 -36 2 -29 -11 3 -20 1
-20 -4 0 -5 11 -9 25 -9 35 0 44 28 17 51 -27 21 -27 26 -4 32 12 4 11 5 -6 6
-13 0 -25 -6 -29 -16z"/>
<path d="M5773 1263 c-21 -8 -15 -33 12 -45 28 -13 23 -32 -8 -24 -14 3 -17 2
-10 -5 17 -17 48 -6 51 18 2 14 -3 23 -17 28 -27 8 -27 29 -1 22 11 -3 20 -1
20 4 0 10 -26 11 -47 2z"/>
<path d="M6069 1228 c4 -31 11 -44 24 -46 16 -3 17 -1 8 16 -6 12 -11 32 -11
46 0 15 -6 26 -13 26 -10 0 -12 -11 -8 -42z"/>
<path d="M6120 1225 c0 -36 3 -45 18 -45 14 0 17 7 14 45 -3 30 -9 45 -18 45
-10 0 -14 -13 -14 -45z"/>
<path d="M6182 1258 c-28 -28 -7 -79 33 -77 16 1 17 2 3 6 -25 6 -22 33 3 33
15 0 20 5 17 23 -3 25 -36 35 -56 15z m38 -13 c0 -8 -4 -15 -10 -15 -5 0 -10
7 -10 15 0 8 5 15 10 15 6 0 10 -7 10 -15z"/>
<path d="M6464 1254 c3 -9 6 -29 6 -45 0 -19 5 -29 15 -29 10 0 15 10 15 29 0
40 -9 61 -27 61 -10 0 -13 -6 -9 -16z"/>
<path d="M6520 1225 c0 -33 4 -45 15 -45 11 0 15 12 15 45 0 33 -4 45 -15 45
-11 0 -15 -12 -15 -45z"/>
<path d="M6583 1263 c-16 -6 -17 -55 -1 -71 7 -7 21 -12 33 -11 19 0 19 1 -2
9 -31 12 -29 30 2 30 27 0 33 18 13 38 -13 13 -24 14 -45 5z m26 -32 c-15 -5
-22 6 -14 19 6 9 10 9 16 -1 5 -8 4 -15 -2 -18z"/>
<path d="M1388 1071 c8 -4 26 -34 41 -66 l27 -57 24 53 24 54 4 -44 c2 -29 -1
-47 -10 -52 -8 -6 0 -8 22 -8 19 0 29 3 23 6 -8 3 -13 25 -13 58 0 33 5 55 13
58 6 3 0 6 -15 6 -23 1 -31 -6 -47 -41 l-19 -43 -18 43 c-14 34 -22 42 -43 42
-18 0 -22 -3 -13 -9z"/>
<path d="M1707 1061 c4 -14 -2 -20 -27 -24 -29 -6 -31 -9 -28 -44 3 -37 5 -38
43 -41 l40 -3 -3 66 c-3 45 -8 65 -17 65 -8 0 -11 -7 -8 -19z m1 -63 c-3 -36
-30 -46 -36 -15 -5 26 5 47 23 47 12 0 15 -8 13 -32z"/>
<path d="M1985 1015 c0 -59 2 -65 21 -65 17 0 20 5 16 30 -4 27 -2 30 23 30
25 0 27 -3 23 -30 -4 -25 -1 -30 16 -30 19 0 21 5 17 56 -2 40 1 59 10 65 10
6 4 9 -17 9 -28 0 -30 -2 -26 -30 4 -27 2 -30 -23 -30 -25 0 -27 3 -23 30 4
25 1 30 -16 30 -19 0 -21 -6 -21 -65z"/>
<path d="M2310 1015 c0 -55 3 -65 18 -65 15 0 17 8 14 65 -3 48 -7 65 -18 65
-11 0 -14 -16 -14 -65z"/>
<path d="M2430 1015 c0 -51 3 -65 15 -65 12 0 15 14 15 65 0 51 -3 65 -15 65
-12 0 -15 -14 -15 -65z"/>
<path d="M2373 1049 c-5 -5 -7 -28 -4 -52 5 -31 11 -43 26 -45 16 -3 18 -1 8
9 -15 15 -17 66 -4 71 5 2 3 8 -4 15 -8 7 -16 8 -22 2z"/>
<path d="M1143 1033 c-18 -7 -16 -48 2 -63 17 -14 51 -5 59 16 14 35 -23 63
-61 47z"/>
<path d="M1570 1019 c-18 -33 2 -69 37 -68 27 0 27 1 6 9 -29 12 -30 30 -2 30
15 0 20 5 17 23 -4 31 -43 35 -58 6z m40 -4 c0 -8 -4 -15 -10 -15 -5 0 -10 7
-10 15 0 8 5 15 10 15 6 0 10 -7 10 -15z"/>
<path d="M1766 1024 c-30 -29 -10 -74 32 -73 27 0 27 0 4 10 -18 7 -23 15 -20
36 2 20 8 28 21 27 9 -1 17 2 17 7 0 15 -37 10 -54 -7z"/>
<path d="M1852 1028 c-7 -7 -12 -21 -12 -33 0 -46 53 -62 71 -21 21 45 -26 87
-59 54z m38 -34 c0 -24 -4 -34 -12 -32 -24 8 -22 68 2 68 5 0 10 -16 10 -36z"/>
<path d="M2143 1033 c-16 -6 -17 -55 -1 -71 7 -7 21 -12 33 -11 19 0 19 1 -2
9 -31 12 -29 30 2 30 27 0 33 18 13 38 -13 13 -24 14 -45 5z m26 -32 c-15 -5
-22 6 -14 19 6 9 10 9 16 -1 5 -8 4 -15 -2 -18z"/>
<path d="M2226 1032 c-3 -6 3 -8 14 -5 13 4 20 0 20 -10 0 -8 -12 -18 -26 -21
-40 -10 -27 -40 19 -44 l38 -3 -3 43 c-3 38 -6 43 -30 46 -14 2 -29 -1 -32 -6z
m34 -57 c0 -8 -4 -15 -10 -15 -5 0 -10 7 -10 15 0 8 5 15 10 15 6 0 10 -7 10
-15z"/>
<path d="M2479 1026 c7 -9 11 -29 9 -46 -4 -23 -1 -30 12 -30 26 0 12 83 -15
89 -17 3 -18 1 -6 -13z"/>
<path d="M1388 953 c6 -2 18 -2 25 0 6 3 1 5 -13 5 -14 0 -19 -2 -12 -5z"/>
</g>
</svg>
